SplineFontDB: 3.2
FontName: Estedad-FD-ExtraBold
FullName: Estedad-FD ExtraBold
FamilyName: Estedad-FD ExtraBold
Weight: Extra-bold
Copyright: Copyright (c) 2020 by Amin Abedi (@aminabedi68)-www.fontamin.com,\nwith Reserved Font Name Estedad.\n\nThis Font Software is licensed under the SIL Open Font License, Version 1.1.
Version: 5.0
ItalicAngle: 0
UnderlinePosition: -750
UnderlineWidth: 150
Ascent: 1438
Descent: 610
InvalidEm: 0
LayerCount: 2
Layer: 0 0 "Back" 1
Layer: 1 0 "Estedad" 0
StyleMap: 0x0040
FSType: 0
OS2Version: 0
OS2_WeightWidthSlopeOnly: 0
OS2_UseTypoMetrics: 0
CreationTime: 1606833665
ModificationTime: 1612945583
PfmFamily: 17
TTFWeight: 800
TTFWidth: 5
LineGap: 0
VLineGap: 0
OS2TypoAscent: 2400
OS2TypoAOffset: 0
OS2TypoDescent: -1200
OS2TypoDOffset: 0
OS2TypoLinegap: 0
OS2WinAscent: 2400
OS2WinAOffset: 0
OS2WinDescent: 1200
OS2WinDOffset: 0
HheadAscent: 2400
HheadAOffset: 0
HheadDescent: -1200
HheadDOffset: 0
OS2CapHeight: 1500
OS2XHeight: 1090
OS2Vendor: 'amin'
Lookup: 4 0 0 "'ccmp' Glyph Composition Decomposition lookup 0" { "'ccmp' Glyph Composition Decomposition lookup 0 subtable"  } ['ccmp' ('DFLT' <'dflt' > 'arab' <'FAR ' 'MLY ' 'SND ' 'URD ' 'dflt' > ) ]
Lookup: 1 1 0 "'locl' Localized Forms in Arabic lookup 5" { "'locl' Localized Forms in Arabic lookup 5 subtable"  } ['locl' ('arab' <'URD ' > ) ]
Lookup: 1 1 0 "'locl' Localized Forms in Arabic lookup 6" { "'locl' Localized Forms in Arabic lookup 6 subtable"  } ['locl' ('arab' <'FAR ' > ) ]
Lookup: 1 0 0 "Single Substitution 1" { "Single Substitution 1 subtable"  } []
Lookup: 1 0 0 "Single Substitution 2" { "Single Substitution 2 subtable"  } []
Lookup: 1 9 0 "'isol' Isolated Forms in Arabic lookup 11" { "'isol' Isolated Forms in Arabic lookup 11 subtable"  } ['isol' ('DFLT' <'dflt' > 'arab' <'FAR ' 'MLY ' 'SND ' 'URD ' 'dflt' > ) ]

StartChar: A
Encoding: 65 65 0
GlifName: A_
Width: 1438
VWidth: 0
GlyphClass: 2
Flags: HW
LayerCount: 2
Fore
SplineSet
474 326 m 257
 366 0 l 257
 -7 0 l 257
 532 1484 l 257
 908 1484 l 257
 1445 0 l 257
 1072 0 l 257
 966 326 l 257
 474 326 l 257
561 597 m 257
 880 597 l 257
 721 1078 l 257
 561 597 l 257
EndSplineSet
Substitution2: "'c2sc' Capitals to Small Capitals in Latin lookup 0 subtable" uni1D00
EndChar

StartChar: AE
Encoding: 198 198 1
GlifName: A_E_
Width: 1822
VWidth: 0
GlyphClass: 2
Flags: HW
LayerCount: 2
Fore
SplineSet
856 1184 m 257
 818 1184 l 257
 630 672 l 257
 856 672 l 257
 856 1184 l 257
618 1484 m 257
 1742 1484 l 257
 1742 1184 l 257
 1206 1184 l 257
 1206 878 l 257
 1688 878 l 257
 1688 604 l 257
 1206 604 l 257
 1206 296 l 257
 1742 296 l 257
 1742 0 l 257
 856 0 l 257
 856 400 l 257
 532 400 l 257
 385 0 l 257
 13 0 l 257
 618 1484 l 257
EndSplineSet
EndChar

StartChar: Arabic_Double_Dot_H.alt
Encoding: 1114113 -1 11
GlifName: A_rabic_D_ouble_D_ot_H_.alt
Width: 758
VWidth: 0
GlyphClass: 2
Flags: HW
LayerCount: 2
Fore
SplineSet
360 117 m 257
 494 250 l 257
 627 117 l 257
 494 -16 l 257
 360 117 l 257
122 117 m 257
 256 250 l 257
 389 117 l 257
 256 -16 l 257
 122 117 l 257
EndSplineSet
EndChar

StartChar: Arabic_Double_Dot_V.alt
Encoding: 1114115 -1 13
GlifName: A_rabic_D_ouble_D_ot_V_.alt
Width: 497
VWidth: 0
GlyphClass: 2
Flags: HW
LayerCount: 2
Fore
SplineSet
244 233 m 257
 110 366 l 257
 244 500 l 257
 378 366 l 257
 244 233 l 257
244 -5 m 257
 110 128 l 257
 244 262 l 257
 378 128 l 257
 244 -5 l 257
EndSplineSet
EndChar

StartChar: Arabic_Single_Dot
Encoding: 1114117 -1 15
GlifName: A_rabic_S_ingle_D_ot
Width: 587
VWidth: 0
GlyphClass: 2
Flags: HW
LayerCount: 2
Fore
SplineSet
96 193 m 257
 294 390 l 257
 491 193 l 257
 294 -4 l 257
 96 193 l 257
EndSplineSet
EndChar

StartChar: Arabic_Single_Dot.alt
Encoding: 1114118 -1 16
GlifName: A_rabic_S_ingle_D_ot.alt
Width: 392
VWidth: 0
GlyphClass: 2
Flags: HW
LayerCount: 2
Fore
SplineSet
40 156 m 257
 196 312 l 257
 352 156 l 257
 196 0 l 257
 40 156 l 257
EndSplineSet
EndChar

StartChar: B
Encoding: 66 66 23
GlifName: B_
Width: 1402
VWidth: 0
GlyphClass: 2
Flags: HW
LayerCount: 2
Fore
SplineSet
138 1484 m 257
 778 1484 l 258
 1068 1484 1249 1335 1249 1053 c 256
 1249 915 1189 804 1079 744 c 257
 1207 690 1294 556 1294 392 c 256
 1294 106 1123 0 812 0 c 258
 138 0 l 257
 138 1484 l 257
486 1184 m 257
 486 872 l 257
 734 872 l 258
 833 872 897 924 897 1030 c 256
 897 1136 834 1184 734 1184 c 258
 486 1184 l 257
486 610 m 257
 486 296 l 257
 784 296 l 258
 883 296 948 348 948 454 c 256
 948 560 884 610 784 610 c 258
 486 610 l 257
EndSplineSet
Substitution2: "'c2sc' Capitals to Small Capitals in Latin lookup 0 subtable" uni0299
EndChar

StartChar: C
Encoding: 67 67 24
GlifName: C_
Width: 1490
VWidth: 0
GlyphClass: 2
Flags: HW
LayerCount: 2
Fore
SplineSet
436 741 m 256
 436 451 543 287 743 287 c 256
 899 287 1002 387 1020 536 c 257
 1386 534 l 257
 1379 238 1117 -11 745 -11 c 256
 333 -11 88 292 88 741 c 256
 88 1190 333 1494 745 1494 c 256
 1117 1494 1379 1244 1386 948 c 257
 1020 946 l 257
 1002 1095 899 1196 743 1196 c 256
 543 1196 436 1031 436 741 c 256
EndSplineSet
Substitution2: "'c2sc' Capitals to Small Capitals in Latin lookup 0 subtable" uni1D04
EndChar

StartChar: D
Encoding: 68 68 30
GlifName: D_
Width: 1419
VWidth: 0
GlyphClass: 2
Flags: HW
LayerCount: 2
Fore
SplineSet
1334 741 m 256
 1334 357 1144 0 644 0 c 258
 131 0 l 257
 131 1484 l 257
 644 1484 l 258
 1144 1484 1334 1125 1334 741 c 256
984 741 m 256
 984 1060 895 1184 644 1184 c 258
 480 1184 l 257
 480 296 l 257
 644 296 l 258
 895 296 984 421 984 741 c 256
EndSplineSet
Substitution2: "'c2sc' Capitals to Small Capitals in Latin lookup 0 subtable" uni1D05
EndChar

StartChar: E
Encoding: 69 69 33
GlifName: E_
Width: 1127
VWidth: 0
GlyphClass: 2
Flags: HW
LayerCount: 2
Fore
SplineSet
1092 296 m 257
 1092 0 l 257
 131 0 l 257
 131 1484 l 257
 1092 1484 l 257
 1092 1184 l 257
 480 1184 l 257
 480 878 l 257
 1036 878 l 257
 1036 604 l 257
 480 604 l 257
 480 296 l 257
 1092 296 l 257
EndSplineSet
Substitution2: "'c2sc' Capitals to Small Capitals in Latin lookup 0 subtable" uni1D07
EndChar

StartChar: Eng
Encoding: 330 330 42
GlifName: E_ng
Width: 1494
VWidth: 0
GlyphClass: 2
Flags: HW
LayerCount: 2
Fore
SplineSet
136 1484 m 257
 486 1484 l 257
 486 0 l 257
 136 0 l 257
 136 1484 l 257
894 1494 m 256
 1250 1494 1380 1262 1380 884 c 258
 1380 305 l 258
 1380 75 1212 -11 1020 -11 c 256
 930 -11 837 8 756 40 c 257
 803 266 l 257
 843 255 884 251 916 251 c 256
 990 251 1032 282 1032 346 c 258
 1032 884 l 258
 1032 1055 970 1178 776 1178 c 256
 590 1178 492 1046 486 880 c 257
 402 880 l 257
 425 1246 576 1494 894 1494 c 256
EndSplineSet
EndChar

StartChar: F
Encoding: 70 70 46
GlifName: F_
Width: 1126
VWidth: 0
GlyphClass: 2
Flags: HW
LayerCount: 2
Fore
SplineSet
480 0 m 257
 131 0 l 257
 131 1484 l 257
 1092 1484 l 257
 1092 1184 l 257
 480 1184 l 257
 480 836 l 257
 958 836 l 257
 958 562 l 257
 480 562 l 257
 480 0 l 257
EndSplineSet
Substitution2: "'c2sc' Capitals to Small Capitals in Latin lookup 0 subtable" uniA730
EndChar

StartChar: G
Encoding: 71 71 47
GlifName: G_
Width: 1567
VWidth: 0
GlyphClass: 2
Flags: HW
LayerCount: 2
Fore
SplineSet
734 836 m 257
 1454 836 l 257
 1454 262 l 257
 1309 86 1116 -12 830 -12 c 256
 396 -12 106 288 106 740 c 256
 106 1184 390 1494 800 1494 c 256
 1079 1494 1286 1346 1383 1078 c 257
 1112 970 l 257
 1058 1116 950 1196 802 1196 c 256
 584 1196 456 1026 456 740 c 256
 456 436 581 288 835 288 c 256
 928 288 1050 313 1104 341 c 257
 1104 562 l 257
 734 562 l 257
 734 836 l 257
EndSplineSet
Substitution2: "'c2sc' Capitals to Small Capitals in Latin lookup 0 subtable" uni0262
EndChar

StartChar: GAFbar
Encoding: 1114122 -1 48
GlifName: G_A_F_bar
Width: 1069
VWidth: 0
GlyphClass: 2
Flags: HW
LayerCount: 2
Fore
SplineSet
850 2162 m 257
 890 1990 l 257
 630 1928 356 1815 122 1674 c 257
 30 1826 l 257
 282 1976 566 2096 850 2162 c 257
EndSplineSet
EndChar

StartChar: H
Encoding: 72 72 53
GlifName: H_
Width: 1480
VWidth: 0
GlyphClass: 2
Flags: HW
LayerCount: 2
Fore
SplineSet
1000 1484 m 257
 1349 1484 l 257
 1349 0 l 257
 1000 0 l 257
 1000 604 l 257
 480 604 l 257
 480 0 l 257
 131 0 l 257
 131 1484 l 257
 480 1484 l 257
 480 878 l 257
 1000 878 l 257
 1000 1484 l 257
EndSplineSet
Substitution2: "'c2sc' Capitals to Small Capitals in Latin lookup 0 subtable" uni029C
EndChar

StartChar: I
Encoding: 73 73 63
GlifName: I_
Width: 673
VWidth: 0
GlyphClass: 2
Flags: HW
LayerCount: 2
Fore
SplineSet
512 0 m 257
 162 0 l 257
 162 1484 l 257
 512 1484 l 257
 512 0 l 257
EndSplineSet
Substitution2: "'c2sc' Capitals to Small Capitals in Latin lookup 0 subtable" uni026A
EndChar

StartChar: J
Encoding: 74 74 74
GlifName: J_
Width: 810
VWidth: 0
GlyphClass: 2
Flags: HW
LayerCount: 2
Fore
SplineSet
56 40 m 257
 104 266 l 257
 144 255 184 251 216 251 c 256
 290 251 332 282 332 346 c 258
 332 1484 l 257
 681 1484 l 257
 681 305 l 258
 681 75 513 -11 321 -11 c 256
 231 -11 137 8 56 40 c 257
EndSplineSet
Substitution2: "'c2sc' Capitals to Small Capitals in Latin lookup 0 subtable" uni1D0A
EndChar

StartChar: K
Encoding: 75 75 76
GlifName: K_
Width: 1433
VWidth: 0
GlyphClass: 2
Flags: HW
LayerCount: 2
Fore
SplineSet
1011 1484 m 257
 1421 1484 l 257
 806 740 l 257
 1421 0 l 257
 1011 0 l 257
 524 634 l 257
 480 634 l 257
 480 0 l 257
 131 0 l 257
 131 1484 l 257
 480 1484 l 257
 480 882 l 257
 524 882 l 257
 1011 1484 l 257
EndSplineSet
Substitution2: "'c2sc' Capitals to Small Capitals in Latin lookup 0 subtable" uni1D0B
EndChar

StartChar: K.alt
Encoding: 1114130 -1 77
GlifName: K_.alt
Width: 1433
VWidth: 0
GlyphClass: 2
Flags: HW
LayerCount: 2
Fore
SplineSet
1011 1484 m 257
 1421 1484 l 257
 806 740 l 257
 1421 0 l 257
 1011 0 l 257
 617 510 l 257
 480 346 l 257
 480 0 l 257
 131 0 l 257
 131 1484 l 257
 480 1484 l 257
 480 830 l 257
 1011 1484 l 257
EndSplineSet
Substitution2: "'c2sc' Capitals to Small Capitals in Latin lookup 0 subtable" uni1D0B
EndChar

StartChar: L
Encoding: 76 76 78
GlifName: L_
Width: 1143
VWidth: 0
GlyphClass: 2
Flags: HW
LayerCount: 2
Fore
SplineSet
1100 296 m 257
 1100 0 l 257
 131 0 l 257
 131 1484 l 257
 480 1484 l 257
 480 296 l 257
 1100 296 l 257
EndSplineSet
Substitution2: "'c2sc' Capitals to Small Capitals in Latin lookup 0 subtable" uni029F
EndChar

StartChar: M
Encoding: 77 77 83
GlifName: M_
Width: 1930
VWidth: 0
GlyphClass: 2
Flags: HW
LayerCount: 2
Fore
SplineSet
480 0 m 257
 131 0 l 257
 131 1484 l 257
 532 1484 l 257
 969 346 l 257
 1398 1484 l 257
 1802 1484 l 257
 1802 0 l 257
 1452 0 l 257
 1452 904 l 257
 1132 0 l 257
 805 0 l 257
 480 904 l 257
 480 0 l 257
EndSplineSet
Substitution2: "'c2sc' Capitals to Small Capitals in Latin lookup 0 subtable" uni1D0D
EndChar

StartChar: N
Encoding: 78 78 84
GlifName: N_
Width: 1487
VWidth: 0
GlyphClass: 2
Flags: HW
LayerCount: 2
Fore
SplineSet
1010 1484 m 257
 1359 1484 l 257
 1359 0 l 257
 1030 0 l 257
 480 886 l 257
 480 0 l 257
 131 0 l 257
 131 1484 l 257
 458 1484 l 257
 1010 596 l 257
 1010 1484 l 257
EndSplineSet
Substitution2: "'c2sc' Capitals to Small Capitals in Latin lookup 0 subtable" uni0274
EndChar

StartChar: O
Encoding: 79 79 88
GlifName: O_
Width: 1515
VWidth: 0
GlyphClass: 2
Flags: HW
LayerCount: 2
Fore
SplineSet
758 1494 m 256
 1238 1494 1435 1141 1435 741 c 256
 1435 341 1236 -11 758 -11 c 256
 280 -11 80 341 80 741 c 256
 80 1141 278 1494 758 1494 c 256
758 1192 m 256
 571 1192 433 1057 433 741 c 256
 433 425 568 290 758 290 c 256
 948 290 1084 425 1084 741 c 256
 1084 1057 945 1192 758 1192 c 256
EndSplineSet
Substitution2: "'c2sc' Capitals to Small Capitals in Latin lookup 0 subtable" uni1D0F
EndChar

StartChar: OE
Encoding: 338 338 89
GlifName: O_E_
Width: 1829
VWidth: 0
GlyphClass: 2
Flags: HW
LayerCount: 2
Fore
SplineSet
910 1184 m 257
 794 1184 l 258
 578 1184 431 1051 431 741 c 256
 431 430 578 296 794 296 c 258
 910 296 l 257
 910 1184 l 257
1260 1184 m 257
 1260 878 l 257
 1740 878 l 257
 1740 604 l 257
 1260 604 l 257
 1260 296 l 257
 1796 296 l 257
 1796 0 l 257
 794 0 l 258
 326 0 81 340 81 741 c 256
 81 1142 326 1484 794 1484 c 258
 1796 1484 l 257
 1796 1184 l 257
 1260 1184 l 257
EndSplineSet
EndChar

StartChar: P
Encoding: 80 80 102
GlifName: P_
Width: 1378
VWidth: 0
GlyphClass: 2
Flags: HW
LayerCount: 2
Fore
SplineSet
486 0 m 257
 138 0 l 257
 138 1484 l 257
 764 1484 l 258
 1108 1484 1290 1316 1290 1004 c 256
 1290 692 1108 525 764 525 c 258
 486 525 l 257
 486 0 l 257
486 1184 m 257
 486 824 l 257
 754 824 l 258
 878 824 942 890 942 1006 c 256
 942 1122 880 1184 754 1184 c 258
 486 1184 l 257
EndSplineSet
Substitution2: "'c2sc' Capitals to Small Capitals in Latin lookup 0 subtable" uni1D18
EndChar

StartChar: R
Encoding: 82 82 105
GlifName: R_
Width: 1375
VWidth: 0
GlyphClass: 2
Flags: HW
LayerCount: 2
Fore
SplineSet
1002 709 m 257
 1372 0 l 257
 1029 0 l 257
 698 709 l 257
 1002 709 l 257
EndSplineSet
Refer: 102 80 N 1 0 0 1 0 0 2
Substitution2: "'c2sc' Capitals to Small Capitals in Latin lookup 0 subtable" uni0280
EndChar

StartChar: S
Encoding: 83 83 108
GlifName: S_
Width: 1279
VWidth: 0
GlyphClass: 2
Flags: HW
LayerCount: 2
Fore
SplineSet
86 508 m 257
 428 508 l 257
 428 368 496 289 659 289 c 256
 773 289 851 335 851 426 c 256
 851 528 695 573 614 596 c 256
 398 656 122 762 122 1062 c 256
 122 1340 343 1494 614 1494 c 256
 966 1494 1177 1300 1177 1004 c 257
 834 1004 l 257
 834 1117 774 1193 638 1193 c 256
 532 1193 464 1146 464 1065 c 256
 464 959 630 916 714 892 c 256
 928 835 1194 722 1194 420 c 256
 1194 119 930 -11 672 -11 c 256
 312 -11 86 166 86 508 c 257
EndSplineSet
Substitution2: "'c2sc' Capitals to Small Capitals in Latin lookup 0 subtable" uniA731
EndChar

StartChar: T
Encoding: 84 84 113
GlifName: T_
Width: 1331
VWidth: 0
GlyphClass: 2
Flags: HW
LayerCount: 2
Fore
SplineSet
841 0 m 257
 492 0 l 257
 492 1184 l 257
 34 1184 l 257
 34 1484 l 257
 1298 1484 l 257
 1298 1184 l 257
 841 1184 l 257
 841 0 l 257
EndSplineSet
Substitution2: "'c2sc' Capitals to Small Capitals in Latin lookup 0 subtable" uni1D1B
EndChar

StartChar: Thorn
Encoding: 222 222 123
GlifName: T_horn
Width: 1378
VWidth: 0
GlyphClass: 2
Flags: HW
LayerCount: 2
Fore
SplineSet
486 565 m 257
 726 565 l 258
 856 565 942 604 942 746 c 256
 942 888 852 926 726 926 c 258
 486 926 l 257
 486 565 l 257
486 0 m 257
 138 0 l 257
 138 1484 l 257
 486 1484 l 257
 486 1222 l 257
 726 1222 l 258
 1032 1222 1291 1060 1291 746 c 256
 1291 430 1026 266 726 266 c 258
 486 266 l 257
 486 0 l 257
EndSplineSet
EndChar

StartChar: U
Encoding: 85 85 124
GlifName: U_
Width: 1497
VWidth: 0
GlyphClass: 2
Flags: HW
LayerCount: 2
Fore
SplineSet
1022 1484 m 257
 1371 1484 l 257
 1371 544 l 258
 1371 192 1158 -11 749 -11 c 256
 340 -11 127 192 127 544 c 258
 127 1484 l 257
 476 1484 l 257
 476 546 l 258
 476 402 541 305 749 305 c 256
 957 305 1022 402 1022 546 c 258
 1022 1484 l 257
EndSplineSet
Substitution2: "'c2sc' Capitals to Small Capitals in Latin lookup 0 subtable" uni1D1C
EndChar

StartChar: V
Encoding: 86 86 136
GlifName: V_
Width: 1438
VWidth: 0
GlyphClass: 2
Flags: HW
LayerCount: 2
Fore
SplineSet
719 404 m 257
 1072 1484 l 257
 1445 1484 l 257
 908 0 l 257
 530 0 l 257
 -7 1484 l 257
 366 1484 l 257
 719 404 l 257
EndSplineSet
Substitution2: "'c2sc' Capitals to Small Capitals in Latin lookup 0 subtable" uni1D20
EndChar

StartChar: W
Encoding: 87 87 137
GlifName: W_
Width: 1983
VWidth: 0
GlyphClass: 2
Flags: HW
LayerCount: 2
Fore
SplineSet
1598 1484 m 257
 1960 1484 l 257
 1558 0 l 257
 1224 0 l 257
 992 950 l 257
 756 0 l 257
 424 0 l 257
 24 1484 l 257
 386 1484 l 257
 610 520 l 257
 838 1484 l 257
 1144 1484 l 257
 1372 520 l 257
 1598 1484 l 257
EndSplineSet
Substitution2: "'c2sc' Capitals to Small Capitals in Latin lookup 0 subtable" uni1D21
EndChar

StartChar: X
Encoding: 88 88 142
GlifName: X_
Width: 1467
VWidth: 0
GlyphClass: 2
Flags: HW
LayerCount: 2
Fore
SplineSet
1464 0 m 257
 1055 0 l 257
 734 476 l 257
 414 0 l 257
 5 0 l 257
 544 740 l 257
 5 1484 l 257
 414 1484 l 257
 734 1006 l 257
 1055 1484 l 257
 1464 1484 l 257
 924 740 l 257
 1464 0 l 257
EndSplineSet
Substitution2: "'c2sc' Capitals to Small Capitals in Latin lookup 0 subtable" uniA7EF
EndChar

StartChar: Y
Encoding: 89 89 143
GlifName: Y_
Width: 1440
VWidth: 0
GlyphClass: 2
Flags: HW
LayerCount: 2
Fore
SplineSet
1045 1484 m 257
 1449 1484 l 257
 897 644 l 257
 897 0 l 257
 546 0 l 257
 546 644 l 257
 -9 1484 l 257
 398 1484 l 257
 722 928 l 257
 1045 1484 l 257
EndSplineSet
Substitution2: "'c2sc' Capitals to Small Capitals in Latin lookup 0 subtable" uni028F
EndChar

StartChar: Z
Encoding: 90 90 148
GlifName: Z_
Width: 1227
VWidth: 0
GlyphClass: 2
Flags: HW
LayerCount: 2
Fore
SplineSet
57 1184 m 257
 57 1484 l 257
 1170 1484 l 257
 1170 1244 l 257
 458 296 l 257
 1170 296 l 257
 1170 0 l 257
 57 0 l 257
 57 238 l 257
 771 1184 l 257
 57 1184 l 257
EndSplineSet
Substitution2: "'c2sc' Capitals to Small Capitals in Latin lookup 0 subtable" uni1D22
EndChar

StartChar: a
Encoding: 97 97 152
GlifName: a
Width: 1146
VWidth: 0
GlyphClass: 2
Flags: HW
LayerCount: 2
Fore
SplineSet
564 1128 m 256
 894 1128 1050 964 1050 738 c 258
 1050 301 l 258
 1050 239 1072 208 1138 208 c 257
 1138 -1 l 257
 898 -41 702 39 702 304 c 258
 702 738 l 258
 702 819 654 857 546 857 c 256
 438 857 390 821 390 738 c 257
 94 738 l 257
 78 976 238 1128 564 1128 c 256
EndSplineSet
Refer: 1670 57355 N 1 0 0 1 -12 0 2
Substitution2: "'smcp' Lowercase to Small Capitals in Latin lookup 0 subtable" uni1D00
EndChar

StartChar: acute
Encoding: 180 180 156
GlifName: acute
Width: 503
VWidth: 0
GlyphClass: 2
Flags: HW
LayerCount: 2
Fore
SplineSet
198 1482 m 257
 440 1482 l 257
 271 1134 l 257
 62 1134 l 257
 198 1482 l 257
EndSplineSet
EndChar

StartChar: ae
Encoding: 230 230 158
GlifName: ae
Width: 1821
VWidth: 0
GlyphClass: 2
Flags: HW
LayerCount: 2
Fore
SplineSet
701 308 m 257
 701 738 l 258
 701 819 654 857 546 857 c 256
 438 857 390 821 390 738 c 257
 94 738 l 257
 78 976 237 1128 563 1128 c 256
 893 1128 1050 964 1050 738 c 258
 1050 305 l 257
 701 308 l 257
72 293 m 256
 72 541 298 656 528 656 c 258
 1012 656 l 257
 1012 454 l 257
 552 454 l 258
 463 454 378 420 378 336 c 256
 378 288 410 245 494 245 c 256
 596 245 664 293 703 340 c 257
 804 336 l 257
 758 204 668 -20 380 -20 c 256
 176 -20 72 98 72 293 c 256
EndSplineSet
Refer: 225 101 N 1 0 0 1 637 0 2
Substitution2: "'c2sc' Capitals to Small Capitals in Latin lookup 0 subtable" uni1D01
Substitution2: "'smcp' Lowercase to Small Capitals in Latin lookup 0 subtable" uni1D01
EndChar

StartChar: ampersand
Encoding: 38 38 162
GlifName: ampersand
Width: 1503
VWidth: 0
GlyphClass: 2
Flags: HW
LayerCount: 2
Fore
SplineSet
185 1103 m 256
 185 1325 352 1484 600 1484 c 256
 848 1484 1018 1323 1018 1088 c 256
 1018 899 907 773 671 653 c 256
 507 569 418 490 418 406 c 256
 418 324 496 274 603 274 c 256
 828 274 1028 504 1028 750 c 257
 1318 750 l 257
 1318 303 1035 -10 610 -10 c 256
 302 -10 101 152 101 412 c 256
 101 606 216 735 492 885 c 256
 650 971 716 1025 716 1102 c 256
 716 1167 672 1210 602 1210 c 256
 532 1210 486 1166 486 1104 c 256
 486 1044 526 983 604 914 c 258
 1404 210 l 257
 1204 -11 l 257
 364 740 l 258
 247 844 185 967 185 1103 c 256
EndSplineSet
EndChar

StartChar: approxequal
Encoding: 8776 8776 164
GlifName: approxequal
Width: 1149
VWidth: 0
GlyphClass: 2
Flags: HW
LayerCount: 2
Fore
SplineSet
74 378 m 257
 172 518 282 592 396 592 c 256
 455 592 521 572 594 529 c 256
 660 491 722 468 762 468 c 256
 814 468 877 506 941 580 c 257
 1074 448 l 257
 970 306 864 238 745 238 c 256
 685 238 632 256 540 306 c 256
 460 348 412 367 376 367 c 256
 325 367 273 332 215 256 c 257
 74 378 l 257
74 864 m 257
 172 1004 282 1079 396 1079 c 256
 455 1079 521 1059 594 1016 c 256
 660 978 722 955 762 955 c 256
 814 955 877 992 941 1066 c 257
 1074 935 l 257
 970 793 864 726 745 726 c 256
 685 726 632 742 540 792 c 256
 460 834 412 854 376 854 c 256
 325 854 273 819 215 743 c 257
 74 864 l 257
EndSplineSet
EndChar

StartChar: arrowboth
Encoding: 8596 8596 167
GlifName: arrowboth
Width: 2058
VWidth: 0
GlyphClass: 2
Flags: HW
LayerCount: 2
Fore
SplineSet
648 1081 m 257
 767 962 l 257
 452 647 l 257
 521 664 l 257
 1537 664 l 257
 1606 647 l 257
 1291 962 l 257
 1410 1081 l 257
 1908 582 l 257
 1410 82 l 257
 1291 201 l 257
 1606 516 l 257
 1537 499 l 257
 521 499 l 257
 452 516 l 257
 767 201 l 257
 648 82 l 257
 150 582 l 257
 648 1081 l 257
EndSplineSet
EndChar

StartChar: arrowdown
Encoding: 8595 8595 168
GlifName: arrowdown
Width: 1299
VWidth: 0
GlyphClass: 2
Flags: HW
LayerCount: 2
Fore
SplineSet
732 1219 m 257
 732 314 l 257
 715 244 l 257
 1030 560 l 257
 1149 442 l 257
 650 -58 l 257
 150 442 l 257
 269 560 l 257
 584 244 l 257
 567 314 l 257
 567 1219 l 257
 732 1219 l 257
EndSplineSet
EndChar

StartChar: arrowleft
Encoding: 8592 8592 169
GlifName: arrowleft
Width: 1575
VWidth: 0
GlyphClass: 2
Flags: HW
LayerCount: 2
Fore
SplineSet
1425 499 m 257
 521 499 l 257
 452 516 l 257
 767 201 l 257
 648 82 l 257
 150 582 l 257
 648 1081 l 257
 767 962 l 257
 452 647 l 257
 521 664 l 257
 1425 664 l 257
 1425 499 l 257
EndSplineSet
EndChar

StartChar: arrowright
Encoding: 8594 8594 170
GlifName: arrowright
Width: 1575
VWidth: 0
GlyphClass: 2
Flags: HW
LayerCount: 2
Fore
SplineSet
150 664 m 257
 1054 664 l 257
 1123 647 l 257
 808 962 l 257
 926 1081 l 257
 1425 582 l 257
 926 82 l 257
 808 201 l 257
 1123 516 l 257
 1054 499 l 257
 150 499 l 257
 150 664 l 257
EndSplineSet
EndChar

StartChar: arrowup
Encoding: 8593 8593 171
GlifName: arrowup
Width: 1299
VWidth: 0
GlyphClass: 2
Flags: HW
LayerCount: 2
Fore
SplineSet
567 -70 m 257
 567 835 l 257
 584 904 l 257
 269 588 l 257
 150 707 l 257
 650 1206 l 257
 1149 707 l 257
 1030 588 l 257
 715 904 l 257
 732 835 l 257
 732 -70 l 257
 567 -70 l 257
EndSplineSet
EndChar

StartChar: arrowupdn
Encoding: 8597 8597 172
GlifName: arrowupdn
Width: 1299
VWidth: 0
GlyphClass: 2
Flags: HW
LayerCount: 2
Fore
SplineSet
650 1462 m 257
 1149 962 l 257
 1030 844 l 257
 715 1159 l 257
 732 1090 l 257
 732 74 l 257
 715 4 l 257
 1030 320 l 257
 1149 201 l 257
 650 -298 l 257
 150 201 l 257
 269 320 l 257
 584 4 l 257
 567 74 l 257
 567 1090 l 257
 584 1159 l 257
 269 844 l 257
 150 962 l 257
 650 1462 l 257
EndSplineSet
EndChar

StartChar: asciicircum
Encoding: 94 94 173
GlifName: asciicircum
Width: 751
VWidth: 0
GlyphClass: 2
Flags: HW
LayerCount: 2
Fore
SplineSet
689 1134 m 257
 480 1134 l 257
 376 1346 l 257
 271 1134 l 257
 62 1134 l 257
 200 1482 l 257
 552 1482 l 257
 689 1134 l 257
EndSplineSet
Substitution2: "'tnum' Tabular Numbers lookup 22 subtable" asciicircum.tnum
EndChar

StartChar: asciitilde
Encoding: 126 126 175
GlifName: asciitilde
Width: 967
VWidth: 0
GlyphClass: 2
Flags: HW
LayerCount: 2
Fore
SplineSet
71 1198 m 257
 133 1342 228 1419 326 1419 c 256
 398 1419 442 1394 510 1350 c 256
 556 1320 594 1298 636 1298 c 256
 679 1298 725 1319 771 1419 c 257
 896 1352 l 257
 835 1198 744 1134 642 1134 c 256
 572 1134 526 1155 432 1211 c 256
 389 1237 354 1256 326 1256 c 256
 289 1256 244 1241 196 1134 c 257
 71 1198 l 257
EndSplineSet
EndChar

StartChar: asterisk
Encoding: 42 42 176
GlifName: asterisk
Width: 1213
VWidth: 0
GlyphClass: 2
Flags: HW
LayerCount: 2
Fore
SplineSet
144 1058 m 257
 219 1288 l 257
 499 1186 l 257
 484 1484 l 257
 730 1484 l 257
 718 1184 l 257
 998 1288 l 257
 1072 1058 l 257
 786 978 l 257
 972 740 l 257
 774 598 l 257
 608 850 l 257
 442 598 l 257
 244 740 l 257
 431 978 l 257
 144 1058 l 257
EndSplineSet
Substitution2: "'tnum' Tabular Numbers lookup 22 subtable" asterisk.tnum
EndChar

StartChar: at
Encoding: 64 64 178
GlifName: at
Width: 1952
VWidth: 0
GlyphClass: 2
Flags: HW
LayerCount: 2
Fore
SplineSet
998 758 m 256
 828 758 744 637 744 439 c 256
 744 287 806 207 934 207 c 256
 1062 207 1122 320 1136 464 c 258
 1158 721 l 257
 1118 745 1074 758 998 758 c 256
998 968 m 256
 1178 968 1294 892 1392 816 c 257
 1348 336 l 258
 1346 316 1345 294 1345 288 c 256
 1345 234 1373 213 1426 213 c 256
 1556 213 1614 380 1614 584 c 256
 1614 920 1375 1156 1014 1156 c 256
 619 1156 354 871 354 440 c 256
 354 22 564 -172 956 -172 c 256
 1036 -172 1112 -156 1180 -133 c 257
 1256 -326 l 257
 1164 -359 1065 -380 956 -380 c 256
 440 -380 126 -84 126 438 c 256
 126 990 490 1360 1021 1360 c 256
 1511 1360 1826 1033 1826 572 c 256
 1826 279 1714 -10 1426 -10 c 256
 1326 -10 1250 38 1212 116 c 257
 1151 30 1039 -10 934 -10 c 256
 687 -10 520 172 520 439 c 256
 520 762 692 968 998 968 c 256
EndSplineSet
EndChar

StartChar: b
Encoding: 98 98 180
GlifName: b
Width: 1195
VWidth: 0
GlyphClass: 2
Flags: HW
LayerCount: 2
Fore
SplineSet
473 0 m 257
 124 0 l 257
 124 1540 l 257
 473 1540 l 257
 473 0 l 257
EndSplineSet
Refer: 1674 57359 N 1 0 0 1 64 0 2
Substitution2: "'smcp' Lowercase to Small Capitals in Latin lookup 0 subtable" uni0299
EndChar

StartChar: backslash
Encoding: 92 92 181
GlifName: backslash
Width: 1156
VWidth: 0
GlyphClass: 2
Flags: HW
LayerCount: 2
Fore
SplineSet
1102 0 m 257
 685 0 l 257
 53 1484 l 257
 472 1484 l 257
 1102 0 l 257
EndSplineSet
Substitution2: "'tnum' Tabular Numbers lookup 22 subtable" backslash.tnum
EndChar

StartChar: bar
Encoding: 124 124 183
GlifName: bar
Width: 717
VWidth: 0
GlyphClass: 2
Flags: HW
LayerCount: 2
Fore
SplineSet
184 1532 m 257
 533 1532 l 257
 533 -458 l 257
 184 -458 l 257
 184 1532 l 257
EndSplineSet
Substitution2: "'tnum' Tabular Numbers lookup 22 subtable" bar.tnum
EndChar

StartChar: braceleft
Encoding: 123 123 185
GlifName: braceleft
Width: 1002
VWidth: 0
GlyphClass: 2
Flags: HW
LayerCount: 2
Fore
SplineSet
430 726 m 257
 534 670 604 536 604 406 c 258
 604 218 l 258
 604 172 637 140 685 140 c 258
 875 140 l 257
 875 -134 l 257
 644 -134 l 258
 460 -134 325 2 325 174 c 258
 325 406 l 258
 325 502 260 580 182 590 c 258
 96 598 l 257
 96 853 l 257
 182 862 l 258
 260 872 325 950 325 1046 c 258
 325 1276 l 258
 325 1448 459 1584 644 1584 c 258
 875 1584 l 257
 875 1311 l 257
 685 1311 l 258
 637 1311 604 1278 604 1232 c 258
 604 1046 l 258
 604 915 534 782 430 726 c 257
EndSplineSet
Substitution2: "'tnum' Tabular Numbers lookup 22 subtable" braceleft.tnum
EndChar

StartChar: braceright
Encoding: 125 125 187
GlifName: braceright
Width: 1002
VWidth: 0
GlyphClass: 2
Flags: HW
LayerCount: 2
Fore
SplineSet
572 725 m 257
 468 781 398 915 398 1045 c 258
 398 1232 l 258
 398 1278 365 1311 317 1311 c 258
 127 1311 l 257
 127 1584 l 257
 358 1584 l 258
 542 1584 677 1448 677 1276 c 258
 677 1045 l 258
 677 949 742 871 820 861 c 258
 906 852 l 257
 906 598 l 257
 820 589 l 258
 742 579 677 501 677 405 c 258
 677 174 l 258
 677 2 543 -134 358 -134 c 258
 127 -134 l 257
 127 140 l 257
 317 140 l 258
 365 140 398 172 398 218 c 258
 398 405 l 258
 398 536 468 669 572 725 c 257
EndSplineSet
Substitution2: "'tnum' Tabular Numbers lookup 22 subtable" braceright.tnum
EndChar

StartChar: bracketleft
Encoding: 91 91 189
GlifName: bracketleft
Width: 714
VWidth: 0
GlyphClass: 2
Flags: HW
LayerCount: 2
Fore
SplineSet
646 140 m 257
 646 -134 l 257
 96 -134 l 257
 96 1584 l 257
 646 1584 l 257
 646 1311 l 257
 375 1311 l 257
 375 140 l 257
 646 140 l 257
EndSplineSet
Substitution2: "'tnum' Tabular Numbers lookup 22 subtable" bracketleft.tnum
EndChar

StartChar: bracketright
Encoding: 93 93 191
GlifName: bracketright
Width: 715
VWidth: 0
GlyphClass: 2
Flags: HW
LayerCount: 2
Fore
SplineSet
68 1311 m 257
 68 1584 l 257
 618 1584 l 257
 618 -134 l 257
 68 -134 l 257
 68 140 l 257
 340 140 l 257
 340 1311 l 257
 68 1311 l 257
EndSplineSet
Substitution2: "'tnum' Tabular Numbers lookup 22 subtable" bracketright.tnum
EndChar

StartChar: breve
Encoding: 728 728 193
GlifName: breve
Width: 764
VWidth: 0
GlyphClass: 2
Flags: HW
LayerCount: 2
Fore
SplineSet
693 1453 m 257
 693 1252 582 1134 382 1134 c 256
 182 1134 71 1252 71 1453 c 257
 234 1453 l 257
 234 1341 287 1292 382 1292 c 256
 477 1292 530 1341 530 1453 c 257
 693 1453 l 257
EndSplineSet
EndChar

StartChar: brokenbar
Encoding: 166 166 194
GlifName: brokenbar
Width: 472
VWidth: 0
GlyphClass: 2
Flags: HW
LayerCount: 2
Fore
SplineSet
411 880 m 257
 62 880 l 257
 62 1484 l 257
 411 1484 l 257
 411 880 l 257
411 0 m 257
 62 0 l 257
 62 622 l 257
 411 622 l 257
 411 0 l 257
EndSplineSet
EndChar

StartChar: bullet
Encoding: 8226 8226 195
GlifName: bullet
Width: 611
VWidth: 0
GlyphClass: 2
Flags: HW
LayerCount: 2
Fore
SplineSet
100 688 m 256
 100 802 192 894 306 894 c 256
 420 894 512 802 512 688 c 256
 512 574 420 482 306 482 c 256
 192 482 100 574 100 688 c 256
EndSplineSet
EndChar

StartChar: c
Encoding: 99 99 196
GlifName: c
Width: 1195
VWidth: 0
GlyphClass: 2
Flags: HW
LayerCount: 2
Fore
SplineSet
602 1126 m 256
 914 1126 1094 948 1102 683 c 257
 766 680 l 257
 760 802 686 850 600 850 c 256
 488 850 418 770 418 562 c 256
 418 350 488 268 600 268 c 256
 686 268 760 316 766 438 c 257
 1102 435 l 257
 1094 169 914 -10 602 -10 c 256
 242 -10 68 219 68 559 c 256
 68 899 242 1126 602 1126 c 256
EndSplineSet
Substitution2: "'smcp' Lowercase to Small Capitals in Latin lookup 0 subtable" uni1D04
EndChar

StartChar: caron
Encoding: 711 711 198
GlifName: caron
Width: 751
VWidth: 0
GlyphClass: 2
Flags: HW
LayerCount: 2
Fore
SplineSet
62 1482 m 257
 271 1482 l 257
 376 1270 l 257
 480 1482 l 257
 689 1482 l 257
 552 1134 l 257
 200 1134 l 257
 62 1482 l 257
EndSplineSet
EndChar

StartChar: cedilla
Encoding: 184 184 203
GlifName: cedilla
Width: 632
VWidth: 0
GlyphClass: 2
Flags: HW
LayerCount: 2
Fore
SplineSet
562 -267 m 256
 562 -405 452 -489 276 -489 c 256
 201 -489 133 -473 71 -442 c 257
 128 -308 l 257
 167 -326 226 -336 278 -336 c 256
 352 -336 394 -314 394 -274 c 256
 394 -228 339 -200 249 -200 c 256
 229 -200 209 -202 190 -204 c 257
 190 1 l 257
 312 1 l 257
 312 -72 l 257
 472 -72 562 -143 562 -267 c 256
EndSplineSet
EndChar

StartChar: circumflex
Encoding: 710 710 206
GlifName: circumflex
Width: 751
VWidth: 0
GlyphClass: 2
Flags: HW
LayerCount: 2
Fore
SplineSet
689 1134 m 257
 480 1134 l 257
 376 1346 l 257
 271 1134 l 257
 62 1134 l 257
 200 1482 l 257
 552 1482 l 257
 689 1134 l 257
EndSplineSet
EndChar

StartChar: comma
Encoding: 44 44 208
GlifName: comma
Width: 672
VWidth: 0
GlyphClass: 2
Flags: HW
LayerCount: 2
Fore
SplineSet
187 388 m 257
 499 388 l 257
 310 -192 l 257
 90 -83 l 257
 187 388 l 257
EndSplineSet
Substitution2: "'tnum' Tabular Numbers lookup 22 subtable" comma.tnum
EndChar

StartChar: copyright
Encoding: 169 169 210
GlifName: copyright
Width: 1762
VWidth: 0
GlyphClass: 2
Flags: HW
LayerCount: 2
Fore
SplineSet
362 732 m 256
 362 432 600 203 882 203 c 256
 1164 203 1402 432 1402 732 c 256
 1402 1031 1164 1258 882 1258 c 256
 600 1258 362 1031 362 732 c 256
118 732 m 256
 118 1140 445 1482 882 1482 c 256
 1319 1482 1647 1140 1647 732 c 256
 1647 324 1320 -22 882 -22 c 256
 444 -22 118 324 118 732 c 256
1148 946 m 257
 1056 867 l 257
 1006 927 948 951 886 951 c 256
 773 951 692 857 692 732 c 256
 692 607 773 513 886 513 c 256
 948 513 1006 536 1056 596 c 257
 1148 516 l 257
 1072 428 997 381 875 381 c 256
 669 381 544 554 544 732 c 256
 544 910 669 1084 875 1084 c 256
 997 1084 1072 1034 1148 946 c 257
EndSplineSet
EndChar

StartChar: currency
Encoding: 164 164 211
GlifName: currency
Width: 1415
VWidth: 0
GlyphClass: 2
Flags: HW
LayerCount: 2
Fore
SplineSet
894 96 m 257
 1084 268 l 257
 1336 0 l 257
 1147 -172 l 257
 894 96 l 257
332 268 m 257
 522 96 l 257
 269 -172 l 257
 80 0 l 257
 332 268 l 257
1084 803 m 257
 894 976 l 257
 1147 1243 l 257
 1336 1071 l 257
 1084 803 l 257
522 976 m 257
 332 803 l 257
 80 1071 l 257
 269 1243 l 257
 522 976 l 257
EndSplineSet
Refer: 324 111 N 1 0 0 1 114 0 2
EndChar

StartChar: d
Encoding: 100 100 212
GlifName: d
Width: 1185
VWidth: 0
GlyphClass: 2
Flags: HW
LayerCount: 2
Fore
SplineSet
1062 0 m 257
 714 0 l 257
 714 1532 l 257
 1062 1532 l 257
 1062 0 l 257
EndSplineSet
Refer: 1674 57359 N -1 0 0 -1 1124 1117 2
Substitution2: "'smcp' Lowercase to Small Capitals in Latin lookup 0 subtable" uni1D05
EndChar

StartChar: dagger
Encoding: 8224 8224 213
GlifName: dagger
Width: 1492
VWidth: 0
GlyphClass: 2
Flags: HW
LayerCount: 2
Fore
SplineSet
200 856 m 257
 200 1160 l 257
 1292 1160 l 257
 1292 856 l 257
 200 856 l 257
594 1484 m 257
 898 1484 l 257
 898 -463 l 257
 594 -463 l 257
 594 1484 l 257
EndSplineSet
EndChar

StartChar: daggerdbl
Encoding: 8225 8225 214
GlifName: daggerdbl
Width: 1492
VWidth: 0
GlyphClass: 2
Flags: HW
LayerCount: 2
Fore
SplineSet
200 -140 m 257
 200 164 l 257
 1292 164 l 257
 1292 -140 l 257
 200 -140 l 257
200 856 m 257
 200 1160 l 257
 1292 1160 l 257
 1292 856 l 257
 200 856 l 257
594 1484 m 257
 898 1484 l 257
 898 -463 l 257
 594 -463 l 257
 594 1484 l 257
EndSplineSet
EndChar

StartChar: degree
Encoding: 176 176 217
GlifName: degree
Width: 685
VWidth: 0
GlyphClass: 2
Flags: HW
LayerCount: 2
Fore
SplineSet
477 1406 m 256
 477 1482 418 1540 342 1540 c 256
 266 1540 210 1482 210 1406 c 256
 210 1330 266 1272 342 1272 c 256
 418 1272 477 1330 477 1406 c 256
614 1406 m 256
 614 1256 492 1134 342 1134 c 256
 192 1134 71 1256 71 1406 c 256
 71 1556 192 1676 342 1676 c 256
 492 1676 614 1556 614 1406 c 256
EndSplineSet
EndChar

StartChar: dieresis
Encoding: 168 168 218
GlifName: dieresis
Width: 827
VWidth: 0
GlyphClass: 2
Flags: HW
LayerCount: 2
Fore
SplineSet
71 1276 m 256
 71 1352 137 1412 214 1412 c 256
 291 1412 356 1352 356 1276 c 256
 356 1200 291 1134 214 1134 c 256
 137 1134 71 1200 71 1276 c 256
472 1276 m 256
 472 1352 537 1412 614 1412 c 256
 691 1412 756 1352 756 1276 c 256
 756 1200 691 1134 614 1134 c 256
 537 1134 472 1200 472 1276 c 256
EndSplineSet
EndChar

StartChar: dollar
Encoding: 36 36 221
GlifName: dollar
Width: 1279
VWidth: 0
GlyphClass: 2
Flags: HW
LayerCount: 2
Fore
SplineSet
712 148 m 257
 712 -190 l 257
 566 -190 l 257
 566 148 l 257
 712 148 l 257
566 1364 m 257
 566 1671 l 257
 712 1671 l 257
 712 1364 l 257
 566 1364 l 257
EndSplineSet
Refer: 108 83 N 1 0 0 1 0 0 2
EndChar

StartChar: dotaccent
Encoding: 729 729 223
GlifName: dotaccent
Width: 439
VWidth: 0
GlyphClass: 2
Flags: HW
LayerCount: 2
Fore
SplineSet
71 1282 m 256
 71 1362 140 1424 220 1424 c 256
 300 1424 368 1362 368 1282 c 256
 368 1202 300 1134 220 1134 c 256
 140 1134 71 1202 71 1282 c 256
EndSplineSet
EndChar

StartChar: dotlessi
Encoding: 305 305 224
GlifName: dotlessi
Width: 575
VWidth: 0
GlyphClass: 2
Flags: HW
LayerCount: 2
Fore
SplineSet
113 1117 m 257
 463 1117 l 257
 463 0 l 257
 113 0 l 257
 113 1117 l 257
EndSplineSet
EndChar

StartChar: e
Encoding: 101 101 225
GlifName: e
Width: 1183
VWidth: 0
GlyphClass: 2
Flags: HW
LayerCount: 2
Fore
SplineSet
418 454 m 257
 432 338 491 268 605 268 c 256
 675 268 734 302 756 357 c 257
 1090 306 l 257
 1021 105 856 -11 592 -11 c 256
 239 -11 64 220 64 558 c 256
 64 896 243 1126 588 1126 c 256
 1022 1126 1151 828 1124 454 c 257
 418 454 l 257
422 664 m 257
 770 664 l 257
 765 804 685 850 592 850 c 256
 508 850 426 796 422 664 c 257
EndSplineSet
Substitution2: "'smcp' Lowercase to Small Capitals in Latin lookup 0 subtable" uni1D07
EndChar

StartChar: eight.SC
Encoding: 1114152 -1 234
GlifName: eight.S_C_
Width: 1008
VWidth: 0
GlyphClass: 2
Flags: HW
LayerCount: 2
Fore
SplineSet
505 1124 m 256
 737 1124 874 977 874 820 c 256
 874 734 840 646 754 584 c 257
 862 510 907 408 907 308 c 256
 907 140 807 -8 505 -8 c 256
 203 -8 102 140 102 308 c 256
 102 408 146 510 254 584 c 257
 168 646 135 734 135 820 c 256
 135 977 272 1124 505 1124 c 256
504 870 m 256
 448 870 416 834 416 771 c 256
 416 707 448 670 504 670 c 256
 560 670 593 707 593 771 c 256
 593 834 560 870 504 870 c 256
502 478 m 256
 436 478 395 438 395 371 c 256
 395 304 436 262 504 262 c 256
 570 262 611 302 611 368 c 256
 611 435 570 478 502 478 c 256
EndSplineSet
EndChar

StartChar: eight.onum
Encoding: 1114153 -1 235
GlifName: eight.onum
Width: 1270
VWidth: 0
GlyphClass: 2
Flags: HW
LayerCount: 2
Fore
SplineSet
636 1494 m 256
 944 1494 1124 1277 1124 1090 c 256
 1124 974 1069 859 955 777 c 257
 1099 678 1169 541 1169 410 c 256
 1169 210 978 -11 636 -11 c 256
 294 -11 102 210 102 410 c 256
 102 541 171 679 315 777 c 257
 201 859 146 974 146 1090 c 256
 146 1277 328 1494 636 1494 c 256
636 1222 m 256
 544 1222 490 1142 490 1060 c 256
 490 955 545 895 636 895 c 256
 727 895 779 955 779 1060 c 256
 779 1143 728 1222 636 1222 c 256
632 636 m 256
 524 636 458 566 458 458 c 256
 458 352 526 278 636 278 c 256
 744 278 810 350 810 454 c 256
 810 562 742 636 632 636 c 256
EndSplineSet
EndChar

StartChar: emdash
Encoding: 8212 8212 239
GlifName: emdash
Width: 2048
VWidth: 0
GlyphClass: 2
Flags: HW
LayerCount: 2
Fore
SplineSet
1983 758 m 257
 1983 508 l 257
 65 508 l 257
 65 758 l 257
 1983 758 l 257
EndSplineSet
EndChar

StartChar: eng
Encoding: 331 331 241
GlifName: eng
Width: 1251
VWidth: 0
GlyphClass: 2
Flags: HW
LayerCount: 2
Fore
SplineSet
787 22 m 257
 1136 22 l 257
 1136 -172 l 258
 1136 -402 968 -487 776 -487 c 256
 682 -487 584 -466 504 -432 c 257
 554 -207 l 257
 594 -220 635 -226 670 -226 c 256
 744 -226 787 -195 787 -131 c 258
 787 22 l 257
EndSplineSet
Refer: 312 110 N 1 0 0 1 0 0 2
EndChar

StartChar: eth
Encoding: 240 240 245
GlifName: eth
Width: 1193
VWidth: 0
GlyphClass: 2
Flags: HW
LayerCount: 2
Fore
SplineSet
593 850 m 256
 475 850 414 762 414 558 c 256
 414 354 474 265 593 265 c 256
 712 265 780 354 780 558 c 256
 780 762 711 850 593 850 c 256
558 1125 m 256
 644 1125 729 1104 805 1056 c 257
 761 1150 649 1285 587 1334 c 257
 458 1229 l 257
 355 1350 l 257
 462 1439 l 257
 412 1469 332 1500 272 1512 c 257
 336 1734 l 257
 435 1717 560 1655 648 1591 c 257
 769 1688 l 257
 871 1562 l 257
 772 1482 l 257
 1032 1214 1130 942 1130 632 c 256
 1130 209 959 -11 598 -11 c 256
 237 -11 64 230 64 558 c 256
 64 938 294 1125 558 1125 c 256
EndSplineSet
EndChar

StartChar: exclam
Encoding: 33 33 246
GlifName: exclam
Width: 654
VWidth: 0
GlyphClass: 2
Flags: HW
LayerCount: 2
Fore
SplineSet
466 498 m 257
 188 498 l 257
 152 1484 l 257
 502 1484 l 257
 466 498 l 257
EndSplineSet
Refer: 357 46 N 1 0 0 1 19 0 2
Substitution2: "'tnum' Tabular Numbers lookup 22 subtable" exclam.tnum
EndChar

StartChar: f
Encoding: 102 102 249
GlifName: f
Width: 774
VWidth: 0
GlyphClass: 2
Flags: HW
LayerCount: 2
Fore
SplineSet
805 1487 m 257
 755 1261 l 257
 715 1274 674 1280 639 1280 c 256
 565 1280 522 1250 522 1186 c 258
 522 0 l 257
 173 0 l 257
 173 1226 l 258
 173 1456 342 1542 534 1542 c 256
 628 1542 725 1521 805 1487 c 257
EndSplineSet
Refer: 1669 57354 N 1 0 0 1 -54 328 2
Substitution2: "'smcp' Lowercase to Small Capitals in Latin lookup 0 subtable" uniA730
EndChar

StartChar: figuredash
Encoding: 8210 8210 250
GlifName: figuredash
Width: 1504
VWidth: 0
GlyphClass: 2
Flags: HW
LayerCount: 2
Fore
SplineSet
1434 758 m 257
 1434 508 l 257
 71 508 l 257
 71 758 l 257
 1434 758 l 257
EndSplineSet
EndChar

StartChar: filledbox
Encoding: 9632 9632 251
GlifName: filledbox
Width: 1094
VWidth: 0
GlyphClass: 2
Flags: HW
LayerCount: 2
Fore
SplineSet
160 778 m 257
 938 778 l 257
 938 0 l 257
 160 0 l 257
 160 778 l 257
EndSplineSet
EndChar

StartChar: five.SC
Encoding: 1114157 -1 253
GlifName: five.S_C_
Width: 990
VWidth: 0
GlyphClass: 2
Flags: HW
LayerCount: 2
Fore
SplineSet
102 362 m 257
 386 359 l 257
 386 299 420 266 483 266 c 256
 550 266 587 305 587 385 c 256
 587 467 550 510 472 510 c 256
 414 510 366 484 318 432 c 257
 108 536 l 257
 160 1117 l 257
 866 1117 l 257
 866 850 l 257
 402 850 l 257
 389 710 l 257
 440 734 488 746 548 746 c 256
 766 746 888 610 888 374 c 256
 888 124 749 -8 494 -8 c 256
 241 -8 102 122 102 362 c 257
EndSplineSet
EndChar

StartChar: five.onum
Encoding: 1114158 -1 254
GlifName: five.onum
Width: 1248
VWidth: 0
GlyphClass: 2
Flags: HW
LayerCount: 2
Fore
SplineSet
238 30 m 257
 308 -14 418 -49 522 -49 c 256
 692 -49 798 11 798 133 c 256
 798 267 684 315 548 315 c 256
 453 315 352 288 286 248 c 257
 150 356 l 257
 200 1117 l 257
 1088 1117 l 257
 1088 840 l 257
 476 840 l 257
 458 572 l 257
 492 578 532 582 568 582 c 256
 896 582 1101 420 1101 126 c 256
 1101 -191 867 -374 532 -374 c 256
 382 -374 248 -334 108 -246 c 257
 238 30 l 257
EndSplineSet
EndChar

StartChar: four.SC
Encoding: 1114160 -1 258
GlifName: four.S_C_
Width: 1119
VWidth: 0
GlyphClass: 2
Flags: HW
LayerCount: 2
Fore
SplineSet
522 460 m 257
 522 778 l 257
 301 460 l 257
 522 460 l 257
522 200 m 257
 74 200 l 257
 74 541 l 257
 502 1117 l 257
 864 1117 l 257
 864 460 l 257
 1043 460 l 257
 1043 200 l 257
 864 200 l 257
 864 0 l 257
 522 0 l 257
 522 200 l 257
EndSplineSet
EndChar

StartChar: four.onum
Encoding: 1114161 -1 259
GlifName: four.onum
Width: 1298
VWidth: 0
GlyphClass: 2
Flags: HW
LayerCount: 2
Fore
SplineSet
668 268 m 257
 668 660 l 257
 362 268 l 257
 668 268 l 257
668 0 m 257
 76 0 l 257
 76 262 l 257
 701 1117 l 257
 1019 1117 l 257
 1019 268 l 257
 1223 268 l 257
 1223 0 l 257
 1019 0 l 257
 1019 -362 l 257
 668 -362 l 257
 668 0 l 257
EndSplineSet
EndChar

StartChar: g
Encoding: 103 103 261
GlifName: g
Width: 1195
VWidth: 0
GlyphClass: 2
Flags: HW
LayerCount: 2
Fore
SplineSet
580 -473 m 256
 252 -473 91 -312 107 -98 c 257
 403 -98 l 257
 403 -157 452 -202 562 -202 c 256
 673 -202 722 -155 722 -98 c 258
 722 1117 l 257
 1071 1117 l 257
 1071 -98 l 258
 1071 -300 913 -473 580 -473 c 256
EndSplineSet
Refer: 1674 57359 N -1 0 0 -1 1132 1116 2
Substitution2: "'smcp' Lowercase to Small Capitals in Latin lookup 0 subtable" uni0262
EndChar

StartChar: g.alt
Encoding: 1114163 -1 262
GlifName: g.alt
Width: 1149
VWidth: 0
GlyphClass: 2
Flags: HW
LayerCount: 2
Fore
SplineSet
864 1027 m 257
 918 1117 1031 1200 1175 1200 c 257
 1175 958 l 257
 1092 958 1048 935 992 883 c 257
 864 1027 l 257
588 1127 m 256
 925 1127 1072 940 1072 728 c 256
 1072 516 923 326 588 326 c 256
 253 326 106 516 106 728 c 256
 106 940 251 1127 588 1127 c 256
1150 -99 m 256
 1150 -370 918 -492 582 -492 c 256
 204 -492 52 -362 52 -184 c 256
 52 -76 113 28 231 78 c 257
 424 -34 l 257
 366 -69 340 -110 340 -160 c 256
 340 -240 429 -268 588 -268 c 256
 758 -268 812 -216 812 -156 c 256
 812 -99 757 -74 595 -74 c 256
 234 -74 114 33 114 227 c 256
 114 341 168 438 280 488 c 257
 422 362 l 257
 387 337 372 314 372 284 c 256
 372 219 435 192 726 192 c 256
 1058 192 1150 100 1150 -99 c 256
588 881 m 256
 494 881 455 824 455 728 c 256
 455 632 492 574 588 574 c 256
 684 574 724 632 724 728 c 256
 724 824 682 881 588 881 c 256
EndSplineSet
EndChar

StartChar: germandbls
Encoding: 223 223 267
GlifName: germandbls
Width: 1197
VWidth: 0
GlyphClass: 2
Flags: HW
LayerCount: 2
Fore
SplineSet
535 0 m 257
 565 291 l 257
 601 286 649 282 684 282 c 256
 772 282 792 306 792 336 c 256
 792 368 759 407 715 436 c 256
 641 486 539 560 539 702 c 256
 539 806 585 874 627 930 c 256
 662 976 681 1035 681 1085 c 256
 681 1145 642 1193 562 1193 c 256
 474 1193 442 1132 442 1042 c 258
 442 0 l 257
 124 0 l 257
 124 1042 l 258
 124 1250 266 1468 562 1468 c 256
 848 1468 1000 1254 1000 1048 c 256
 1000 903 957 822 891 756 c 256
 869 733 858 719 858 702 c 256
 858 677 882 660 924 635 c 256
 1000 587 1120 478 1120 306 c 256
 1120 60 965 -11 722 -11 c 256
 664 -11 601 -6 535 0 c 257
EndSplineSet
EndChar

StartChar: grave
Encoding: 96 96 268
GlifName: grave
Width: 503
VWidth: 0
GlyphClass: 2
Flags: HW
LayerCount: 2
Fore
SplineSet
440 1134 m 257
 232 1134 l 257
 62 1482 l 257
 304 1482 l 257
 440 1134 l 257
EndSplineSet
EndChar

StartChar: greater
Encoding: 62 62 269
GlifName: greater
Width: 774
VWidth: 0
GlyphClass: 2
Flags: HW
LayerCount: 2
Fore
SplineSet
184 229 m 257
 48 368 l 257
 454 738 l 257
 48 1106 l 257
 184 1247 l 257
 728 738 l 257
 184 229 l 257
EndSplineSet
EndChar

StartChar: guillemotleft.alt
Encoding: 1114164 -1 271
GlifName: guillemotleft.alt
Width: 943
VWidth: 0
GlyphClass: 2
Flags: HW
LayerCount: 2
Fore
SplineSet
452 744 m 256
 452 940 576 1107 754 1245 c 257
 896 1076 l 257
 777 980 682 876 682 744 c 256
 682 612 777 508 896 412 c 257
 754 243 l 257
 576 381 452 548 452 744 c 256
48 744 m 256
 48 952 125 1130 289 1318 c 257
 474 1170 l 257
 368 1040 296 902 296 744 c 256
 296 586 368 449 474 319 c 257
 289 171 l 257
 125 359 48 536 48 744 c 256
EndSplineSet
EndChar

StartChar: guillemotright.alt
Encoding: 1114165 -1 273
GlifName: guillemotright.alt
Width: 943
VWidth: 0
GlyphClass: 2
Flags: HW
LayerCount: 2
Fore
SplineSet
492 744 m 256
 492 548 368 381 190 243 c 257
 48 412 l 257
 167 508 262 612 262 744 c 256
 262 876 167 980 48 1076 c 257
 190 1245 l 257
 368 1107 492 940 492 744 c 256
896 744 m 256
 896 536 820 359 656 171 c 257
 471 319 l 257
 577 449 648 586 648 744 c 256
 648 902 577 1040 471 1170 c 257
 656 1318 l 257
 820 1130 896 952 896 744 c 256
EndSplineSet
EndChar

StartChar: h
Encoding: 104 104 274
GlifName: h
Width: 1251
VWidth: 0
GlyphClass: 2
Flags: HW
LayerCount: 2
Fore
SplineSet
460 0 m 257
 110 0 l 257
 110 1540 l 257
 460 1540 l 257
 460 0 l 257
EndSplineSet
Refer: 1672 57357 N 1 0 0 1 66 0 2
Substitution2: "'smcp' Lowercase to Small Capitals in Latin lookup 0 subtable" uni029C
EndChar

StartChar: hyphen
Encoding: 45 45 279
GlifName: hyphen
Width: 1065
VWidth: 0
GlyphClass: 2
Flags: HW
LayerCount: 2
Fore
SplineSet
994 758 m 257
 994 508 l 257
 71 508 l 257
 71 758 l 257
 994 758 l 257
EndSplineSet
Substitution2: "'tnum' Tabular Numbers lookup 22 subtable" hyphen.tnum
EndChar

StartChar: k
Encoding: 107 107 293
GlifName: k
Width: 1277
VWidth: 0
GlyphClass: 2
Flags: HW
LayerCount: 2
Fore
SplineSet
790 1117 m 257
 1226 1117 l 257
 819 606 l 257
 1267 0 l 257
 830 0 l 257
 515 486 l 257
 472 486 l 257
 472 0 l 257
 124 0 l 257
 124 1540 l 257
 472 1540 l 257
 472 688 l 257
 515 688 l 257
 790 1117 l 257
EndSplineSet
Substitution2: "'smcp' Lowercase to Small Capitals in Latin lookup 0 subtable" uni1D0B
EndChar

StartChar: k.alt
Encoding: 1114167 -1 294
GlifName: k.alt
Width: 1277
VWidth: 0
GlyphClass: 2
Flags: HW
LayerCount: 2
Fore
SplineSet
790 1117 m 257
 1226 1117 l 257
 818 616 l 257
 1267 0 l 257
 830 0 l 257
 620 395 l 257
 472 245 l 257
 472 0 l 257
 124 0 l 257
 124 1540 l 257
 472 1540 l 257
 472 678 l 257
 790 1117 l 257
EndSplineSet
Substitution2: "'smcp' Lowercase to Small Capitals in Latin lookup 0 subtable" uni1D0B
EndChar

StartChar: kgreenlandic
Encoding: 312 312 295
GlifName: kgreenlandic
Width: 1183
VWidth: 0
GlyphClass: 2
Flags: HW
LayerCount: 2
Fore
SplineSet
110 1117 m 257
 458 1117 l 257
 458 750 l 257
 756 1117 l 257
 1158 1117 l 257
 717 554 l 257
 1161 0 l 257
 756 0 l 257
 516 311 l 257
 458 243 l 257
 458 0 l 257
 110 0 l 257
 110 1117 l 257
EndSplineSet
EndChar

StartChar: l
Encoding: 108 108 296
GlifName: l
Width: 621
VWidth: 0
GlyphClass: 2
Flags: HW
LayerCount: 2
Fore
SplineSet
486 0 m 257
 136 0 l 257
 136 1540 l 257
 486 1540 l 257
 486 0 l 257
EndSplineSet
Substitution2: "'smcp' Lowercase to Small Capitals in Latin lookup 0 subtable" uni029F
EndChar

StartChar: less
Encoding: 60 60 300
GlifName: less
Width: 774
VWidth: 0
GlyphClass: 2
Flags: HW
LayerCount: 2
Fore
SplineSet
590 1246 m 257
 728 1106 l 257
 321 738 l 257
 728 368 l 257
 590 228 l 257
 48 738 l 257
 590 1246 l 257
EndSplineSet
EndChar

StartChar: logicalnot
Encoding: 172 172 301
GlifName: logicalnot
Width: 1099
VWidth: 0
GlyphClass: 2
Flags: HW
LayerCount: 2
Fore
SplineSet
72 508 m 257
 72 758 l 257
 944 758 l 257
 944 256 l 257
 694 256 l 257
 694 508 l 257
 72 508 l 257
EndSplineSet
EndChar

StartChar: longs
Encoding: 383 383 302
GlifName: longs
Width: 774
VWidth: 0
GlyphClass: 2
Flags: HW
LayerCount: 2
Fore
SplineSet
805 1487 m 257
 755 1261 l 257
 715 1274 674 1280 639 1280 c 256
 565 1280 522 1250 522 1186 c 258
 522 0 l 257
 173 0 l 257
 173 1226 l 258
 173 1456 342 1542 534 1542 c 256
 628 1542 725 1521 805 1487 c 257
EndSplineSet
Refer: 1681 57366 N 1 0 0 1 -48 0 2
EndChar

StartChar: m
Encoding: 109 109 304
GlifName: m
Width: 1930
VWidth: 0
GlyphClass: 2
Flags: HW
LayerCount: 2
Fore
SplineSet
126 1117 m 257
 456 1117 l 257
 474 860 l 257
 474 0 l 257
 126 0 l 257
 126 1117 l 257
EndSplineSet
Refer: 1671 57356 N 1 0 0 1 -516 0 2
Refer: 1671 57356 N 1 0 0 1 152 0 2
Substitution2: "'smcp' Lowercase to Small Capitals in Latin lookup 0 subtable" uni1D0D
EndChar

StartChar: macron
Encoding: 175 175 305
GlifName: macron
Width: 937
VWidth: 0
GlyphClass: 2
Flags: HW
LayerCount: 2
Fore
SplineSet
866 1340 m 257
 866 1134 l 257
 71 1134 l 257
 71 1340 l 257
 866 1340 l 257
EndSplineSet
EndChar

StartChar: macron.alt
Encoding: 1114168 -1 306
GlifName: macron.alt
Width: 738
VWidth: 0
GlyphClass: 2
Flags: HW
LayerCount: 2
Fore
SplineSet
667 1340 m 257
 667 1134 l 257
 71 1134 l 257
 71 1340 l 257
 667 1340 l 257
EndSplineSet
EndChar

StartChar: minute
Encoding: 8242 8242 308
GlifName: minute
Width: 473
VWidth: 0
GlyphClass: 2
Flags: HW
LayerCount: 2
Fore
SplineSet
202 1484 m 257
 388 1484 l 257
 234 978 l 257
 86 978 l 257
 202 1484 l 257
EndSplineSet
EndChar

StartChar: mu
Encoding: 181 181 309
GlifName: mu
Width: 1250
VWidth: 0
GlyphClass: 2
Flags: HW
LayerCount: 2
Fore
SplineSet
116 1117 m 257
 465 1117 l 257
 465 -427 l 257
 116 -427 l 257
 116 1117 l 257
EndSplineSet
Refer: 422 117 N 1 0 0 1 0 0 2
EndChar

StartChar: multiply
Encoding: 215 215 310
GlifName: multiply
Width: 1096
VWidth: 0
GlyphClass: 2
Flags: HW
LayerCount: 2
Fore
SplineSet
794 1052 m 257
 970 876 l 257
 724 632 l 257
 970 386 l 257
 795 210 l 257
 548 455 l 257
 304 209 l 257
 128 386 l 257
 372 632 l 257
 128 874 l 257
 304 1052 l 257
 548 807 l 257
 794 1052 l 257
EndSplineSet
Substitution2: "'tnum' Tabular Numbers lookup 22 subtable" multiply.tnum
EndChar

StartChar: n
Encoding: 110 110 312
GlifName: n
Width: 1251
VWidth: 0
GlyphClass: 2
Flags: HW
LayerCount: 2
Fore
SplineSet
460 0 m 257
 110 0 l 257
 110 1117 l 257
 442 1117 l 257
 460 860 l 257
 460 0 l 257
EndSplineSet
Refer: 1672 57357 N 1 0 0 1 66 0 2
Substitution2: "'smcp' Lowercase to Small Capitals in Latin lookup 0 subtable" uni0274
EndChar

StartChar: nine.SC
Encoding: 1114170 -1 317
GlifName: nine.S_C_
Width: 1021
VWidth: 0
GlyphClass: 2
Flags: HW
LayerCount: 2
Fore
SplineSet
503 624 m 256
 543 624 598 642 624 670 c 257
 624 801 578 854 508 854 c 257
 442 854 394 810 394 736 c 256
 394 666 439 624 503 624 c 256
491 -9 m 256
 268 -9 130 130 130 342 c 257
 386 344 l 257
 386 304 425 262 491 262 c 256
 586 262 628 350 628 466 c 257
 576 423 500 408 426 408 c 256
 238 408 104 524 104 764 c 256
 104 1006 269 1124 495 1124 c 256
 783 1124 918 942 918 592 c 256
 918 206 771 -9 491 -9 c 256
EndSplineSet
EndChar

StartChar: nine.onum
Encoding: 1114171 -1 318
GlifName: nine.onum
Width: 1234
VWidth: 0
GlyphClass: 2
Flags: HW
LayerCount: 2
Fore
SplineSet
621 826 m 256
 524 826 444 753 444 630 c 256
 444 518 515 448 611 448 c 256
 763 448 883 588 933 708 c 257
 973 457 l 257
 886 309 762 176 552 176 c 256
 292 176 104 356 104 629 c 256
 104 931 310 1127 626 1127 c 256
 960 1127 1146 909 1146 520 c 256
 1146 72 899 -236 448 -372 c 257
 330 -103 l 257
 680 9 816 168 816 554 c 256
 816 718 767 826 621 826 c 256
EndSplineSet
EndChar

StartChar: numbersign
Encoding: 35 35 322
GlifName: numbersign
Width: 1901
VWidth: 0
GlyphClass: 2
Flags: HW
LayerCount: 2
Fore
SplineSet
1130 886 m 257
 848 886 l 257
 770 600 l 257
 1052 600 l 257
 1130 886 l 257
604 -2 m 257
 304 -2 l 257
 406 364 l 257
 162 364 l 257
 162 600 l 257
 470 600 l 257
 550 886 l 257
 257 886 l 257
 257 1120 l 257
 614 1120 l 257
 710 1465 l 257
 1008 1465 l 257
 914 1120 l 257
 1196 1120 l 257
 1293 1465 l 257
 1590 1465 l 257
 1494 1120 l 257
 1740 1120 l 257
 1740 886 l 257
 1430 886 l 257
 1352 600 l 257
 1646 600 l 257
 1646 364 l 257
 1287 364 l 257
 1186 -2 l 257
 886 -2 l 257
 988 364 l 257
 704 364 l 257
 604 -2 l 257
EndSplineSet
Substitution2: "'tnum' Tabular Numbers lookup 22 subtable" numbersign.tnum
EndChar

StartChar: o
Encoding: 111 111 324
GlifName: o
Width: 1193
VWidth: 0
GlyphClass: 2
Flags: HW
LayerCount: 2
Fore
SplineSet
598 850 m 256
 486 850 414 769 414 558 c 256
 414 347 484 265 598 265 c 256
 712 265 780 347 780 558 c 256
 780 769 710 850 598 850 c 256
598 1126 m 256
 958 1126 1130 898 1130 558 c 256
 1130 218 956 -11 598 -11 c 256
 240 -11 64 218 64 558 c 256
 64 898 238 1126 598 1126 c 256
EndSplineSet
Substitution2: "'smcp' Lowercase to Small Capitals in Latin lookup 0 subtable" uni1D0F
EndChar

StartChar: ogonek
Encoding: 731 731 330
GlifName: ogonek
Width: 671
VWidth: 0
GlyphClass: 2
Flags: HW
LayerCount: 2
Fore
SplineSet
334 -530 m 256
 173 -530 71 -436 71 -288 c 256
 71 -231 87 -176 116 -126 c 258
 188 0 l 257
 188 1 l 257
 378 1 l 257
 378 0 l 257
 260 -208 l 257
 246 -232 238 -262 238 -288 c 256
 238 -341 270 -368 332 -368 c 256
 398 -368 434 -337 434 -280 c 257
 600 -280 l 257
 600 -433 498 -530 334 -530 c 256
EndSplineSet
EndChar

StartChar: one.SC
Encoding: 1114174 -1 336
GlifName: one.S_C_
Width: 799
VWidth: 0
GlyphClass: 2
Flags: HW
LayerCount: 2
Fore
SplineSet
382 664 m 257
 338 616 210 572 24 572 c 257
 24 843 l 257
 292 843 382 897 382 1117 c 257
 694 1117 l 257
 694 0 l 257
 382 0 l 257
 382 664 l 257
EndSplineSet
EndChar

StartChar: one.onum
Encoding: 1114175 -1 337
GlifName: one.onum
Width: 914
VWidth: 0
GlyphClass: 2
Flags: HW
LayerCount: 2
Fore
SplineSet
414 676 m 257
 368 624 236 581 50 581 c 257
 50 852 l 257
 318 852 414 897 414 1117 c 257
 760 1117 l 257
 760 0 l 257
 414 0 l 257
 414 676 l 257
EndSplineSet
EndChar

StartChar: ordfeminine
Encoding: 170 170 343
GlifName: ordfeminine
Width: 802
VWidth: 0
GlyphClass: 2
Flags: HW
LayerCount: 2
Fore
SplineSet
479 1537 m 257
 479 1592 l 258
 479 1642 449 1664 382 1664 c 256
 315 1664 287 1644 287 1592 c 257
 103 1592 l 257
 93 1740 191 1833 393 1833 c 256
 597 1833 694 1733 694 1592 c 258
 694 1318 l 258
 694 1280 707 1262 748 1262 c 257
 748 1131 l 257
 634 1112 536 1137 498 1223 c 257
 454 1162 388 1124 287 1124 c 256
 167 1124 89 1195 89 1315 c 256
 89 1469 226 1548 370 1548 c 256
 408 1548 446 1543 479 1537 c 257
479 1409 m 257
 454 1415 428 1417 404 1417 c 256
 330 1417 278 1385 278 1336 c 256
 278 1299 305 1277 353 1277 c 256
 409 1277 454 1306 479 1332 c 257
 479 1409 l 257
EndSplineSet
EndChar

StartChar: p
Encoding: 112 112 349
GlifName: p
Width: 1187
VWidth: 0
GlyphClass: 2
Flags: HW
LayerCount: 2
Fore
SplineSet
124 1117 m 257
 473 1117 l 257
 473 -435 l 257
 124 -435 l 257
 124 1117 l 257
EndSplineSet
Refer: 1674 57359 N 1 0 0 1 64 0 2
Substitution2: "'smcp' Lowercase to Small Capitals in Latin lookup 0 subtable" uni1D18
EndChar

StartChar: paragraph
Encoding: 182 182 350
GlifName: paragraph
Width: 1463
VWidth: 0
GlyphClass: 2
Flags: HW
LayerCount: 2
Fore
SplineSet
1332 -463 m 257
 1083 -463 l 257
 1083 1184 l 257
 960 1184 l 257
 960 -463 l 257
 709 -463 l 257
 709 317 l 257
 624 317 l 258
 294 317 101 578 101 898 c 256
 101 1218 294 1484 624 1484 c 258
 1332 1484 l 257
 1332 -463 l 257
EndSplineSet
EndChar

StartChar: parenleft
Encoding: 40 40 351
GlifName: parenleft
Width: 691
VWidth: 0
GlyphClass: 2
Flags: HW
LayerCount: 2
Fore
SplineSet
418 1608 m 257
 640 1484 l 257
 494 1236 412 895 412 515 c 256
 412 135 494 -206 640 -454 c 257
 418 -578 l 257
 204 -220 92 114 92 515 c 256
 92 915 204 1250 418 1608 c 257
EndSplineSet
Substitution2: "'tnum' Tabular Numbers lookup 22 subtable" parenleft.tnum
EndChar

StartChar: parenright
Encoding: 41 41 353
GlifName: parenright
Width: 691
VWidth: 0
GlyphClass: 2
Flags: HW
LayerCount: 2
Fore
SplineSet
273 -578 m 257
 51 -456 l 257
 197 -208 278 134 278 514 c 256
 278 894 197 1236 51 1484 c 257
 273 1608 l 257
 487 1250 598 915 598 514 c 256
 598 114 487 -220 273 -578 c 257
EndSplineSet
Substitution2: "'tnum' Tabular Numbers lookup 22 subtable" parenright.tnum
EndChar

StartChar: period
Encoding: 46 46 357
GlifName: period
Width: 616
VWidth: 0
GlyphClass: 2
Flags: HW
LayerCount: 2
Fore
SplineSet
130 164 m 256
 130 260 212 336 308 336 c 256
 404 336 486 260 486 164 c 256
 486 68 404 -11 308 -11 c 256
 212 -11 130 68 130 164 c 256
EndSplineSet
Substitution2: "'tnum' Tabular Numbers lookup 22 subtable" period.tnum
EndChar

StartChar: periodcentered
Encoding: 183 183 359
GlifName: periodcentered
Width: 571
VWidth: 0
GlyphClass: 2
Flags: HW
LayerCount: 2
Fore
SplineSet
108 744 m 256
 108 840 190 915 286 915 c 256
 382 915 464 840 464 744 c 256
 464 648 382 568 286 568 c 256
 190 568 108 648 108 744 c 256
EndSplineSet
EndChar

StartChar: plus
Encoding: 43 43 361
GlifName: plus
Width: 1019
VWidth: 0
GlyphClass: 2
Flags: HW
LayerCount: 2
Fore
SplineSet
950 711 m 257
 950 460 l 257
 648 460 l 257
 648 146 l 257
 372 146 l 257
 372 460 l 257
 71 460 l 257
 71 711 l 257
 372 711 l 257
 372 1025 l 257
 648 1025 l 257
 648 711 l 257
 950 711 l 257
EndSplineSet
Substitution2: "'tnum' Tabular Numbers lookup 22 subtable" plus.tnum
EndChar

StartChar: q
Encoding: 113 113 365
GlifName: q
Width: 1185
VWidth: 0
GlyphClass: 2
Flags: HW
LayerCount: 2
Fore
SplineSet
714 1117 m 257
 1062 1117 l 257
 1062 -443 l 257
 714 -443 l 257
 714 1117 l 257
EndSplineSet
Refer: 1674 57359 N -1 0 0 -1 1124 1117 2
Substitution2: "'smcp' Lowercase to Small Capitals in Latin lookup 0 subtable" uniA7EE
EndChar

StartChar: question
Encoding: 63 63 366
GlifName: question
Width: 1152
VWidth: 0
GlyphClass: 2
Flags: HW
LayerCount: 2
Fore
SplineSet
552 -11 m 256
 456 -11 374 68 374 164 c 256
 374 260 456 336 552 336 c 256
 648 336 729 260 729 164 c 256
 729 68 648 -11 552 -11 c 256
426 924 m 257
 142 923 l 257
 128 977 120 1044 120 1092 c 256
 120 1340 293 1496 572 1496 c 256
 866 1496 1032 1288 1032 1093 c 256
 1032 895 944 814 858 738 c 256
 784 674 716 613 716 489 c 257
 396 489 l 257
 396 655 471 726 578 818 c 256
 671 897 714 958 714 1058 c 256
 714 1152 662 1222 560 1222 c 256
 454 1222 416 1141 416 1043 c 256
 416 1005 420 960 426 924 c 257
EndSplineSet
Substitution2: "'tnum' Tabular Numbers lookup 22 subtable" question.tnum
EndChar

StartChar: quoteleft
Encoding: 8216 8216 373
GlifName: quoteleft
Width: 646
VWidth: 0
GlyphClass: 2
Flags: HW
LayerCount: 2
Fore
SplineSet
431 1589 m 257
 528 1118 l 257
 308 1008 l 257
 119 1589 l 257
 431 1589 l 257
EndSplineSet
EndChar

StartChar: quoteright
Encoding: 8217 8217 375
GlifName: quoteright
Width: 646
VWidth: 0
GlyphClass: 2
Flags: HW
LayerCount: 2
Fore
SplineSet
216 1589 m 257
 528 1589 l 257
 339 1008 l 257
 119 1118 l 257
 216 1589 l 257
EndSplineSet
EndChar

StartChar: quotesingle
Encoding: 39 39 377
GlifName: quotesingle
Width: 400
VWidth: 0
GlyphClass: 2
Flags: HW
LayerCount: 2
Fore
SplineSet
100 1505 m 257
 300 1505 l 257
 280 987 l 257
 120 987 l 257
 100 1505 l 257
EndSplineSet
EndChar

StartChar: r
Encoding: 114 114 378
GlifName: r
Width: 916
VWidth: 0
GlyphClass: 2
Flags: HW
LayerCount: 2
Fore
SplineSet
124 1117 m 257
 456 1117 l 257
 473 842 l 257
 473 0 l 257
 124 0 l 257
 124 1117 l 257
EndSplineSet
Refer: 1673 57358 N 1 0 0 1 0 0 2
Substitution2: "'smcp' Lowercase to Small Capitals in Latin lookup 0 subtable" uni0280
EndChar

StartChar: registered
Encoding: 174 174 381
GlifName: registered
Width: 1762
VWidth: 0
GlyphClass: 2
Flags: HW
LayerCount: 2
Fore
SplineSet
362 732 m 256
 362 432 600 203 882 203 c 256
 1164 203 1402 432 1402 732 c 256
 1402 1031 1164 1258 882 1258 c 256
 600 1258 362 1031 362 732 c 256
118 732 m 256
 118 1140 445 1482 882 1482 c 256
 1319 1482 1647 1140 1647 732 c 256
 1647 324 1320 -22 882 -22 c 256
 444 -22 118 324 118 732 c 256
1187 410 m 257
 1004 410 l 257
 868 578 l 257
 862 578 854 578 846 578 c 258
 780 578 l 257
 780 408 l 257
 646 408 l 257
 646 1078 l 257
 896 1078 l 258
 1052 1078 1181 974 1181 828 c 256
 1181 726 1117 645 1028 605 c 257
 1187 410 l 257
780 708 m 257
 896 708 l 258
 972 708 1032 755 1032 828 c 256
 1032 902 972 948 896 948 c 258
 780 948 l 257
 780 708 l 257
EndSplineSet
EndChar

StartChar: ring
Encoding: 730 730 382
GlifName: ring
Width: 693
VWidth: 0
GlyphClass: 2
Flags: HW
LayerCount: 2
Fore
SplineSet
346 1548 m 256
 266 1548 210 1488 210 1410 c 256
 210 1332 266 1272 346 1272 c 256
 426 1272 485 1332 485 1410 c 256
 485 1488 426 1548 346 1548 c 256
346 1684 m 256
 500 1684 622 1562 622 1410 c 256
 622 1258 500 1134 346 1134 c 256
 192 1134 71 1258 71 1410 c 256
 71 1562 192 1684 346 1684 c 256
EndSplineSet
EndChar

StartChar: s
Encoding: 115 115 383
GlifName: s
Width: 1071
VWidth: 0
GlyphClass: 2
Flags: HW
LayerCount: 2
Fore
SplineSet
540 1128 m 256
 842 1128 1009 978 990 726 c 257
 714 735 l 257
 714 811 650 856 542 856 c 256
 450 856 390 824 390 772 c 256
 390 726 439 702 575 672 c 256
 871 608 1002 500 1002 330 c 256
 1002 126 812 -10 526 -10 c 256
 220 -10 40 147 62 393 c 257
 337 382 l 257
 337 302 406 260 538 260 c 256
 638 260 688 286 688 334 c 256
 688 384 627 412 481 444 c 256
 199 506 80 610 80 784 c 256
 80 995 257 1128 540 1128 c 256
EndSplineSet
Substitution2: "'smcp' Lowercase to Small Capitals in Latin lookup 0 subtable" uniA731
EndChar

StartChar: section
Encoding: 167 167 389
GlifName: section
Width: 1027
VWidth: 0
GlyphClass: 2
Flags: HW
LayerCount: 2
Fore
SplineSet
942 313 m 256
 942 77 726 -34 498 -34 c 256
 292 -34 138 22 60 72 c 257
 180 338 l 257
 242 298 376 248 500 248 c 256
 584 248 644 264 644 310 c 256
 644 349 613 372 492 398 c 256
 284 442 122 506 122 716 c 256
 122 810 157 887 211 942 c 257
 151 989 116 1051 116 1149 c 256
 116 1381 312 1508 538 1508 c 256
 682 1508 805 1464 891 1411 c 257
 792 1185 l 257
 724 1217 630 1242 552 1242 c 256
 478 1242 417 1221 417 1164 c 256
 417 1117 460 1103 556 1081 c 256
 782 1029 935 966 935 746 c 256
 935 654 902 584 846 532 c 257
 906 484 942 416 942 313 c 256
534 652 m 257
 606 653 642 694 642 736 c 256
 642 776 610 811 538 816 c 257
 472 816 426 773 426 727 c 256
 426 688 462 657 534 652 c 257
EndSplineSet
EndChar

StartChar: seven.SC
Encoding: 1114185 -1 392
GlifName: seven.S_C_
Width: 1046
VWidth: 0
GlyphClass: 2
Flags: HW
LayerCount: 2
Fore
SplineSet
103 828 m 257
 103 1117 l 257
 900 1117 l 257
 946 890 l 257
 704 636 577 346 577 0 c 257
 264 0 l 257
 264 322 363 638 524 828 c 257
 103 828 l 257
EndSplineSet
EndChar

StartChar: seven.onum
Encoding: 1114186 -1 393
GlifName: seven.onum
Width: 1138
VWidth: 0
GlyphClass: 2
Flags: HW
LayerCount: 2
Fore
SplineSet
1074 818 m 257
 753 480 583 98 583 -362 c 257
 252 -362 l 257
 252 66 408 497 672 810 c 257
 60 810 l 257
 60 1117 l 257
 1013 1117 l 257
 1074 818 l 257
EndSplineSet
EndChar

StartChar: six.SC
Encoding: 1114188 -1 397
GlifName: six.S_C_
Width: 1021
VWidth: 0
GlyphClass: 2
Flags: HW
LayerCount: 2
Fore
SplineSet
518 492 m 256
 478 492 424 474 398 446 c 257
 398 315 443 261 513 261 c 257
 579 261 628 306 628 380 c 256
 628 450 582 492 518 492 c 256
530 1124 m 256
 753 1124 891 986 891 774 c 257
 636 772 l 257
 636 812 596 854 530 854 c 256
 435 854 394 765 394 649 c 257
 446 692 522 707 596 707 c 256
 784 707 918 592 918 352 c 256
 918 110 752 -9 526 -9 c 256
 238 -9 104 172 104 522 c 256
 104 908 250 1124 530 1124 c 256
EndSplineSet
EndChar

StartChar: six.onum
Encoding: 1114189 -1 398
GlifName: six.onum
Width: 1234
VWidth: 0
GlyphClass: 2
Flags: HW
LayerCount: 2
Fore
SplineSet
630 286 m 256
 727 286 806 359 806 482 c 256
 806 594 735 664 639 664 c 256
 487 664 368 524 318 404 c 257
 277 656 l 257
 364 804 488 936 698 936 c 256
 958 936 1146 757 1146 484 c 256
 1146 182 940 -14 624 -14 c 256
 290 -14 104 203 104 592 c 256
 104 1040 352 1360 803 1496 c 257
 920 1226 l 257
 570 1114 434 944 434 558 c 256
 434 394 484 286 630 286 c 256
EndSplineSet
EndChar

StartChar: slash
Encoding: 47 47 400
GlifName: slash
Width: 1159
VWidth: 0
GlyphClass: 2
Flags: HW
LayerCount: 2
Fore
SplineSet
688 1484 m 257
 1106 1484 l 257
 470 0 l 257
 53 0 l 257
 688 1484 l 257
EndSplineSet
Substitution2: "'tnum' Tabular Numbers lookup 22 subtable" slash.tnum
Substitution2: "'smcp' Lowercase to Small Capitals in Latin lookup 0 subtable" slash.sc
EndChar

StartChar: slash.fraction
Encoding: 1114191 -1 401
GlifName: slash.fraction
Width: 2012
VWidth: 0
GlyphClass: 2
Flags: HW
LayerCount: 2
Fore
SplineSet
732 0 m 257
 375 0 l 257
 1280 1484 l 257
 1638 1484 l 257
 732 0 l 257
EndSplineSet
EndChar

StartChar: slash.sc
Encoding: 1114192 -1 402
GlifName: slash.sc
Width: 1037
VWidth: 0
GlyphClass: 2
Flags: HW
LayerCount: 2
Fore
SplineSet
564 1117 m 257
 984 1117 l 257
 474 0 l 257
 53 0 l 257
 564 1117 l 257
EndSplineSet
EndChar

StartChar: sterling
Encoding: 163 163 405
GlifName: sterling
Width: 1315
VWidth: 0
GlyphClass: 2
Flags: HW
LayerCount: 2
Fore
SplineSet
700 1194 m 256
 628 1194 596 1153 596 1063 c 258
 596 368 l 258
 596 342 590 317 571 296 c 257
 1212 296 l 257
 1212 0 l 257
 106 0 l 257
 106 296 l 257
 195 296 246 306 246 368 c 258
 246 1064 l 258
 246 1287 378 1494 700 1494 c 256
 1008 1494 1163 1326 1150 1068 c 257
 806 1068 l 257
 806 1151 776 1194 700 1194 c 256
EndSplineSet
Refer: 1669 57354 N 1 0 0 1 36 18 2
EndChar

StartChar: t
Encoding: 116 116 406
GlifName: t
Width: 786
VWidth: 0
GlyphClass: 2
Flags: HW
LayerCount: 2
Fore
SplineSet
754 266 m 257
 803 40 l 257
 722 8 628 -11 538 -11 c 256
 346 -11 176 76 176 306 c 258
 176 1406 l 257
 525 1406 l 257
 525 346 l 258
 525 282 569 252 643 252 c 256
 675 252 714 255 754 266 c 257
EndSplineSet
Refer: 1669 57354 N 1 0 0 1 -42 328 2
Substitution2: "'smcp' Lowercase to Small Capitals in Latin lookup 0 subtable" uni1D1B
EndChar

StartChar: three.SC
Encoding: 1114194 -1 411
GlifName: three.S_C_
Width: 972
VWidth: 0
GlyphClass: 2
Flags: HW
LayerCount: 2
Fore
SplineSet
60 381 m 257
 356 381 l 257
 356 305 405 268 478 268 c 256
 544 268 588 308 588 368 c 256
 588 436 533 476 445 476 c 258
 356 476 l 257
 360 650 l 257
 460 650 l 258
 531 650 576 691 576 750 c 256
 576 820 522 850 470 850 c 256
 413 850 369 815 369 759 c 257
 108 759 l 257
 89 988 232 1126 472 1126 c 256
 666 1126 836 1012 836 788 c 256
 836 722 800 624 720 574 c 257
 801 534 862 422 862 324 c 256
 862 104 681 -7 462 -7 c 256
 211 -7 41 123 60 381 c 257
EndSplineSet
EndChar

StartChar: three.onum
Encoding: 1114195 -1 412
GlifName: three.onum
Width: 1199
VWidth: 0
GlyphClass: 2
Flags: HW
LayerCount: 2
Fore
SplineSet
544 282 m 258
 400 282 l 257
 400 525 l 257
 544 525 l 258
 642 525 730 612 730 702 c 256
 730 786 661 839 559 839 c 256
 449 839 394 780 406 677 c 257
 94 677 l 257
 70 943 265 1127 573 1127 c 256
 855 1127 1046 972 1046 739 c 256
 1046 597 972 489 830 412 c 257
 986 356 1060 240 1060 76 c 256
 1060 -191 861 -358 539 -358 c 256
 194 -358 2 -170 26 154 c 257
 370 154 l 257
 355 12 432 -70 576 -70 c 256
 697 -70 772 -7 772 92 c 256
 772 198 682 282 544 282 c 258
EndSplineSet
EndChar

StartChar: two.SC
Encoding: 1114197 -1 418
GlifName: two.S_C_
Width: 945
VWidth: 0
GlyphClass: 2
Flags: HW
LayerCount: 2
Fore
SplineSet
70 702 m 257
 44 946 219 1124 482 1124 c 256
 726 1124 876 980 876 744 c 256
 876 550 772 482 632 398 c 256
 588 372 532 337 500 297 c 257
 878 297 l 257
 878 0 l 257
 73 0 l 257
 37 274 137 405 380 528 c 256
 528 604 582 658 582 730 c 256
 582 794 532 834 466 834 c 256
 393 834 344 785 354 710 c 257
 70 702 l 257
EndSplineSet
EndChar

StartChar: two.onum
Encoding: 1114198 -1 419
GlifName: two.onum
Width: 1124
VWidth: 0
GlyphClass: 2
Flags: HW
LayerCount: 2
Fore
SplineSet
720 696 m 256
 720 783 654 839 548 839 c 256
 440 839 377 779 386 677 c 257
 84 677 l 257
 58 941 257 1127 565 1127 c 256
 843 1127 1026 977 1026 750 c 256
 1026 600 946 478 804 408 c 257
 600 296 l 257
 1033 296 l 257
 1033 0 l 257
 76 0 l 257
 76 282 l 257
 528 488 l 258
 660 548 720 614 720 696 c 256
EndSplineSet
EndChar

StartChar: u
Encoding: 117 117 422
GlifName: u
Width: 1250
VWidth: 0
GlyphClass: 2
Flags: HW
LayerCount: 2
Fore
SplineSet
792 1117 m 257
 1140 1117 l 257
 1140 0 l 257
 810 0 l 257
 792 258 l 257
 792 1117 l 257
EndSplineSet
Refer: 1672 57357 N -1 0 0 -1 1185 1117 2
Substitution2: "'smcp' Lowercase to Small Capitals in Latin lookup 0 subtable" uni1D1C
EndChar

StartChar: underscore
Encoding: 95 95 431
GlifName: underscore
Width: 1150
VWidth: 0
GlyphClass: 2
Flags: HW
LayerCount: 2
Fore
SplineSet
1050 0 m 257
 1050 -348 l 257
 100 -348 l 257
 100 0 l 257
 1050 0 l 257
EndSplineSet
EndChar

StartChar: uni00AD
Encoding: 173 173 433
GlifName: uni00A_D_
Width: 1019
VWidth: 0
GlyphClass: 2
Flags: HW
LayerCount: 2
Fore
SplineSet
950 758 m 257
 950 508 l 257
 71 508 l 257
 71 758 l 257
 950 758 l 257
EndSplineSet
EndChar

StartChar: uni00B2
Encoding: 178 178 434
GlifName: uni00B_2
Width: 657
VWidth: 0
GlyphClass: 2
Flags: HW
LayerCount: 2
Fore
SplineSet
89 1134 m 257
 89 1266 l 257
 374 1502 l 258
 412 1533 429 1556 429 1602 c 256
 429 1658 386 1696 326 1696 c 256
 260 1696 225 1655 225 1589 c 257
 89 1589 l 257
 89 1754 207 1833 326 1833 c 256
 438 1833 566 1758 566 1602 c 256
 566 1518 524 1447 466 1403 c 258
 306 1272 l 257
 565 1272 l 257
 565 1134 l 257
 89 1134 l 257
EndSplineSet
EndChar

StartChar: uni00B3
Encoding: 179 179 435
GlifName: uni00B_3
Width: 664
VWidth: 0
GlyphClass: 2
Flags: HW
LayerCount: 2
Fore
SplineSet
247 1619 m 257
 112 1619 l 257
 112 1755 197 1833 335 1833 c 256
 439 1833 562 1760 562 1620 c 256
 562 1574 533 1511 473 1485 c 257
 537 1463 576 1398 576 1332 c 256
 576 1194 472 1124 334 1124 c 256
 184 1124 89 1202 89 1346 c 257
 240 1346 l 257
 240 1285 279 1258 334 1258 c 256
 396 1258 430 1288 430 1342 c 256
 430 1394 392 1427 328 1427 c 258
 264 1427 l 257
 264 1538 l 257
 328 1538 l 258
 379 1538 407 1572 407 1616 c 256
 407 1659 377 1694 328 1694 c 256
 276 1694 247 1663 247 1619 c 257
EndSplineSet
EndChar

StartChar: uni00B9
Encoding: 185 185 436
GlifName: uni00B_9
Width: 510
VWidth: 0
GlyphClass: 2
Flags: HW
LayerCount: 2
Fore
SplineSet
89 1541 m 257
 89 1678 l 257
 284 1678 l 257
 284 1823 l 257
 422 1823 l 257
 422 1134 l 257
 284 1134 l 257
 284 1541 l 257
 89 1541 l 257
EndSplineSet
EndChar

StartChar: uni018F
Encoding: 399 399 451
GlifName: uni018F_
Width: 1572
VWidth: 0
GlyphClass: 2
Flags: HW
LayerCount: 2
Fore
SplineSet
1092 563 m 257
 470 563 l 257
 498 391 598 288 788 288 c 256
 954 288 1060 381 1092 563 c 257
1104 837 m 257
 1084 1085 970 1196 784 1196 c 256
 624 1196 523 1122 476 968 c 257
 156 1080 l 257
 242 1318 453 1494 780 1494 c 256
 1244 1494 1460 1146 1460 739 c 256
 1460 354 1262 -12 768 -12 c 256
 309 -12 53 378 119 837 c 257
 1104 837 l 257
EndSplineSet
EndChar

StartChar: uni01B7
Encoding: 439 439 452
GlifName: uni01B_7
Width: 1365
VWidth: 0
GlyphClass: 2
Flags: HW
LayerCount: 2
Fore
SplineSet
665 -487 m 256
 345 -487 84 -322 74 16 c 257
 430 14 l 257
 440 -104 532 -190 676 -190 c 256
 858 -190 946 -75 946 147 c 256
 946 439 742 529 478 453 c 257
 341 604 l 257
 823 1184 l 257
 109 1184 l 257
 109 1484 l 257
 1222 1484 l 257
 1222 1244 l 257
 839 774 l 257
 1173 718 1292 505 1292 147 c 256
 1292 -258 1071 -487 665 -487 c 256
EndSplineSet
EndChar

StartChar: uni0237
Encoding: 567 567 544
GlifName: uni0237
Width: 572
VWidth: 0
GlyphClass: 2
Flags: HW
LayerCount: 2
Fore
SplineSet
-165 -393 m 257
 -118 -166 l 257
 -78 -177 -38 -182 -6 -182 c 256
 68 -182 110 -150 110 -86 c 258
 110 1117 l 257
 461 1117 l 257
 461 -128 l 258
 461 -358 292 -444 100 -444 c 256
 10 -444 -84 -425 -165 -393 c 257
EndSplineSet
EndChar

StartChar: uni0239
Encoding: 569 569 546
GlifName: uni0239
Width: 1776
VWidth: 0
GlyphClass: 2
Flags: HW
LayerCount: 2
Fore
SplineSet
713 1117 m 257
 1062 1117 l 257
 1062 -443 l 257
 713 -443 l 257
 713 1117 l 257
EndSplineSet
Refer: 1674 57359 N -1 0 0 -1 1124 1116 2
Refer: 1674 57359 N 1 0 0 1 653 0 2
EndChar

StartChar: uni0240
Encoding: 576 576 547
GlifName: uni0240
Width: 1082
VWidth: 0
GlyphClass: 2
Flags: HW
LayerCount: 2
Fore
SplineSet
806 -280 m 256
 644 -280 569 -217 494 -150 c 256
 408 -74 318 0 82 0 c 257
 82 240 l 257
 582 819 l 257
 82 819 l 257
 82 1117 l 257
 992 1117 l 257
 992 876 l 257
 424 220 l 257
 519 210 574 164 626 112 c 256
 677 62 730 16 806 16 c 256
 894 16 950 76 1002 149 c 257
 1232 -20 l 257
 1132 -166 1016 -280 806 -280 c 256
EndSplineSet
EndChar

StartChar: uni0255
Encoding: 597 597 550
GlifName: uni0255
Width: 1164
VWidth: 0
GlyphClass: 2
Flags: HW
LayerCount: 2
Fore
SplineSet
620 268 m 256
 488 268 418 356 418 558 c 256
 418 760 488 850 604 850 c 256
 680 850 750 817 766 690 c 257
 1102 759 l 257
 1049 999 868 1126 596 1126 c 256
 234 1126 68 880 68 558 c 256
 68 236 234 -11 602 -11 c 256
 858 -11 1065 122 1065 360 c 256
 1065 532 907 642 755 642 c 256
 456 642 224 359 30 54 c 257
 230 -80 l 257
 462 260 591 439 705 439 c 256
 757 439 778 407 778 367 c 256
 778 307 708 268 620 268 c 256
EndSplineSet
EndChar

StartChar: uni0262
Encoding: 610 610 552
GlifName: uni0262
Width: 1176
VWidth: 0
GlyphClass: 2
Flags: HW
LayerCount: 2
Fore
SplineSet
372 562 m 256
 372 356 463 268 633 268 c 256
 719 268 784 296 813 340 c 257
 813 432 l 257
 550 432 l 257
 550 635 l 257
 1112 644 l 257
 1112 224 l 257
 999 73 850 -10 630 -10 c 256
 281 -10 64 196 64 562 c 256
 64 904 264 1127 604 1127 c 256
 842 1127 993 991 1056 820 c 257
 813 716 l 257
 785 793 705 850 603 850 c 256
 447 850 372 742 372 562 c 256
EndSplineSet
EndChar

StartChar: uni0274
Encoding: 628 628 555
GlifName: uni0274
Width: 1343
VWidth: 0
GlyphClass: 2
Flags: HW
LayerCount: 2
Fore
SplineSet
870 1117 m 257
 1220 1117 l 257
 1220 0 l 257
 891 0 l 257
 473 610 l 257
 473 0 l 257
 124 0 l 257
 124 1117 l 257
 452 1117 l 257
 870 506 l 257
 870 1117 l 257
EndSplineSet
EndChar

StartChar: uni0280
Encoding: 640 640 556
GlifName: uni0280
Width: 1189
VWidth: 0
GlyphClass: 2
Flags: HW
LayerCount: 2
Fore
SplineSet
487 590 m 257
 584 590 l 258
 696 590 746 625 746 737 c 256
 746 849 694 881 584 881 c 258
 487 881 l 257
 487 590 l 257
487 356 m 257
 487 0 l 257
 138 0 l 257
 138 1117 l 257
 644 1117 l 258
 933 1117 1094 979 1094 737 c 256
 1094 493 930 356 644 356 c 258
 487 356 l 257
614 483 m 257
 917 483 l 257
 1186 0 l 257
 843 0 l 257
 614 483 l 257
EndSplineSet
EndChar

StartChar: uni0283
Encoding: 643 643 557
GlifName: uni0283
Width: 785
VWidth: 0
GlyphClass: 2
Flags: HW
LayerCount: 2
Fore
SplineSet
816 1487 m 257
 766 1261 l 257
 726 1274 685 1280 650 1280 c 256
 576 1280 534 1250 534 1186 c 258
 534 -158 l 258
 534 -388 364 -473 172 -473 c 256
 78 -473 -18 -452 -98 -418 c 257
 -48 -193 l 257
 -8 -206 33 -212 68 -212 c 256
 142 -212 184 -181 184 -117 c 258
 184 1226 l 258
 184 1456 353 1542 545 1542 c 256
 639 1542 736 1521 816 1487 c 257
EndSplineSet
EndChar

StartChar: uni028F
Encoding: 655 655 558
GlifName: uni028F_
Width: 1193
VWidth: 0
GlyphClass: 2
Flags: HW
LayerCount: 2
Fore
SplineSet
798 1117 m 257
 1202 1117 l 257
 774 480 l 257
 774 0 l 257
 423 0 l 257
 423 480 l 257
 -9 1117 l 257
 398 1117 l 257
 598 764 l 257
 798 1117 l 257
EndSplineSet
EndChar

StartChar: uni0291
Encoding: 657 657 559
GlifName: uni0291
Width: 1604
VWidth: 0
GlyphClass: 2
Flags: HW
LayerCount: 2
Fore
SplineSet
1097 296 m 258
 491 296 l 257
 992 876 l 257
 992 1117 l 257
 82 1117 l 257
 82 819 l 257
 582 819 l 257
 82 240 l 257
 82 0 l 257
 1080 0 l 258
 1336 0 1543 134 1543 372 c 256
 1543 544 1446 702 1214 702 c 256
 903 702 674 354 338 -179 c 257
 546 -312 l 257
 908 239 1070 448 1184 448 c 256
 1230 448 1253 419 1253 382 c 256
 1253 322 1185 296 1097 296 c 258
EndSplineSet
EndChar

StartChar: uni0292
Encoding: 658 658 560
GlifName: uni0292
Width: 1183
VWidth: 0
GlyphClass: 2
Flags: HW
LayerCount: 2
Fore
SplineSet
587 -487 m 256
 298 -487 97 -362 64 -56 c 257
 412 -32 l 257
 434 -151 492 -210 584 -210 c 256
 682 -210 767 -157 767 27 c 256
 767 269 600 293 422 236 c 257
 278 392 l 257
 615 819 l 257
 102 819 l 257
 102 1117 l 257
 1060 1117 l 257
 1060 876 l 257
 774 516 l 257
 970 486 1117 329 1117 27 c 256
 1117 -314 924 -487 587 -487 c 256
EndSplineSet
EndChar

StartChar: uni0293
Encoding: 659 659 561
GlifName: uni0293
Width: 1190
VWidth: 0
GlyphClass: 2
Flags: HW
LayerCount: 2
Fore
SplineSet
109 819 m 257
 109 1117 l 257
 1066 1117 l 257
 1066 876 l 257
 780 516 l 257
 976 486 1124 329 1124 27 c 256
 1124 -314 886 -488 549 -488 c 256
 286 -488 66 -361 66 -117 c 256
 66 55 224 164 376 164 c 256
 675 164 908 -119 1102 -424 c 257
 902 -558 l 257
 670 -218 540 -39 426 -39 c 256
 374 -39 354 -71 354 -111 c 256
 354 -180 452 -210 548 -210 c 256
 646 -210 774 -157 774 27 c 256
 774 269 606 293 428 236 c 257
 284 392 l 257
 622 819 l 257
 109 819 l 257
EndSplineSet
EndChar

StartChar: uni0299
Encoding: 665 665 562
GlifName: uni0299
Width: 1199
VWidth: 0
GlyphClass: 2
Flags: HW
LayerCount: 2
Fore
SplineSet
138 1117 m 257
 660 1117 l 258
 936 1117 1044 975 1044 783 c 256
 1044 699 1006 627 946 585 c 257
 1040 535 1096 436 1096 326 c 256
 1096 115 965 0 740 0 c 258
 138 0 l 257
 138 1117 l 257
488 881 m 257
 488 646 l 257
 622 646 l 258
 693 646 740 676 740 764 c 256
 740 854 690 881 622 881 c 258
 488 881 l 257
488 470 m 257
 488 235 l 257
 627 235 l 258
 698 235 746 266 746 354 c 256
 746 444 695 470 627 470 c 258
 488 470 l 257
EndSplineSet
EndChar

StartChar: uni029C
Encoding: 668 668 563
GlifName: uni029C_
Width: 1329
VWidth: 0
GlyphClass: 2
Flags: HW
LayerCount: 2
Fore
SplineSet
856 1117 m 257
 1206 1117 l 257
 1206 0 l 257
 856 0 l 257
 856 422 l 257
 473 422 l 257
 473 0 l 257
 124 0 l 257
 124 1117 l 257
 473 1117 l 257
 473 696 l 257
 856 696 l 257
 856 1117 l 257
EndSplineSet
EndChar

StartChar: uni029F
Encoding: 671 671 565
GlifName: uni029F_
Width: 973
VWidth: 0
GlyphClass: 2
Flags: HW
LayerCount: 2
Fore
SplineSet
131 1117 m 257
 480 1117 l 257
 480 278 l 257
 930 278 l 257
 930 0 l 257
 131 0 l 257
 131 1117 l 257
EndSplineSet
EndChar

StartChar: uni02C2
Encoding: 706 706 575
GlifName: uni02C_2
Width: 672
VWidth: 0
GlyphClass: 2
Flags: HW
LayerCount: 2
Fore
SplineSet
334 717 m 257
 618 433 l 257
 478 292 l 257
 54 717 l 257
 478 1142 l 257
 618 1001 l 257
 334 717 l 257
EndSplineSet
EndChar

StartChar: uni02C3
Encoding: 707 707 576
GlifName: uni02C_3
Width: 672
VWidth: 0
GlyphClass: 2
Flags: HW
LayerCount: 2
Fore
SplineSet
338 717 m 257
 54 1001 l 257
 194 1142 l 257
 618 717 l 257
 194 292 l 257
 54 433 l 257
 338 717 l 257
EndSplineSet
EndChar

StartChar: uni02C4
Encoding: 708 708 577
GlifName: uni02C_4
Width: 956
VWidth: 0
GlyphClass: 2
Flags: HW
LayerCount: 2
Fore
SplineSet
478 718 m 257
 194 434 l 257
 54 575 l 257
 478 1000 l 257
 902 575 l 257
 762 434 l 257
 478 718 l 257
EndSplineSet
EndChar

StartChar: uni02C5
Encoding: 709 709 578
GlifName: uni02C_5
Width: 956
VWidth: 0
GlyphClass: 2
Flags: HW
LayerCount: 2
Fore
SplineSet
478 716 m 257
 762 1000 l 257
 902 859 l 257
 478 434 l 257
 54 859 l 257
 194 1000 l 257
 478 716 l 257
EndSplineSet
EndChar

StartChar: uni02D2
Encoding: 722 722 579
GlifName: uni02D_2
Width: 453
VWidth: 0
GlyphClass: 2
Flags: HW
LayerCount: 2
Fore
SplineSet
71 1284 m 257
 175 1284 230 1340 230 1434 c 256
 230 1528 176 1584 72 1584 c 257
 72 1736 l 257
 258 1736 382 1628 382 1434 c 256
 382 1240 257 1131 71 1131 c 257
 71 1284 l 257
EndSplineSet
EndChar

StartChar: uni02D3
Encoding: 723 723 580
GlifName: uni02D_3
Width: 610
VWidth: 0
GlyphClass: 2
Flags: HW
LayerCount: 2
Fore
SplineSet
461 1584 m 257
 357 1584 302 1528 302 1434 c 256
 302 1340 356 1284 460 1284 c 257
 460 1131 l 257
 274 1131 150 1240 150 1434 c 256
 150 1628 275 1736 461 1736 c 257
 461 1584 l 257
EndSplineSet
EndChar

StartChar: uni031B
Encoding: 795 795 584
GlifName: uni031B_
Width: 732
VWidth: 0
GlyphClass: 2
Flags: HW
LayerCount: 2
Fore
SplineSet
526 1620 m 257
 552 1535 582 1439 582 1352 c 256
 582 1215 486 1134 326 1134 c 258
 150 1134 l 257
 150 1292 l 257
 336 1292 l 258
 400 1292 420 1305 420 1353 c 256
 420 1400 396 1496 374 1564 c 257
 526 1620 l 257
EndSplineSet
EndChar

StartChar: uni0600
Encoding: 1536 1536 585
GlifName: uni0600
Width: 3060
VWidth: 0
GlyphClass: 2
Flags: HW
LayerCount: 2
Fore
SplineSet
2167 349 m 257
 2155 374 2150 402 2150 434 c 256
 2150 674 2294 894 2475 1086 c 257
 2730 855 l 257
 2573 693 2498 565 2498 456 c 256
 2498 346 2601 318 2700 296 c 258
 3009 232 l 257
 2904 -110 l 257
 2671 -36 2474 0 2310 0 c 258
 52 0 l 257
 52 349 l 257
 2167 349 l 257
EndSplineSet
EndChar

StartChar: uni0601
Encoding: 1537 1537 586
GlifName: uni0601
Width: 4019
VWidth: 0
GlyphClass: 2
Flags: HW
LayerCount: 2
Fore
SplineSet
52 377 m 257
 330 517 l 257
 390 372 413 334 451 334 c 256
 487 334 506 374 546 470 c 256
 660 744 764 859 928 859 c 256
 1074 859 1182 766 1328 541 c 256
 1424 393 1481 335 1552 335 c 256
 1638 335 1698 425 1770 633 c 257
 1971 662 l 257
 2159 443 2402 335 2654 335 c 256
 2856 335 3029 407 3270 568 c 256
 3453 690 3557 736 3663 736 c 256
 3839 736 3968 602 3968 421 c 256
 3968 275 3885 130 3680 -80 c 257
 3477 118 l 257
 3551 178 3586 225 3586 263 c 256
 3586 291 3565 311 3542 311 c 256
 3518 311 3490 296 3430 256 c 256
 3166 81 2911 -14 2657 -14 c 256
 2417 -14 2160 66 1934 233 c 257
 1836 71 1722 -14 1553 -14 c 256
 1355 -14 1215 98 1050 360 c 256
 989 456 954 496 917 496 c 256
 875 496 850 448 812 347 c 256
 709 83 611 -14 434 -14 c 256
 259 -14 178 74 52 377 c 257
EndSplineSet
EndChar

StartChar: uni0603
Encoding: 1539 1539 587
GlifName: uni0603
Width: 2059
VWidth: 0
GlyphClass: 2
Flags: HW
LayerCount: 2
Fore
SplineSet
52 0 m 257
 52 349 l 257
 346 349 474 473 570 885 c 257
 910 808 l 257
 782 238 526 0 52 0 c 257
1625 480 m 256
 1625 544 1583 585 1512 585 c 256
 1416 585 1298 506 1178 343 c 257
 954 492 l 257
 1182 806 1362 928 1574 928 c 256
 1834 928 2008 743 2008 475 c 256
 2008 165 1769 0 1366 0 c 256
 1028 0 781 122 527 403 c 257
 757 670 l 257
 999 446 1186 348 1398 348 c 256
 1537 348 1625 389 1625 480 c 256
EndSplineSet
EndChar

StartChar: uni0604
Encoding: 1540 1540 588
GlifName: uni0604
Width: 2863
VWidth: 0
GlyphClass: 2
Flags: HW
LayerCount: 2
Fore
SplineSet
1280 -206 m 257
 1058 -90 878 0 650 0 c 258
 52 0 l 257
 52 349 l 257
 482 349 l 258
 535 349 574 342 618 327 c 257
 604 355 597 392 597 430 c 256
 597 718 810 972 1102 972 c 256
 1334 972 1452 841 1558 717 c 256
 1657 600 1715 549 1833 549 c 256
 1927 549 1976 592 1976 698 c 258
 1976 952 l 257
 2274 952 l 257
 2274 698 l 258
 2274 610 2288 549 2370 549 c 256
 2453 549 2464 601 2464 682 c 256
 2464 767 2448 886 2424 992 c 257
 2764 1064 l 257
 2798 915 2811 818 2811 658 c 256
 2811 354 2671 200 2418 200 c 256
 2250 200 2154 272 2132 369 c 257
 2110 272 2024 200 1860 200 c 256
 1638 200 1512 330 1400 448 c 256
 1313 540 1232 622 1124 622 c 256
 998 622 944 533 944 428 c 256
 944 312 1104 246 1244 188 c 256
 1310 160 1370 134 1432 106 c 257
 1280 -206 l 257
EndSplineSet
EndChar

StartChar: uni060C
Encoding: 1548 1548 592
GlifName: uni060C_
Width: 594
VWidth: 0
GlyphClass: 2
Flags: HW
LayerCount: 2
Fore
SplineSet
296 350 m 257
 406 353 490 277 490 174 c 256
 490 74 411 -2 319 -2 c 256
 195 -2 114 88 114 234 c 256
 114 406 198 577 334 701 c 257
 442 593 l 257
 370 515 319 443 296 350 c 257
EndSplineSet
EndChar

StartChar: uni060D
Encoding: 1549 1549 593
GlifName: uni060D_
Width: 887
VWidth: 0
GlyphClass: 2
Flags: HW
LayerCount: 2
Fore
SplineSet
275 -620 m 257
 -99 -620 l 257
 424 718 l 257
 796 718 l 257
 275 -620 l 257
EndSplineSet
EndChar

StartChar: uni060E
Encoding: 1550 1550 594
GlifName: uni060E_
Width: 2188
VWidth: 0
GlyphClass: 2
Flags: HW
LayerCount: 2
Fore
SplineSet
1142 415 m 256
 1142 178 994 -30 916 -126 c 257
 647 85 l 257
 696 141 793 261 793 381 c 256
 793 505 718 574 606 574 c 256
 494 574 400 492 400 370 c 256
 400 243 544 202 680 202 c 258
 2136 202 l 257
 2136 -144 l 257
 676 -144 l 258
 330 -144 52 13 52 351 c 256
 52 689 322 922 606 922 c 256
 905 922 1142 719 1142 415 c 256
EndSplineSet
EndChar

StartChar: uni060F
Encoding: 1551 1551 595
GlifName: uni060F_
Width: 1570
VWidth: 0
GlyphClass: 2
Flags: HW
LayerCount: 2
Fore
SplineSet
832 -743 m 256
 366 -743 52 -509 52 -128 c 256
 52 88 157 261 377 421 c 257
 243 493 158 632 158 804 c 256
 158 1110 400 1342 706 1342 c 256
 876 1342 1037 1271 1159 1151 c 257
 980 896 l 257
 914 954 812 994 714 994 c 256
 595 994 510 928 510 824 c 256
 510 702 632 648 874 648 c 256
 948 648 1043 654 1179 665 c 257
 1194 327 l 257
 718 307 402 150 402 -104 c 256
 402 -289 584 -394 850 -394 c 256
 1021 -394 1135 -350 1135 -257 c 256
 1135 -197 1090 -157 1018 -157 c 256
 922 -157 810 -226 718 -366 c 257
 365 -894 l 257
 119 -729 l 257
 494 -219 l 257
 676 35 900 168 1112 168 c 256
 1354 168 1518 -3 1518 -246 c 256
 1518 -558 1246 -743 832 -743 c 256
EndSplineSet
EndChar

StartChar: uni0615.alt
Encoding: 1114200 -1 597
GlifName: uni0615.alt
Width: 740
VWidth: 0
GlyphClass: 2
Flags: HW
LayerCount: 2
Fore
SplineSet
344 98 m 257
 384 98 l 258
 431 98 508 99 508 149 c 256
 508 173 492 190 464 190 c 256
 424 190 384 148 344 98 c 257
222 98 m 257
 222 408 l 257
 321 408 l 257
 321 189 l 257
 371 242 415 288 485 288 c 256
 548 288 607 244 607 150 c 256
 607 35 504 0 384 0 c 258
 133 0 l 257
 133 98 l 257
 222 98 l 257
EndSplineSet
EndChar

StartChar: uni061C
Encoding: 1564 1564 599
GlifName: uni061C_
Width: 2600
VWidth: 0
GlyphClass: 2
Flags: HW
LayerCount: 2
Fore
SplineSet
954 1145 m 257
 1188 1145 l 257
 1188 1047 l 257
 954 1047 l 257
 954 1145 l 257
1420 1145 m 257
 1654 1145 l 257
 1654 1047 l 257
 1420 1047 l 257
 1420 1145 l 257
2302 1047 m 257
 1886 1047 l 257
 1886 1145 l 257
 2400 1143 l 257
 2400 835 l 257
 2302 835 l 257
 2302 1047 l 257
200 1145 m 257
 722 1145 l 257
 722 1047 l 257
 298 1049 l 257
 298 837 l 257
 200 837 l 257
 200 1145 l 257
1656 -280 m 257
 1422 -280 l 257
 1422 -182 l 257
 1656 -182 l 257
 1656 -280 l 257
200 -280 m 257
 724 -280 l 257
 724 -182 l 257
 298 -182 l 257
 298 30 l 257
 200 30 l 257
 200 -280 l 257
2302 -182 m 257
 1888 -182 l 257
 1888 -280 l 257
 2400 -280 l 257
 2400 28 l 257
 2302 28 l 257
 2302 -182 l 257
1190 -280 m 257
 956 -280 l 257
 956 -182 l 257
 1190 -182 l 257
 1190 -280 l 257
2302 261 m 257
 2302 602 l 257
 2400 602 l 257
 2400 261 l 257
 2302 261 l 257
298 604 m 257
 298 263 l 257
 200 263 l 257
 200 604 l 257
 298 604 l 257
EndSplineSet
Refer: 1334 7437 N 0.5 0 0 0.5 1423 146 2
Refer: 1327 7424 N 0.5 0 0 0.5 386 146 2
Refer: 565 671 N 0.5 0 0 0.5 930 146 2
EndChar

StartChar: uni061F
Encoding: 1567 1567 601
GlifName: uni061F_
Width: 1152
VWidth: 0
GlyphClass: 2
Flags: HW
LayerCount: 2
Fore
SplineSet
600 -11 m 256
 504 -11 422 68 422 164 c 256
 422 260 504 336 600 336 c 256
 696 336 777 260 777 164 c 256
 777 68 696 -11 600 -11 c 256
727 924 m 257
 733 960 739 1005 739 1043 c 256
 739 1141 700 1222 594 1222 c 256
 492 1222 440 1152 440 1058 c 256
 440 958 482 897 576 818 c 256
 683 726 758 655 758 489 c 257
 438 489 l 257
 438 613 370 674 296 738 c 256
 210 814 120 895 120 1093 c 256
 120 1288 288 1496 582 1496 c 256
 861 1496 1032 1340 1032 1092 c 256
 1032 1044 1028 977 1014 923 c 257
 727 924 l 257
EndSplineSet
Substitution2: "'tnum' Tabular Numbers lookup 22 subtable" uni061F.tnum
EndChar

StartChar: uni0652.alt
Encoding: 1114236 -1 688
GlifName: uni0652.alt
Width: 342
VWidth: 0
GlyphClass: 2
Flags: HW
LayerCount: 2
Fore
SplineSet
171 182 m 256
 135 182 120 161 120 131 c 256
 120 101 136 79 171 79 c 256
 205 79 222 103 222 131 c 256
 222 159 207 182 171 182 c 256
171 261 m 256
 250 261 302 204 302 131 c 256
 302 58 250 0 171 0 c 256
 91 0 40 59 40 131 c 256
 40 203 91 261 171 261 c 256
EndSplineSet
EndChar

StartChar: uni0660
Encoding: 1632 1632 702
GlifName: uni0660
Width: 779
VWidth: 0
GlyphClass: 2
Flags: HW
LayerCount: 2
Fore
SplineSet
389 734 m 257
 106 449 l 257
 389 164 l 257
 673 449 l 257
 389 734 l 257
EndSplineSet
PairPos2: "'kern' Horizontal Kerning in Arabic lookup 7 subtable" uni0661 dx=45 dy=0 dh=45 dv=0 dx=0 dy=0 dh=0 dv=0
PairPos2: "'kern' Horizontal Kerning in Arabic lookup 7 subtable" uni0667 dx=-89 dy=0 dh=-89 dv=0 dx=0 dy=0 dh=0 dv=0
PairPos2: "'kern' Horizontal Kerning in Arabic lookup 7 subtable" uni0662 dx=-111 dy=0 dh=-111 dv=0 dx=0 dy=0 dh=0 dv=0
Substitution2: "'tnum' Tabular Numbers lookup 22 subtable" uni0660.tnum
EndChar

StartChar: uni0661
Encoding: 1633 1633 704
GlifName: uni0661
Width: 764
VWidth: 0
GlyphClass: 2
Flags: HW
LayerCount: 2
Fore
SplineSet
655 0 m 257
 306 0 l 257
 306 558 229 908 53 1384 c 257
 382 1502 l 257
 567 1000 655 595 655 0 c 257
EndSplineSet
PairPos2: "'kern' Horizontal Kerning in Arabic lookup 7 subtable" uni0665 dx=-56 dy=0 dh=-56 dv=0 dx=0 dy=0 dh=0 dv=0
Substitution2: "'tnum' Tabular Numbers lookup 22 subtable" uni0661.tnum
EndChar

StartChar: uni0662
Encoding: 1634 1634 706
GlifName: uni0662
Width: 1285
VWidth: 0
GlyphClass: 2
Flags: HW
LayerCount: 2
Fore
SplineSet
645 1057 m 256
 753 1057 784 1126 812 1331 c 258
 836 1496 l 257
 1178 1442 l 257
 1138 1103 1081 714 708 714 c 256
 669 714 626 721 596 733 c 257
 637 501 654 268 654 0 c 257
 304 0 l 257
 304 518 242 866 52 1384 c 257
 382 1502 l 257
 442 1331 l 258
 522 1107 561 1057 645 1057 c 256
EndSplineSet
Substitution2: "'tnum' Tabular Numbers lookup 22 subtable" uni0662.tnum
EndChar

StartChar: uni0663
Encoding: 1635 1635 708
GlifName: uni0663
Width: 1573
VWidth: 0
GlyphClass: 2
Flags: HW
LayerCount: 2
Fore
SplineSet
584 1043 m 256
 648 1043 678 1087 680 1207 c 256
 681 1333 681 1379 680 1436 c 257
 936 1436 l 257
 932 1368 929 1317 929 1178 c 256
 929 1075 964 1043 1024 1043 c 256
 1087 1043 1112 1077 1112 1178 c 256
 1112 1256 1102 1342 1086 1444 c 257
 1430 1502 l 257
 1450 1404 1462 1308 1462 1216 c 256
 1462 926 1348 694 1063 694 c 256
 937 694 847 743 798 829 c 257
 774 741 708 696 628 694 c 256
 614 694 604 699 596 708 c 257
 635 472 642 254 642 0 c 257
 293 0 l 257
 293 575 202 976 52 1388 c 257
 382 1502 l 257
 460 1194 l 257
 490 1090 522 1043 584 1043 c 256
EndSplineSet
PairPos2: "'kern' Horizontal Kerning in Arabic lookup 7 subtable" uni0668 dx=-56 dy=0 dh=-56 dv=0 dx=0 dy=0 dh=0 dv=0
Substitution2: "'tnum' Tabular Numbers lookup 22 subtable" uni0663.tnum
EndChar

StartChar: uni0664
Encoding: 1636 1636 710
GlifName: uni0664
Width: 1024
VWidth: 0
GlyphClass: 2
Flags: HW
LayerCount: 2
Fore
SplineSet
329 744 m 257
 199 781 142 887 142 995 c 256
 142 1327 492 1460 814 1502 c 257
 848 1166 l 257
 578 1140 498 1075 498 1004 c 256
 498 930 567 900 850 900 c 257
 850 612 l 257
 584 612 432 582 432 454 c 256
 432 372 508 338 605 338 c 258
 940 338 l 257
 940 0 l 257
 616 0 l 258
 288 0 82 125 82 400 c 256
 82 550 161 682 329 744 c 257
EndSplineSet
PairPos2: "'kern' Horizontal Kerning in Arabic lookup 7 subtable" uni0666 dx=56 dy=0 dh=56 dv=0 dx=0 dy=0 dh=0 dv=0
Substitution2: "'tnum' Tabular Numbers lookup 22 subtable" uni0664.tnum
EndChar

StartChar: uni0664.urdu
Encoding: 1114242 -1 712
GlifName: uni0664.urdu
Width: 1236
VWidth: 0
GlyphClass: 2
Flags: HW
LayerCount: 2
Fore
SplineSet
1185 1199 m 257
 1027 1108 907 1012 804 893 c 257
 648 894 l 257
 490 1106 l 258
 475 1126 457 1134 441 1134 c 256
 419 1134 400 1117 400 1093 c 256
 400 1083 403 1071 411 1059 c 258
 704 579 l 258
 764 481 794 370 794 258 c 256
 794 146 766 34 712 -72 c 257
 391 64 l 257
 427 126 448 186 448 246 c 256
 448 296 434 348 404 400 c 258
 121 891 l 258
 78 965 48 1041 48 1120 c 256
 48 1329 219 1494 421 1494 c 256
 545 1494 647 1434 717 1352 c 258
 742 1322 l 257
 820 1386 926 1453 1010 1501 c 257
 1185 1199 l 257
EndSplineSet
Substitution2: "'tnum' Tabular Numbers lookup 22 subtable" uni0664.urdu.tnum
EndChar

StartChar: uni0665
Encoding: 1637 1637 714
GlifName: uni0665
Width: 1329
VWidth: 0
GlyphClass: 2
Flags: HW
LayerCount: 2
Fore
SplineSet
560 1502 m 257
 888 1256 1244 948 1244 500 c 256
 1244 136 985 -12 667 -12 c 256
 363 -12 86 130 86 470 c 256
 86 746 239 954 466 1128 c 257
 440 1152 377 1207 340 1236 c 257
 560 1502 l 257
664 922 m 257
 486 765 434 628 434 514 c 256
 434 402 503 337 667 337 c 256
 827 337 894 393 894 516 c 256
 894 622 833 752 664 922 c 257
EndSplineSet
PairPos2: "'kern' Horizontal Kerning in Arabic lookup 7 subtable" uni0661 dx=56 dy=0 dh=56 dv=0 dx=0 dy=0 dh=0 dv=0
PairPos2: "'kern' Horizontal Kerning in Arabic lookup 7 subtable" uni0667 dx=-111 dy=0 dh=-111 dv=0 dx=0 dy=0 dh=0 dv=0
Substitution2: "'tnum' Tabular Numbers lookup 22 subtable" uni0665.tnum
EndChar

StartChar: uni0666
Encoding: 1638 1638 716
GlifName: uni0666
Width: 1223
VWidth: 0
GlyphClass: 2
Flags: HW
LayerCount: 2
Fore
SplineSet
82 1124 m 257
 82 1484 l 257
 832 1484 l 257
 1030 1256 l 257
 1027 1186 1026 1125 1026 1014 c 256
 1026 597 1061 446 1165 68 c 257
 826 -16 l 257
 720 384 675 570 675 1014 c 256
 675 1046 676 1093 676 1124 c 257
 82 1124 l 257
EndSplineSet
PairPos2: "'kern' Horizontal Kerning in Arabic lookup 7 subtable" uni0664 dx=-56 dy=0 dh=-56 dv=0 dx=0 dy=0 dh=0 dv=0
PairPos2: "'kern' Horizontal Kerning in Arabic lookup 7 subtable" uni0665 dx=-195 dy=0 dh=-195 dv=0 dx=0 dy=0 dh=0 dv=0
PairPos2: "'kern' Horizontal Kerning in Arabic lookup 7 subtable" uni0660 dx=-222 dy=0 dh=-222 dv=0 dx=0 dy=0 dh=0 dv=0
PairPos2: "'kern' Horizontal Kerning in Arabic lookup 7 subtable" uni066B dx=-167 dy=0 dh=-167 dv=0 dx=0 dy=0 dh=0 dv=0
PairPos2: "'kern' Horizontal Kerning in Arabic lookup 7 subtable" uni0668 dx=-222 dy=0 dh=-222 dv=0 dx=0 dy=0 dh=0 dv=0
Substitution2: "'tnum' Tabular Numbers lookup 22 subtable" uni0666.tnum
EndChar

StartChar: uni0667
Encoding: 1639 1639 718
GlifName: uni0667
Width: 1457
VWidth: 0
GlyphClass: 2
Flags: HW
LayerCount: 2
Fore
SplineSet
1136 1546 m 257
 1412 1332 l 257
 1104 932 938 629 882 0 c 257
 577 0 l 257
 521 629 355 932 47 1332 c 257
 324 1546 l 257
 516 1300 667 986 729 664 c 257
 791 986 944 1300 1136 1546 c 257
EndSplineSet
PairPos2: "'kern' Horizontal Kerning in Arabic lookup 7 subtable" uni0660 dx=-111 dy=0 dh=-111 dv=0 dx=0 dy=0 dh=0 dv=0
PairPos2: "'kern' Horizontal Kerning in Arabic lookup 7 subtable" uni0665 dx=-111 dy=0 dh=-111 dv=0 dx=0 dy=0 dh=0 dv=0
PairPos2: "'kern' Horizontal Kerning in Arabic lookup 7 subtable" uni0668 dx=-167 dy=0 dh=-167 dv=0 dx=0 dy=0 dh=0 dv=0
PairPos2: "'kern' Horizontal Kerning in Arabic lookup 7 subtable" uni066B dx=-139 dy=0 dh=-139 dv=0 dx=0 dy=0 dh=0 dv=0
Substitution2: "'tnum' Tabular Numbers lookup 22 subtable" uni0667.tnum
Substitution2: "'locl' Localized Forms in Arabic lookup 5 subtable" uni0667.urdu
EndChar

StartChar: uni0667.urdu
Encoding: 1114247 -1 720
GlifName: uni0667.urdu
Width: 1256
VWidth: 0
GlyphClass: 2
Flags: HW
LayerCount: 2
Fore
SplineSet
1080 422 m 257
 1204 98 l 257
 1024 28 830 -10 632 -10 c 256
 470 -10 310 19 148 71 c 257
 52 330 l 257
 234 650 358 1087 414 1506 c 257
 760 1459 l 257
 709 1079 608 690 462 356 c 257
 523 345 581 340 638 340 c 256
 798 340 940 366 1080 422 c 257
EndSplineSet
Substitution2: "'tnum' Tabular Numbers lookup 22 subtable" uni0667.urdu.tnum
EndChar

StartChar: uni0668
Encoding: 1640 1640 722
GlifName: uni0668
Width: 1457
VWidth: 0
GlyphClass: 2
Flags: HW
LayerCount: 2
Fore
SplineSet
324 -46 m 257
 47 168 l 257
 355 568 521 871 577 1500 c 257
 882 1500 l 257
 938 871 1104 568 1412 168 c 257
 1136 -46 l 257
 944 200 791 514 729 836 c 257
 667 514 516 200 324 -46 c 257
EndSplineSet
PairPos2: "'kern' Horizontal Kerning in Arabic lookup 7 subtable" uni0663 dx=-222 dy=0 dh=-222 dv=0 dx=0 dy=0 dh=0 dv=0
PairPos2: "'kern' Horizontal Kerning in Arabic lookup 7 subtable" uni0662 dx=-195 dy=0 dh=-195 dv=0 dx=0 dy=0 dh=0 dv=0
PairPos2: "'kern' Horizontal Kerning in Arabic lookup 7 subtable" uni0667 dx=-167 dy=0 dh=-167 dv=0 dx=0 dy=0 dh=0 dv=0
Substitution2: "'tnum' Tabular Numbers lookup 22 subtable" uni0668.tnum
EndChar

StartChar: uni0669
Encoding: 1641 1641 724
GlifName: uni0669
Width: 1185
VWidth: 0
GlyphClass: 2
Flags: HW
LayerCount: 2
Fore
SplineSet
652 569 m 257
 606 553 554 546 496 546 c 256
 304 546 84 647 84 959 c 256
 84 1200 196 1505 522 1505 c 256
 874 1505 953 1244 965 879 c 257
 975 555 1015 334 1110 124 c 257
 787 -17 l 257
 715 187 670 383 652 569 c 257
627 894 m 257
 627 914 l 258
 627 1092 585 1155 515 1155 c 256
 463 1155 408 1109 408 986 c 256
 408 914 441 887 529 887 c 256
 564 887 599 890 627 894 c 257
EndSplineSet
PairPos2: "'kern' Horizontal Kerning in Arabic lookup 7 subtable" uni0668 dx=-167 dy=0 dh=-167 dv=0 dx=0 dy=0 dh=0 dv=0
PairPos2: "'kern' Horizontal Kerning in Arabic lookup 7 subtable" uni0665 dx=-56 dy=0 dh=-56 dv=0 dx=0 dy=0 dh=0 dv=0
Substitution2: "'tnum' Tabular Numbers lookup 22 subtable" uni0669.tnum
EndChar

StartChar: uni066B
Encoding: 1643 1643 728
GlifName: uni066B_
Width: 887
VWidth: 0
GlyphClass: 2
Flags: HW
LayerCount: 2
Fore
SplineSet
275 -620 m 257
 -98 -620 l 257
 424 720 l 257
 796 718 l 257
 275 -620 l 257
EndSplineSet
PairPos2: "'kern' Horizontal Kerning in Arabic lookup 7 subtable" uni066B dx=-56 dy=0 dh=-56 dv=0 dx=0 dy=0 dh=0 dv=0
PairPos2: "'kern' Horizontal Kerning in Arabic lookup 7 subtable" uni0663 dx=-167 dy=0 dh=-167 dv=0 dx=0 dy=0 dh=0 dv=0
PairPos2: "'kern' Horizontal Kerning in Arabic lookup 7 subtable" uni0662 dx=-111 dy=0 dh=-111 dv=0 dx=0 dy=0 dh=0 dv=0
PairPos2: "'kern' Horizontal Kerning in Arabic lookup 7 subtable" uni0667 dx=-111 dy=0 dh=-111 dv=0 dx=0 dy=0 dh=0 dv=0
PairPos2: "'kern' Horizontal Kerning in Arabic lookup 7 subtable" zero dx=-56 dy=0 dh=-56 dv=0 dx=0 dy=0 dh=0 dv=0
PairPos2: "'kern' Horizontal Kerning in Arabic lookup 7 subtable" two dx=-111 dy=0 dh=-111 dv=0 dx=0 dy=0 dh=0 dv=0
PairPos2: "'kern' Horizontal Kerning in Arabic lookup 7 subtable" three dx=-84 dy=0 dh=-84 dv=0 dx=0 dy=0 dh=0 dv=0
PairPos2: "'kern' Horizontal Kerning in Arabic lookup 7 subtable" seven dx=-111 dy=0 dh=-111 dv=0 dx=0 dy=0 dh=0 dv=0
Substitution2: "'tnum' Tabular Numbers lookup 22 subtable" uni066B.tnum
EndChar

StartChar: uni066C
Encoding: 1644 1644 730
GlifName: uni066C_
Width: 626
VWidth: 0
GlyphClass: 2
Flags: HW
LayerCount: 2
Fore
SplineSet
326 0 m 257
 210 20 148 83 148 175 c 256
 148 267 226 333 320 333 c 256
 418 333 500 267 500 124 c 256
 500 -42 420 -208 242 -334 c 257
 136 -212 l 257
 212 -157 297 -66 326 0 c 257
EndSplineSet
Substitution2: "'tnum' Tabular Numbers lookup 22 subtable" uni066C.tnum
EndChar

StartChar: uni066D
Encoding: 1645 1645 732
GlifName: uni066D_
Width: 972
VWidth: 0
GlyphClass: 2
Flags: HW
LayerCount: 2
Fore
SplineSet
610 748 m 257
 366 748 l 257
 378 1032 l 257
 143 880 l 257
 19 1092 l 257
 270 1220 l 257
 19 1351 l 257
 143 1562 l 257
 378 1410 l 257
 366 1690 l 257
 610 1690 l 257
 597 1410 l 257
 832 1562 l 257
 956 1351 l 257
 705 1220 l 257
 956 1092 l 257
 832 880 l 257
 597 1032 l 257
 610 748 l 257
EndSplineSet
Substitution2: "'tnum' Tabular Numbers lookup 22 subtable" uni066D.tnum
EndChar

StartChar: uni06DD
Encoding: 1757 1757 985
GlifName: uni06D_D_
Width: 0
VWidth: 0
GlyphClass: 2
Flags: H
LayerCount: 2
Fore
SplineSet
1068 641 m 256
 1068 415 1080 147 1110 -115 c 256
 1110 -116 1110 -117 1110 -118 c 256
 1110 -131 1100 -143 1088 -145 c 256
 833 -191 676 -258 538 -319 c 256
 376 -390 216 -448 0 -448 c 256
 -216 -448 -376 -390 -538 -319 c 256
 -676 -258 -833 -191 -1088 -145 c 256
 -1100 -143 -1110 -131 -1110 -118 c 256
 -1110 -117 -1110 -116 -1110 -115 c 256
 -1080 147 -1068 415 -1068 641 c 256
 -1068 867 -1080 1136 -1110 1398 c 256
 -1110 1399 -1110 1400 -1110 1401 c 256
 -1110 1414 -1100 1426 -1088 1428 c 256
 -833 1474 -676 1541 -538 1602 c 256
 -376 1673 -216 1732 0 1732 c 256
 216 1732 376 1673 538 1602 c 256
 676 1541 833 1474 1088 1428 c 256
 1100 1426 1110 1414 1110 1401 c 256
 1110 1400 1110 1399 1110 1398 c 256
 1080 1136 1068 867 1068 641 c 256
0 1594 m 256
 -189 1594 -328 1544 -475 1479 c 256
 -598 1425 -743 1363 -969 1320 c 257
 -943 1084 -933 843 -933 641 c 256
 -933 439 -943 199 -969 -37 c 257
 -743 -80 -598 -142 -475 -196 c 256
 -328 -261 -189 -311 0 -311 c 256
 189 -311 328 -261 475 -196 c 256
 598 -142 743 -80 969 -37 c 257
 943 199 933 439 933 641 c 256
 933 843 943 1084 969 1320 c 257
 743 1363 598 1425 475 1479 c 256
 328 1544 189 1594 0 1594 c 256
EndSplineSet
EndChar

StartChar: uni06DE
Encoding: 1758 1758 986
GlifName: uni06D_E_
Width: 2663
VWidth: 0
GlyphClass: 2
Flags: HW
LayerCount: 2
Fore
SplineSet
1331 1485 m 256
 1371 1485 1404 1451 1404 1411 c 256
 1404 1371 1371 1337 1331 1337 c 256
 1291 1337 1257 1371 1257 1411 c 256
 1257 1451 1291 1485 1331 1485 c 256
1331 -117 m 256
 1371 -117 1405 -151 1405 -191 c 256
 1405 -231 1371 -265 1331 -265 c 256
 1291 -265 1258 -231 1258 -191 c 256
 1258 -151 1291 -117 1331 -117 c 256
530 683 m 256
 570 683 604 650 604 610 c 256
 604 570 570 536 530 536 c 256
 490 536 456 570 456 610 c 256
 456 650 490 683 530 683 c 256
2132 684 m 256
 2172 684 2206 650 2206 610 c 256
 2206 570 2172 537 2132 537 c 256
 2092 537 2058 570 2058 610 c 256
 2058 650 2092 684 2132 684 c 256
790 1224 m 256
 829 1224 864 1189 864 1150 c 256
 864 1111 829 1077 790 1077 c 256
 751 1077 717 1111 717 1150 c 256
 717 1189 751 1224 790 1224 c 256
1872 143 m 256
 1911 143 1945 109 1945 70 c 256
 1945 31 1911 -4 1872 -4 c 256
 1833 -4 1798 31 1798 70 c 256
 1798 109 1833 143 1872 143 c 256
791 143 m 256
 830 143 864 108 864 69 c 256
 864 30 830 -4 791 -4 c 256
 752 -4 717 30 717 69 c 256
 717 108 752 143 791 143 c 256
1871 1224 m 256
 1910 1224 1945 1190 1945 1151 c 256
 1945 1112 1910 1077 1871 1077 c 256
 1832 1077 1798 1112 1798 1151 c 256
 1798 1190 1832 1224 1871 1224 c 256
1332 1670 m 257
 1021 1360 l 257
 581 1360 l 257
 581 921 l 257
 271 610 l 257
 581 299 l 257
 581 -140 l 257
 1021 -140 l 257
 1332 -450 l 257
 1642 -140 l 257
 2081 -140 l 257
 2081 299 l 257
 2392 610 l 257
 2081 921 l 257
 2081 1360 l 257
 1642 1360 l 257
 1332 1670 l 257
1331 1840 m 257
 1692 1480 l 257
 2201 1480 l 257
 2201 971 l 257
 2562 610 l 257
 2201 249 l 257
 2201 -260 l 257
 1692 -260 l 257
 1331 -620 l 257
 971 -260 l 257
 461 -260 l 257
 461 250 l 257
 101 610 l 257
 461 970 l 257
 461 1480 l 257
 971 1480 l 257
 1331 1840 l 257
EndSplineSet
Refer: 1700 57390 N 1 0 0 1 859 67 2
EndChar

StartChar: uni06DF
Encoding: 1759 1759 987
GlifName: uni06D_F_
Width: 0
VWidth: 0
GlyphClass: 2
Flags: H
LayerCount: 2
Fore
SplineSet
-82 1464 m 256
 -82 1509 -45 1545 0 1545 c 256
 45 1545 82 1509 82 1464 c 256
 82 1419 45 1382 0 1382 c 256
 -45 1382 -82 1419 -82 1464 c 256
EndSplineSet
EndChar

StartChar: uni06E0
Encoding: 1760 1760 988
GlifName: uni06E_0
Width: 0
VWidth: 0
GlyphClass: 2
Flags: H
LayerCount: 2
Fore
SplineSet
-82 1382 m 257
 -82 1545 l 257
 82 1545 l 257
 82 1382 l 257
 -82 1382 l 257
EndSplineSet
EndChar

StartChar: uni06E9
Encoding: 1769 1769 997
GlifName: uni06E_9
Width: 1236
VWidth: 0
GlyphClass: 2
Flags: HW
LayerCount: 2
Fore
SplineSet
335 78 m 257
 335 676 l 257
 90 956 l 257
 618 1439 l 257
 1146 956 l 257
 901 676 l 257
 901 78 l 257
 1077 78 l 257
 1077 0 l 257
 159 0 l 257
 159 78 l 257
 335 78 l 257
811 714 m 257
 1025 947 l 257
 618 1316 l 257
 211 947 l 257
 425 714 l 257
 425 78 l 257
 811 78 l 257
 811 714 l 257
660 918 m 257
 660 200 l 257
 576 200 l 257
 576 918 l 257
 660 918 l 257
EndSplineSet
EndChar

StartChar: uni06F0
Encoding: 1776 1776 1005
GlifName: uni06F_0
Width: 984
VWidth: 0
GlyphClass: 2
Flags: HW
LayerCount: 2
Fore
SplineSet
492 635 m 256
 416 635 381 587 381 525 c 256
 381 463 416 414 492 414 c 256
 568 414 602 463 602 525 c 256
 602 587 568 635 492 635 c 256
492 896 m 256
 714 896 864 732 864 525 c 256
 864 319 717 151 492 151 c 256
 267 151 120 320 120 525 c 256
 120 731 269 896 492 896 c 256
EndSplineSet
Substitution2: "'tnum' Tabular Numbers lookup 22 subtable" uni06F0.tnum
EndChar

StartChar: uni06F4
Encoding: 1780 1780 1010
GlifName: uni06F_4
Width: 1271
VWidth: 0
GlyphClass: 2
Flags: HW
LayerCount: 2
Fore
SplineSet
964 1510 m 256
 1046 1510 1134 1492 1228 1452 c 257
 1135 1128 l 257
 1077 1154 992 1172 914 1172 c 256
 788 1172 688 1104 687 992 c 257
 696 910 812 881 934 881 c 256
 1018 881 1105 894 1159 916 c 257
 1229 600 l 257
 1132 565 1036 548 946 548 c 256
 820 548 704 587 606 663 c 257
 648 393 652 268 652 0 c 257
 302 0 l 257
 302 540 229 936 62 1392 c 257
 406 1502 l 257
 447 1374 480 1273 532 1167 c 257
 583 1391 753 1510 964 1510 c 256
EndSplineSet
Substitution2: "'tnum' Tabular Numbers lookup 22 subtable" uni06F4.tnum
Substitution2: "'locl' Localized Forms in Arabic lookup 5 subtable" uni0664.urdu
EndChar

StartChar: uni06F5
Encoding: 1781 1781 1012
GlifName: uni06F_5
Width: 1385
VWidth: 0
GlyphClass: 2
Flags: HW
LayerCount: 2
Fore
SplineSet
704 130 m 257
 660 36 586 -10 450 -10 c 256
 238 -10 86 153 86 411 c 256
 86 681 216 935 502 1139 c 257
 480 1160 402 1222 376 1242 c 257
 566 1502 l 257
 648 1446 717 1394 805 1320 c 256
 1112 1059 1302 752 1302 442 c 256
 1302 148 1156 -10 948 -10 c 256
 828 -10 743 36 704 130 c 257
592 528 m 257
 804 528 l 257
 810 448 l 258
 814 376 841 340 900 340 c 256
 945 340 986 361 986 451 c 256
 986 579 907 750 696 939 c 257
 458 749 410 585 410 468 c 256
 410 367 449 340 502 340 c 256
 562 340 585 381 587 444 c 258
 592 528 l 257
EndSplineSet
Substitution2: "'tnum' Tabular Numbers lookup 22 subtable" uni06F5.tnum
EndChar

StartChar: uni06F6
Encoding: 1782 1782 1014
GlifName: uni06F_6
Width: 1207
VWidth: 0
GlyphClass: 2
Flags: HW
LayerCount: 2
Fore
SplineSet
438 584 m 257
 233 646 116 793 116 982 c 256
 116 1303 370 1494 634 1494 c 256
 784 1494 906 1449 1028 1365 c 257
 874 1092 l 257
 816 1130 744 1152 662 1152 c 256
 554 1152 452 1104 452 992 c 256
 452 900 555 856 677 856 c 256
 785 856 881 896 965 934 c 258
 1007 954 l 257
 1148 628 l 257
 1128 620 l 258
 801 496 632 292 360 -69 c 257
 82 143 l 257
 194 311 306 456 438 584 c 257
EndSplineSet
Substitution2: "'tnum' Tabular Numbers lookup 22 subtable" uni0666.tnum
Substitution2: "'locl' Localized Forms in Arabic lookup 5 subtable" uni0666
EndChar

StartChar: uni1D00
Encoding: 7424 7424 1327
GlifName: uni1D_00
Width: 1127
VWidth: 0
GlyphClass: 2
Flags: HW
LayerCount: 2
Fore
SplineSet
752 226 m 257
 382 226 l 257
 448 431 l 257
 688 431 l 257
 752 226 l 257
349 0 m 257
 -7 0 l 257
 360 1117 l 257
 760 1117 l 257
 1132 0 l 257
 776 0 l 257
 561 782 l 257
 349 0 l 257
EndSplineSet
EndChar

StartChar: uni1D01
Encoding: 7425 7425 1328
GlifName: uni1D_01
Width: 1426
VWidth: 0
GlyphClass: 2
Flags: HW
LayerCount: 2
Fore
SplineSet
464 431 m 257
 608 431 l 257
 608 781 l 257
 561 781 l 257
 464 431 l 257
349 0 m 257
 -7 0 l 257
 360 1117 l 257
 1372 1117 l 257
 1372 836 l 257
 957 836 l 257
 957 668 l 257
 1318 668 l 257
 1318 447 l 257
 957 447 l 257
 957 278 l 257
 1372 278 l 257
 1372 0 l 257
 608 0 l 257
 608 226 l 257
 410 226 l 257
 349 0 l 257
EndSplineSet
EndChar

StartChar: uni1D04
Encoding: 7428 7428 1329
GlifName: uni1D_04
Width: 1097
VWidth: 0
GlyphClass: 2
Flags: HW
LayerCount: 2
Fore
SplineSet
570 1127 m 256
 870 1127 1054 932 1059 686 c 257
 754 684 l 257
 734 790 673 850 579 850 c 256
 453 850 388 745 388 558 c 256
 388 372 452 266 575 266 c 256
 672 266 733 326 754 432 c 257
 1059 430 l 257
 1054 186 871 -11 575 -11 c 256
 247 -11 70 191 70 558 c 256
 70 925 248 1127 570 1127 c 256
EndSplineSet
EndChar

StartChar: uni1D05
Encoding: 7429 7429 1330
GlifName: uni1D_05
Width: 1157
VWidth: 0
GlyphClass: 2
Flags: HW
LayerCount: 2
Fore
SplineSet
110 1117 m 257
 576 1117 l 258
 924 1117 1076 888 1076 558 c 256
 1076 228 924 0 576 0 c 258
 110 0 l 257
 110 1117 l 257
458 881 m 257
 458 249 l 257
 540 249 l 258
 673 249 741 318 741 558 c 256
 741 797 673 881 540 881 c 258
 458 881 l 257
EndSplineSet
EndChar

StartChar: uni1D07
Encoding: 7431 7431 1331
GlifName: uni1D_07
Width: 927
VWidth: 0
GlyphClass: 2
Flags: HW
LayerCount: 2
Fore
SplineSet
873 278 m 257
 873 0 l 257
 110 0 l 257
 110 1117 l 257
 873 1117 l 257
 873 836 l 257
 458 836 l 257
 458 668 l 257
 819 668 l 257
 819 447 l 257
 458 447 l 257
 458 278 l 257
 873 278 l 257
EndSplineSet
EndChar

StartChar: uni1D0A
Encoding: 7434 7434 1332
GlifName: uni1D_0A_
Width: 772
VWidth: 0
GlyphClass: 2
Flags: HW
LayerCount: 2
Fore
SplineSet
38 40 m 257
 85 266 l 257
 125 255 166 252 198 252 c 256
 272 252 314 282 314 346 c 258
 314 1117 l 257
 662 1117 l 257
 662 306 l 258
 662 76 494 -11 302 -11 c 256
 212 -11 119 8 38 40 c 257
EndSplineSet
EndChar

StartChar: uni1D0B
Encoding: 7435 7435 1333
GlifName: uni1D_0B_
Width: 1175
VWidth: 0
GlyphClass: 2
Flags: HW
LayerCount: 2
Fore
SplineSet
110 1117 m 257
 458 1117 l 257
 458 750 l 257
 756 1117 l 257
 1160 1117 l 257
 717 554 l 257
 1161 0 l 257
 756 0 l 257
 516 311 l 257
 458 243 l 257
 458 0 l 257
 110 0 l 257
 110 1117 l 257
EndSplineSet
EndChar

StartChar: uni1D0D
Encoding: 7437 7437 1334
GlifName: uni1D_0D_
Width: 1572
VWidth: 0
GlyphClass: 2
Flags: HW
LayerCount: 2
Fore
SplineSet
458 0 m 257
 110 0 l 257
 110 1117 l 257
 511 1117 l 257
 781 346 l 257
 1058 1117 l 257
 1462 1117 l 257
 1462 0 l 257
 1113 0 l 257
 1113 582 l 257
 892 0 l 257
 670 0 l 257
 458 581 l 257
 458 0 l 257
EndSplineSet
EndChar

StartChar: uni1D0F
Encoding: 7439 7439 1335
GlifName: uni1D_0F_
Width: 1148
VWidth: 0
GlyphClass: 2
Flags: HW
LayerCount: 2
Fore
SplineSet
575 1127 m 256
 938 1127 1084 894 1084 558 c 256
 1084 222 936 -11 575 -11 c 256
 214 -11 64 222 64 558 c 256
 64 894 212 1127 575 1127 c 256
575 850 m 256
 458 850 382 762 382 558 c 256
 382 354 457 265 575 265 c 256
 693 265 767 354 767 558 c 256
 767 762 692 850 575 850 c 256
EndSplineSet
EndChar

StartChar: uni1D18
Encoding: 7448 7448 1336
GlifName: uni1D_18
Width: 1123
VWidth: 0
GlyphClass: 2
Flags: HW
LayerCount: 2
Fore
SplineSet
458 0 m 257
 110 0 l 257
 110 1117 l 257
 620 1117 l 258
 902 1117 1059 976 1059 741 c 256
 1059 504 900 363 620 363 c 258
 458 363 l 257
 458 0 l 257
458 881 m 257
 458 598 l 257
 559 598 l 258
 665 598 710 635 710 741 c 256
 710 847 663 881 559 881 c 258
 458 881 l 257
EndSplineSet
EndChar

StartChar: uni1D1B
Encoding: 7451 7451 1337
GlifName: uni1D_1B_
Width: 1060
VWidth: 0
GlyphClass: 2
Flags: HW
LayerCount: 2
Fore
SplineSet
706 0 m 257
 356 0 l 257
 356 818 l 257
 29 818 l 257
 29 1117 l 257
 1032 1117 l 257
 1032 818 l 257
 706 818 l 257
 706 0 l 257
EndSplineSet
EndChar

StartChar: uni1D1C
Encoding: 7452 7452 1338
GlifName: uni1D_1C_
Width: 1208
VWidth: 0
GlyphClass: 2
Flags: HW
LayerCount: 2
Fore
SplineSet
789 1117 m 257
 1114 1117 l 257
 1114 448 l 258
 1114 138 911 -8 604 -8 c 256
 297 -8 94 138 94 448 c 258
 94 1117 l 257
 418 1117 l 257
 418 475 l 258
 418 348 450 274 604 274 c 256
 758 274 789 348 789 475 c 258
 789 1117 l 257
EndSplineSet
EndChar

StartChar: uni1D20
Encoding: 7456 7456 1339
GlifName: uni1D_20
Width: 1125
VWidth: 0
GlyphClass: 2
Flags: HW
LayerCount: 2
Fore
SplineSet
349 1117 m 257
 564 336 l 257
 776 1117 l 257
 1132 1117 l 257
 765 0 l 257
 366 0 l 257
 -7 1117 l 257
 349 1117 l 257
EndSplineSet
EndChar

StartChar: uni1D21
Encoding: 7457 7457 1340
GlifName: uni1D_21
Width: 1659
VWidth: 0
GlyphClass: 2
Flags: HW
LayerCount: 2
Fore
SplineSet
24 1117 m 257
 350 1117 l 257
 506 432 l 257
 698 1117 l 257
 960 1117 l 257
 1154 432 l 257
 1308 1117 l 257
 1635 1117 l 257
 1367 0 l 257
 1016 0 l 257
 830 608 l 257
 642 0 l 257
 292 0 l 257
 24 1117 l 257
EndSplineSet
EndChar

StartChar: uni1D22
Encoding: 7458 7458 1341
GlifName: uni1D_22
Width: 1049
VWidth: 0
GlyphClass: 2
Flags: HW
LayerCount: 2
Fore
SplineSet
88 1117 m 257
 952 1117 l 257
 952 902 l 257
 480 296 l 257
 952 296 l 257
 952 0 l 257
 88 0 l 257
 88 215 l 257
 560 819 l 257
 88 819 l 257
 88 1117 l 257
EndSplineSet
EndChar

StartChar: uni1E9E
Encoding: 7838 7838 1495
GlifName: uni1E_9E_
Width: 1358
VWidth: 0
GlyphClass: 2
Flags: HW
LayerCount: 2
Fore
SplineSet
118 0 m 257
 118 1018 l 258
 118 1348 299 1580 657 1580 c 256
 937 1580 1170 1432 1170 1162 c 256
 1170 973 1082 880 942 838 c 257
 1152 792 1293 672 1293 394 c 256
 1293 114 1124 -10 882 -10 c 256
 638 -10 519 127 519 374 c 257
 725 374 l 257
 725 305 760 270 830 270 c 256
 917 270 948 345 948 436 c 256
 948 643 797 706 626 706 c 257
 626 982 l 257
 778 982 824 1056 824 1134 c 256
 824 1248 748 1292 658 1292 c 256
 522 1292 467 1192 467 1068 c 258
 467 0 l 257
 118 0 l 257
EndSplineSet
EndChar

StartChar: uni200C
Encoding: 8204 8204 1584
GlifName: uni200C_
Width: 0
VWidth: 0
GlyphClass: 2
Flags: H
LayerCount: 2
Fore
SplineSet
56 1366 m 257
 56 -291 l 257
 -56 -291 l 257
 -56 1366 l 257
 56 1366 l 257
EndSplineSet
EndChar

StartChar: uni200D
Encoding: 8205 8205 1585
GlifName: uni200D_
Width: 0
VWidth: 0
GlyphClass: 2
Flags: H
LayerCount: 2
Fore
SplineSet
166 -300 m 257
 44 -178 l 257
 125 -97 l 257
 246 -218 l 257
 166 -300 l 257
-125 -9 m 257
 -246 112 l 257
 -166 194 l 257
 -44 72 l 257
 -125 -9 l 257
246 112 m 257
 -166 -300 l 257
 -246 -218 l 257
 166 194 l 257
 246 112 l 257
166 1014 m 257
 44 1135 l 257
 125 1216 l 257
 246 1094 l 257
 166 1014 l 257
-125 1304 m 257
 -246 1426 l 257
 -166 1506 l 257
 -44 1385 l 257
 -125 1304 l 257
246 1426 m 257
 -166 1014 l 257
 -246 1094 l 257
 166 1506 l 257
 246 1426 l 257
-56 1024 m 257
 56 1024 l 257
 56 182 l 257
 -56 182 l 257
 -56 1024 l 257
EndSplineSet
EndChar

StartChar: uni200E
Encoding: 8206 8206 1586
GlifName: uni200E_
Width: 0
VWidth: 0
GlyphClass: 2
Flags: H
LayerCount: 2
Fore
SplineSet
300 1024 m 257
 220 1106 l 257
 385 1271 l 257
 220 1436 l 257
 300 1518 l 257
 547 1271 l 257
 300 1024 l 257
302 -308 m 257
 220 -228 l 257
 386 -62 l 257
 220 104 l 257
 302 184 l 257
 548 -62 l 257
 302 -308 l 257
56 49 m 258
 56 13 76 -6 112 -6 c 258
 230 -6 l 257
 230 -120 l 257
 112 -120 l 258
 16 -120 -56 -47 -56 49 c 258
 -56 1159 l 258
 -56 1255 16 1328 112 1328 c 258
 230 1328 l 257
 230 1214 l 257
 112 1214 l 258
 76 1214 56 1195 56 1159 c 258
 56 49 l 258
EndSplineSet
EndChar

StartChar: uni200F
Encoding: 8207 8207 1587
GlifName: uni200F_
Width: 0
VWidth: 0
GlyphClass: 2
Flags: H
LayerCount: 2
Fore
SplineSet
-300 1024 m 257
 -547 1271 l 257
 -300 1518 l 257
 -220 1436 l 257
 -385 1271 l 257
 -220 1106 l 257
 -300 1024 l 257
-302 -308 m 257
 -548 -62 l 257
 -302 184 l 257
 -220 104 l 257
 -386 -62 l 257
 -220 -228 l 257
 -302 -308 l 257
-56 49 m 258
 -56 1159 l 258
 -56 1195 -76 1214 -112 1214 c 258
 -230 1214 l 257
 -230 1328 l 257
 -112 1328 l 258
 -16 1328 56 1255 56 1159 c 258
 56 49 l 258
 56 -47 -16 -120 -112 -120 c 258
 -230 -120 l 257
 -230 -6 l 257
 -112 -6 l 258
 -76 -6 -56 13 -56 49 c 258
EndSplineSet
EndChar

StartChar: uni202A
Encoding: 8234 8234 1592
GlifName: uni202A_
Width: 0
VWidth: 0
GlyphClass: 2
Flags: H
LayerCount: 2
Fore
SplineSet
-58 976 m 257
 -139 1056 l 257
 26 1222 l 257
 -139 1388 l 257
 -58 1468 l 257
 188 1222 l 257
 -58 976 l 257
-62 858 m 257
 62 858 l 257
 62 48 l 257
 -62 48 l 257
 -62 858 l 257
EndSplineSet
EndChar

StartChar: uni202B
Encoding: 8235 8235 1593
GlifName: uni202B_
Width: 0
VWidth: 0
GlyphClass: 2
Flags: H
LayerCount: 2
Fore
SplineSet
58 976 m 257
 -188 1222 l 257
 58 1468 l 257
 139 1388 l 257
 -26 1222 l 257
 139 1056 l 257
 58 976 l 257
-62 858 m 257
 62 858 l 257
 62 48 l 257
 -62 48 l 257
 -62 858 l 257
EndSplineSet
EndChar

StartChar: uni202C
Encoding: 8236 8236 1594
GlifName: uni202C_
Width: 0
VWidth: 0
GlyphClass: 2
Flags: H
LayerCount: 2
Fore
SplineSet
-246 1140 m 257
 0 1386 l 257
 247 1140 l 257
 166 1060 l 257
 0 1224 l 257
 -165 1060 l 257
 -246 1140 l 257
-62 864 m 257
 62 864 l 257
 62 48 l 257
 -62 48 l 257
 -62 864 l 257
EndSplineSet
EndChar

StartChar: uni202D
Encoding: 8237 8237 1595
GlifName: uni202D_
Width: 0
VWidth: 0
GlyphClass: 2
Flags: H
LayerCount: 2
Fore
SplineSet
92 976 m 257
 12 1056 l 257
 177 1222 l 257
 12 1388 l 257
 92 1468 l 257
 338 1222 l 257
 92 976 l 257
-176 976 m 257
 -257 1056 l 257
 -91 1222 l 257
 -257 1388 l 257
 -176 1468 l 257
 70 1222 l 257
 -176 976 l 257
-62 858 m 257
 62 858 l 257
 62 48 l 257
 -62 48 l 257
 -62 858 l 257
EndSplineSet
EndChar

StartChar: uni202E
Encoding: 8238 8238 1596
GlifName: uni202E_
Width: 0
VWidth: 0
GlyphClass: 2
Flags: H
LayerCount: 2
Fore
SplineSet
-92 976 m 257
 -338 1222 l 257
 -92 1468 l 257
 -12 1388 l 257
 -177 1222 l 257
 -12 1056 l 257
 -92 976 l 257
176 976 m 257
 -70 1222 l 257
 176 1468 l 257
 257 1388 l 257
 91 1222 l 257
 257 1056 l 257
 176 976 l 257
-62 858 m 257
 62 858 l 257
 62 48 l 257
 -62 48 l 257
 -62 858 l 257
EndSplineSet
EndChar

StartChar: uni2035
Encoding: 8245 8245 1598
GlifName: uni2035
Width: 473
VWidth: 0
GlyphClass: 2
Flags: HW
LayerCount: 2
Fore
SplineSet
272 1484 m 257
 388 978 l 257
 240 978 l 257
 86 1484 l 257
 272 1484 l 257
EndSplineSet
EndChar

StartChar: uni2070
Encoding: 8304 8304 1601
GlifName: uni2070
Width: 733
VWidth: 0
GlyphClass: 2
Flags: HW
LayerCount: 2
Fore
SplineSet
368 1680 m 256
 293 1680 256 1636 256 1480 c 256
 256 1324 293 1278 368 1278 c 256
 443 1278 477 1324 477 1480 c 256
 477 1636 443 1680 368 1680 c 256
368 1834 m 256
 622 1834 644 1616 644 1480 c 256
 644 1344 622 1124 368 1124 c 256
 114 1124 89 1344 89 1480 c 256
 89 1616 114 1834 368 1834 c 256
EndSplineSet
EndChar

StartChar: uni2074
Encoding: 8308 8308 1602
GlifName: uni2074
Width: 750
VWidth: 0
GlyphClass: 2
Flags: HW
LayerCount: 2
Fore
SplineSet
399 1378 m 257
 399 1610 l 257
 228 1378 l 257
 399 1378 l 257
399 1250 m 257
 89 1250 l 257
 89 1374 l 257
 415 1823 l 257
 566 1823 l 257
 566 1378 l 257
 662 1378 l 257
 662 1250 l 257
 566 1250 l 257
 566 1134 l 257
 399 1134 l 257
 399 1250 l 257
EndSplineSet
EndChar

StartChar: uni2075
Encoding: 8309 8309 1603
GlifName: uni2075
Width: 672
VWidth: 0
GlyphClass: 2
Flags: HW
LayerCount: 2
Fore
SplineSet
89 1351 m 257
 254 1351 l 257
 254 1292 274 1264 332 1264 c 256
 398 1264 420 1296 420 1378 c 256
 420 1453 382 1478 320 1478 c 256
 268 1478 228 1442 196 1407 c 257
 92 1466 l 257
 126 1823 l 257
 569 1823 l 257
 569 1690 l 257
 265 1690 l 257
 254 1589 l 257
 290 1603 329 1611 364 1611 c 256
 494 1611 584 1531 584 1392 c 256
 584 1218 492 1124 322 1124 c 256
 170 1124 89 1207 89 1351 c 257
EndSplineSet
EndChar

StartChar: uni2076
Encoding: 8310 8310 1604
GlifName: uni2076
Width: 673
VWidth: 0
GlyphClass: 2
Flags: HW
LayerCount: 2
Fore
SplineSet
357 1833 m 256
 479 1833 578 1764 578 1630 c 257
 440 1630 l 257
 440 1672 412 1694 352 1694 c 256
 280 1694 246 1649 246 1556 c 257
 287 1592 323 1600 376 1600 c 256
 494 1600 584 1513 584 1377 c 256
 584 1229 495 1124 341 1124 c 256
 151 1124 89 1252 89 1456 c 256
 89 1710 185 1833 357 1833 c 256
341 1454 m 256
 314 1454 279 1447 250 1424 c 257
 250 1301 281 1268 338 1268 c 256
 384 1268 420 1301 420 1364 c 256
 420 1424 387 1454 341 1454 c 256
EndSplineSet
EndChar

StartChar: uni2077
Encoding: 8311 8311 1605
GlifName: uni2077
Width: 659
VWidth: 0
GlyphClass: 2
Flags: HW
LayerCount: 2
Fore
SplineSet
570 1680 m 257
 418 1520 338 1351 338 1134 c 257
 178 1134 l 257
 178 1334 253 1528 377 1676 c 257
 89 1676 l 257
 89 1823 l 257
 542 1823 l 257
 570 1680 l 257
EndSplineSet
EndChar

StartChar: uni2078
Encoding: 8312 8312 1606
GlifName: uni2078
Width: 683
VWidth: 0
GlyphClass: 2
Flags: HW
LayerCount: 2
Fore
SplineSet
342 1833 m 256
 487 1833 574 1742 574 1643 c 256
 574 1589 547 1535 495 1496 c 257
 561 1450 594 1386 594 1324 c 256
 594 1219 504 1124 342 1124 c 256
 180 1124 89 1219 89 1324 c 256
 89 1386 122 1450 188 1496 c 257
 136 1535 110 1589 110 1643 c 256
 110 1742 196 1833 342 1833 c 256
342 1702 m 256
 300 1702 274 1677 274 1629 c 256
 274 1581 300 1553 342 1553 c 256
 384 1553 408 1581 408 1629 c 256
 408 1677 384 1702 342 1702 c 256
340 1428 m 256
 290 1428 259 1397 259 1347 c 256
 259 1295 291 1264 342 1264 c 256
 392 1264 422 1293 422 1345 c 256
 422 1397 392 1428 340 1428 c 256
EndSplineSet
EndChar

StartChar: uni2079
Encoding: 8313 8313 1607
GlifName: uni2079
Width: 673
VWidth: 0
GlyphClass: 2
Flags: HW
LayerCount: 2
Fore
SplineSet
422 1534 m 257
 422 1657 391 1690 334 1690 c 256
 288 1690 254 1656 254 1593 c 256
 254 1533 286 1504 332 1504 c 256
 359 1504 393 1511 422 1534 c 257
427 1402 m 257
 386 1366 350 1357 297 1357 c 256
 179 1357 89 1444 89 1580 c 256
 89 1728 178 1833 332 1833 c 256
 522 1833 584 1704 584 1500 c 256
 584 1246 488 1124 316 1124 c 256
 194 1124 94 1194 94 1328 c 257
 234 1328 l 257
 234 1286 262 1263 322 1263 c 256
 394 1263 427 1309 427 1402 c 257
EndSplineSet
EndChar

StartChar: uni2196
Encoding: 8598 8598 1629
GlifName: uni2196
Width: 1329
VWidth: 0
GlyphClass: 2
Flags: HW
LayerCount: 2
Fore
SplineSet
1063 42 m 257
 354 751 l 257
 316 812 l 257
 316 366 l 257
 150 366 l 257
 150 1071 l 257
 854 1071 l 257
 854 904 l 257
 408 904 l 257
 470 866 l 257
 1180 158 l 257
 1063 42 l 257
EndSplineSet
EndChar

StartChar: uni2197
Encoding: 8599 8599 1630
GlifName: uni2197
Width: 1329
VWidth: 0
GlyphClass: 2
Flags: HW
LayerCount: 2
Fore
SplineSet
150 158 m 257
 860 866 l 257
 921 904 l 257
 475 904 l 257
 475 1071 l 257
 1180 1071 l 257
 1180 366 l 257
 1014 366 l 257
 1014 812 l 257
 975 751 l 257
 266 42 l 257
 150 158 l 257
EndSplineSet
EndChar

StartChar: uni2198
Encoding: 8600 8600 1631
GlifName: uni2198
Width: 1329
VWidth: 0
GlyphClass: 2
Flags: HW
LayerCount: 2
Fore
SplineSet
266 1071 m 257
 975 362 l 257
 1014 300 l 257
 1014 746 l 257
 1180 746 l 257
 1180 42 l 257
 475 42 l 257
 475 208 l 257
 921 208 l 257
 860 246 l 257
 150 954 l 257
 266 1071 l 257
EndSplineSet
EndChar

StartChar: uni2199
Encoding: 8601 8601 1632
GlifName: uni2199
Width: 1329
VWidth: 0
GlyphClass: 2
Flags: HW
LayerCount: 2
Fore
SplineSet
1180 954 m 257
 470 246 l 257
 408 208 l 257
 854 208 l 257
 854 42 l 257
 150 42 l 257
 150 746 l 257
 316 746 l 257
 316 300 l 257
 354 362 l 257
 1063 1071 l 257
 1180 954 l 257
EndSplineSet
EndChar

StartChar: uni220E
Encoding: 8718 8718 1633
GlifName: uni220E_
Width: 1095
VWidth: 0
GlyphClass: 2
Flags: HW
LayerCount: 2
Fore
SplineSet
160 1232 m 257
 938 1232 l 257
 938 0 l 257
 160 0 l 257
 160 1232 l 257
EndSplineSet
EndChar

StartChar: uni25CC
Encoding: 9676 9676 1634
GlifName: uni25C_C_
Width: 1702
VWidth: 0
GlyphClass: 2
Flags: HW
LayerCount: 2
Fore
SplineSet
776 91 m 256
 776 147 795 166 851 166 c 256
 907 166 926 147 926 91 c 256
 926 35 907 16 851 16 c 256
 795 16 776 35 776 91 c 256
776 1447 m 256
 776 1503 795 1522 851 1522 c 256
 907 1522 926 1503 926 1447 c 256
 926 1391 907 1372 851 1372 c 256
 795 1372 776 1391 776 1447 c 256
1529 694 m 256
 1473 694 1454 713 1454 769 c 256
 1454 825 1473 844 1529 844 c 256
 1585 844 1604 825 1604 769 c 256
 1604 713 1585 694 1529 694 c 256
173 694 m 256
 117 694 98 713 98 769 c 256
 98 825 117 844 173 844 c 256
 229 844 248 825 248 769 c 256
 248 713 229 694 173 694 c 256
1254 290 m 256
 1254 346 1274 366 1330 366 c 256
 1386 366 1406 346 1406 290 c 256
 1406 234 1386 214 1330 214 c 256
 1274 214 1254 234 1254 290 c 256
296 1248 m 256
 296 1304 316 1324 372 1324 c 256
 428 1324 448 1304 448 1248 c 256
 448 1192 428 1172 372 1172 c 256
 316 1172 296 1192 296 1248 c 256
1330 1172 m 256
 1274 1172 1254 1192 1254 1248 c 256
 1254 1304 1274 1324 1330 1324 c 256
 1386 1324 1406 1304 1406 1248 c 256
 1406 1192 1386 1172 1330 1172 c 256
372 214 m 256
 316 214 296 234 296 290 c 256
 296 346 316 366 372 366 c 256
 428 366 448 346 448 290 c 256
 448 234 428 214 372 214 c 256
516 143 m 256
 516 199 536 218 592 218 c 256
 648 218 668 199 668 143 c 256
 668 87 648 66 592 66 c 256
 536 66 516 87 516 143 c 256
1110 1472 m 256
 1166 1472 1186 1451 1186 1395 c 256
 1186 1339 1166 1320 1110 1320 c 256
 1054 1320 1034 1339 1034 1395 c 256
 1034 1451 1054 1472 1110 1472 c 256
1477 434 m 256
 1421 434 1402 454 1402 510 c 256
 1402 566 1421 586 1477 586 c 256
 1533 586 1554 566 1554 510 c 256
 1554 454 1533 434 1477 434 c 256
148 1028 m 256
 148 1084 169 1104 225 1104 c 256
 281 1104 300 1084 300 1028 c 256
 300 972 281 952 225 952 c 256
 169 952 148 972 148 1028 c 256
1034 143 m 256
 1034 199 1054 218 1110 218 c 256
 1166 218 1186 199 1186 143 c 256
 1186 87 1166 66 1110 66 c 256
 1054 66 1034 87 1034 143 c 256
516 1395 m 256
 516 1451 536 1472 592 1472 c 256
 648 1472 668 1451 668 1395 c 256
 668 1339 648 1320 592 1320 c 256
 536 1320 516 1339 516 1395 c 256
1477 952 m 256
 1421 952 1402 972 1402 1028 c 256
 1402 1084 1421 1104 1477 1104 c 256
 1533 1104 1554 1084 1554 1028 c 256
 1554 972 1533 952 1477 952 c 256
225 434 m 256
 169 434 148 454 148 510 c 256
 148 566 169 586 225 586 c 256
 281 586 300 566 300 510 c 256
 300 454 281 434 225 434 c 256
EndSplineSet
EndChar

StartChar: uniA729
Encoding: 42793 42793 1636
GlifName: uniA_729
Width: 1934
VWidth: 0
GlyphClass: 2
Flags: HW
LayerCount: 2
Fore
SplineSet
754 266 m 257
 803 40 l 257
 722 8 628 -11 538 -11 c 256
 346 -11 176 76 176 306 c 258
 176 1406 l 257
 525 1406 l 257
 525 346 l 258
 525 282 569 252 643 252 c 256
 675 252 714 255 754 266 c 257
EndSplineSet
Refer: 1669 57354 N 1 0 0 1 -24 388 2
Refer: 560 658 N 1 0 0 1 751 0 2
EndChar

StartChar: uniA730
Encoding: 42800 42800 1637
GlifName: uniA_730
Width: 919
VWidth: 0
GlyphClass: 2
Flags: HW
LayerCount: 2
Fore
SplineSet
110 0 m 257
 110 1117 l 257
 873 1117 l 257
 873 836 l 257
 458 836 l 257
 458 620 l 257
 819 620 l 257
 819 400 l 257
 458 400 l 257
 458 0 l 257
 110 0 l 257
EndSplineSet
EndChar

StartChar: uniA731
Encoding: 42801 42801 1638
GlifName: uniA_731
Width: 1002
VWidth: 0
GlyphClass: 2
Flags: HW
LayerCount: 2
Fore
SplineSet
64 382 m 257
 366 382 l 257
 366 291 413 260 515 260 c 256
 580 260 635 278 635 330 c 256
 635 390 560 411 454 442 c 256
 294 488 90 549 90 782 c 256
 90 998 261 1127 481 1127 c 256
 740 1127 925 1002 925 756 c 257
 622 758 l 257
 622 822 572 856 504 856 c 256
 434 856 394 832 394 782 c 256
 394 728 464 707 564 679 c 256
 728 635 938 572 938 335 c 256
 938 107 753 -10 526 -10 c 256
 250 -10 64 112 64 382 c 257
EndSplineSet
EndChar

StartChar: uniA733
Encoding: 42803 42803 1640
GlifName: uniA_733
Width: 1809
VWidth: 0
GlyphClass: 2
Flags: HW
LayerCount: 2
Fore
SplineSet
564 1128 m 256
 894 1128 1050 964 1050 738 c 258
 1050 306 l 257
 702 310 l 257
 702 738 l 258
 702 819 654 857 546 857 c 256
 438 857 390 821 390 738 c 257
 94 738 l 257
 78 976 238 1128 564 1128 c 256
1226 1128 m 256
 1556 1128 1714 964 1714 738 c 258
 1714 301 l 258
 1714 239 1735 208 1801 208 c 257
 1801 -1 l 257
 1561 -41 1366 39 1366 304 c 258
 1366 738 l 258
 1366 819 1316 857 1208 857 c 256
 1100 857 1050 821 1050 738 c 257
 754 738 l 257
 738 976 900 1128 1226 1128 c 256
EndSplineSet
Refer: 1670 57355 N 1 0 0 1 676 0 2
Refer: 1670 57355 N 1 0 0 1 -12 0 2
EndChar

StartChar: uniA735
Encoding: 42805 42805 1642
GlifName: uniA_735
Width: 1831
VWidth: 0
GlyphClass: 2
Flags: HW
LayerCount: 2
Fore
SplineSet
701 308 m 257
 701 738 l 258
 701 819 654 857 546 857 c 256
 438 857 390 821 390 738 c 257
 94 738 l 257
 78 976 237 1128 563 1128 c 256
 893 1128 1050 964 1050 738 c 258
 1050 305 l 257
 701 308 l 257
72 293 m 256
 72 541 298 646 528 646 c 258
 1012 646 l 257
 1012 458 l 257
 552 458 l 258
 463 458 378 420 378 336 c 256
 378 288 410 245 494 245 c 256
 596 245 664 293 703 340 c 257
 804 336 l 257
 758 204 668 -20 380 -20 c 256
 176 -20 72 98 72 293 c 256
EndSplineSet
Refer: 324 111 N 1 0 0 1 637 0 2
EndChar

StartChar: uniA736
Encoding: 42806 42806 1643
GlifName: uniA_736
Width: 2194
VWidth: 0
GlyphClass: 2
Flags: HW
LayerCount: 2
Fore
SplineSet
1718 1493 m 257
 2068 1493 l 257
 2068 608 l 258
 2068 230 1854 0 1445 0 c 257
 1310 316 l 257
 1445 316 l 258
 1653 316 1718 438 1718 609 c 258
 1718 1493 l 257
EndSplineSet
Refer: 0 65 N 1 0 0 1 0 0 2
EndChar

StartChar: uniA737
Encoding: 42807 42807 1644
GlifName: uniA_737
Width: 1834
VWidth: 0
GlyphClass: 2
Flags: HW
LayerCount: 2
Fore
SplineSet
94 738 m 257
 78 976 237 1128 563 1128 c 256
 893 1128 1050 964 1050 738 c 258
 1050 480 l 258
 1050 402 1104 338 1206 338 c 256
 1314 338 1373 410 1377 496 c 257
 1424 362 l 257
 1419 154 1285 -10 1056 -10 c 256
 833 -10 701 149 701 352 c 258
 701 738 l 258
 701 819 654 857 546 857 c 256
 438 857 390 821 390 738 c 257
 94 738 l 257
1377 1117 m 257
 1726 1117 l 257
 1726 0 l 257
 1394 0 l 257
 1377 258 l 257
 1377 1117 l 257
1010 646 m 257
 1010 458 l 257
 552 458 l 258
 463 458 378 420 378 336 c 256
 378 288 410 245 494 245 c 256
 596 245 664 293 703 340 c 257
 804 336 l 257
 758 204 668 -20 380 -20 c 256
 176 -20 72 98 72 293 c 256
 72 541 298 646 528 646 c 258
 1010 646 l 257
EndSplineSet
EndChar

StartChar: uniA738
Encoding: 42808 42808 1645
GlifName: uniA_738
Width: 1980
VWidth: 0
GlyphClass: 2
Flags: HW
LayerCount: 2
Fore
SplineSet
561 597 m 257
 880 597 l 257
 721 1078 l 257
 561 597 l 257
474 326 m 257
 366 0 l 257
 -7 0 l 257
 532 1484 l 257
 908 1484 l 257
 1262 404 l 257
 1614 1484 l 257
 1988 1484 l 257
 1450 0 l 257
 1072 0 l 257
 966 326 l 257
 474 326 l 257
EndSplineSet
EndChar

StartChar: uniA739
Encoding: 42809 42809 1646
GlifName: uniA_739
Width: 1762
VWidth: 0
GlyphClass: 2
Flags: HW
LayerCount: 2
Fore
SplineSet
94 738 m 257
 78 976 237 1128 563 1128 c 256
 833 1128 979 1016 1028 853 c 258
 1176 380 l 257
 1397 1117 l 257
 1770 1117 l 257
 1377 0 l 257
 976 0 l 257
 700 774 l 258
 678 836 626 857 546 857 c 256
 438 857 390 821 390 738 c 257
 94 738 l 257
827 646 m 257
 827 458 l 257
 552 458 l 258
 463 458 378 420 378 336 c 256
 378 288 410 245 494 245 c 256
 596 245 664 293 703 340 c 257
 804 336 l 257
 758 204 668 -20 380 -20 c 256
 176 -20 72 98 72 293 c 256
 72 541 298 646 528 646 c 258
 827 646 l 257
EndSplineSet
EndChar

StartChar: uniA73A
Encoding: 42810 42810 1647
GlifName: uniA_73A_
Width: 1980
VWidth: 0
GlyphClass: 2
Flags: HW
LayerCount: 2
Fore
SplineSet
952 1157 m 257
 1579 1157 l 257
 1579 886 l 257
 952 886 l 257
 952 1157 l 257
561 597 m 257
 880 597 l 257
 721 1078 l 257
 561 597 l 257
474 326 m 257
 366 0 l 257
 -7 0 l 257
 532 1484 l 257
 908 1484 l 257
 1262 404 l 257
 1614 1484 l 257
 1988 1484 l 257
 1450 0 l 257
 1072 0 l 257
 966 326 l 257
 474 326 l 257
EndSplineSet
EndChar

StartChar: uniA73B
Encoding: 42811 42811 1648
GlifName: uniA_73B_
Width: 1762
VWidth: 0
GlyphClass: 2
Flags: HW
LayerCount: 2
Fore
SplineSet
967 914 m 257
 1343 914 l 257
 1343 727 l 257
 1026 727 l 257
 967 914 l 257
94 738 m 257
 78 976 237 1128 563 1128 c 256
 833 1128 979 1016 1028 853 c 258
 1176 380 l 257
 1397 1117 l 257
 1770 1117 l 257
 1377 0 l 257
 976 0 l 257
 700 774 l 258
 678 836 626 857 546 857 c 256
 438 857 390 821 390 738 c 257
 94 738 l 257
827 646 m 257
 827 458 l 257
 552 458 l 258
 463 458 378 420 378 336 c 256
 378 288 410 245 494 245 c 256
 596 245 664 293 703 340 c 257
 804 336 l 257
 758 204 668 -20 380 -20 c 256
 176 -20 72 98 72 293 c 256
 72 541 298 646 528 646 c 258
 827 646 l 257
EndSplineSet
EndChar

StartChar: uniA73C
Encoding: 42812 42812 1649
GlifName: uniA_73C_
Width: 1974
VWidth: 0
GlyphClass: 2
Flags: HW
LayerCount: 2
Fore
SplineSet
747 1161 m 257
 561 597 l 257
 1090 597 l 257
 1090 644 l 257
 747 1161 l 257
532 1484 m 257
 940 1484 l 257
 1265 930 l 257
 1588 1484 l 257
 1992 1484 l 257
 1440 644 l 257
 1440 0 l 257
 1090 0 l 257
 1090 326 l 257
 474 326 l 257
 366 0 l 257
 -7 0 l 257
 532 1484 l 257
EndSplineSet
EndChar

StartChar: uniA73D
Encoding: 42813 42813 1650
GlifName: uniA_73D_
Width: 1762
VWidth: 0
GlyphClass: 2
Flags: HW
LayerCount: 2
Fore
SplineSet
94 738 m 257
 78 976 237 1128 563 1128 c 256
 833 1128 979 1016 1028 853 c 258
 1176 380 l 257
 1397 1117 l 257
 1770 1117 l 257
 1212 -463 l 257
 818 -463 l 257
 1005 -6 l 257
 700 774 l 258
 678 836 626 857 546 857 c 256
 438 857 390 821 390 738 c 257
 94 738 l 257
827 646 m 257
 827 458 l 257
 552 458 l 258
 463 458 378 420 378 336 c 256
 378 288 410 245 494 245 c 256
 596 245 664 293 703 340 c 257
 804 336 l 257
 758 204 668 -20 380 -20 c 256
 176 -20 72 98 72 293 c 256
 72 541 298 646 528 646 c 258
 827 646 l 257
EndSplineSet
EndChar

StartChar: uniA760
Encoding: 42848 42848 1653
GlifName: uniA_760
Width: 2512
VWidth: 0
GlyphClass: 2
Flags: HW
LayerCount: 2
Fore
SplineSet
2126 1484 m 257
 2530 1484 l 257
 1978 644 l 257
 1978 0 l 257
 1628 0 l 257
 1628 644 l 257
 1314 1118 l 257
 908 0 l 257
 530 0 l 257
 -7 1484 l 257
 366 1484 l 257
 719 404 l 257
 1072 1484 l 257
 1479 1484 l 257
 1803 930 l 257
 2126 1484 l 257
EndSplineSet
EndChar

StartChar: uniA761
Encoding: 42849 42849 1654
GlifName: uniA_761
Width: 1999
VWidth: 0
GlyphClass: 2
Flags: HW
LayerCount: 2
Fore
SplineSet
1188 1117 m 257
 1412 380 l 257
 1634 1117 l 257
 2007 1117 l 257
 1448 -463 l 257
 1054 -463 l 257
 1242 -6 l 257
 1008 606 l 257
 793 0 l 257
 392 0 l 257
 -8 1117 l 257
 366 1117 l 257
 592 380 l 257
 813 1117 l 257
 1188 1117 l 257
EndSplineSet
EndChar

StartChar: uniAB50
Encoding: 43856 43856 1657
GlifName: uniA_B_50
Width: 1925
VWidth: 0
GlyphClass: 2
Flags: HW
LayerCount: 2
Fore
SplineSet
792 626 m 257
 1141 626 l 257
 1141 480 l 258
 1141 402 1196 338 1298 338 c 256
 1406 338 1464 410 1468 496 c 257
 1515 362 l 257
 1510 154 1375 -10 1146 -10 c 256
 923 -10 792 149 792 352 c 258
 792 626 l 257
1468 1117 m 257
 1816 1117 l 257
 1816 0 l 257
 1485 0 l 257
 1468 258 l 257
 1468 1117 l 257
EndSplineSet
Refer: 1672 57357 N -1 0 0 -1 1185 1118 2
Refer: 357 46 N 1 0 0 1 674 792 2
EndChar

StartChar: uniAB5B
Encoding: 43867 43867 1658
GlifName: uniA_B_5B_
Width: 764
VWidth: 0
GlyphClass: 2
Flags: HW
LayerCount: 2
Fore
SplineSet
382 1454 m 256
 582 1454 693 1326 693 1134 c 257
 540 1134 l 257
 540 1244 484 1302 382 1302 c 256
 280 1302 224 1244 224 1134 c 257
 71 1134 l 257
 71 1326 182 1454 382 1454 c 256
EndSplineSet
EndChar

StartChar: uniE000
Encoding: 57344 57344 1659
GlifName: uniE_000
Width: 102
VWidth: 0
GlyphClass: 2
Flags: HW
LayerCount: 2
Fore
SplineSet
0 349 m 258
 104 349 l 257
 104 0 l 257
 0 0 l 258
 -96 0 -175 79 -175 175 c 256
 -175 271 -96 349 0 349 c 258
EndSplineSet
EndChar

StartChar: uniE001
Encoding: 57345 57345 1660
GlifName: uniE_001
Width: 317
VWidth: 0
GlyphClass: 2
Flags: HW
LayerCount: 2
Fore
SplineSet
0 349 m 258
 318 349 l 257
 318 0 l 257
 0 0 l 258
 -96 0 -175 79 -175 175 c 256
 -175 271 -96 349 0 349 c 258
EndSplineSet
EndChar

StartChar: uniE002
Encoding: 57346 57346 1661
GlifName: uniE_002
Width: 443
VWidth: 0
GlyphClass: 2
Flags: HW
LayerCount: 2
Fore
SplineSet
0 349 m 258
 446 349 l 257
 446 0 l 257
 0 0 l 258
 -96 0 -175 79 -175 175 c 256
 -175 271 -96 349 0 349 c 258
EndSplineSet
EndChar

StartChar: uniE003
Encoding: 57347 57347 1662
GlifName: uniE_003
Width: 1885
VWidth: 0
GlyphClass: 2
Flags: HW
LayerCount: 2
Fore
SplineSet
1473 1492 m 257
 1640 1317 l 257
 218 -22 l 257
 51 153 l 257
 1473 1492 l 257
EndSplineSet
EndChar

StartChar: uniE004
Encoding: 57348 57348 1663
GlifName: uniE_004
Width: 1146
VWidth: 0
GlyphClass: 2
Flags: HW
LayerCount: 2
Fore
SplineSet
120 -125 m 257
 -47 1 l 257
 884 1214 l 257
 1051 1089 l 257
 120 -125 l 257
EndSplineSet
EndChar

StartChar: uniE005
Encoding: 57349 57349 1664
GlifName: uniE_005
Width: 1515
VWidth: 0
GlyphClass: 2
Flags: HW
LayerCount: 2
Fore
SplineSet
1335 -135 m 257
 998 -135 l 257
 680 474 l 257
 882 590 l 257
 1335 -135 l 257
EndSplineSet
EndChar

StartChar: uniE006
Encoding: 57350 57350 1665
GlifName: uniE_006
Width: 1442
VWidth: 0
GlyphClass: 2
Flags: HW
LayerCount: 2
Fore
SplineSet
324 132 m 257
 324 330 l 257
 1118 330 l 257
 1118 132 l 257
 324 132 l 257
324 412 m 257
 324 612 l 257
 1118 612 l 257
 1118 412 l 257
 324 412 l 257
EndSplineSet
EndChar

StartChar: uniE007
Encoding: 57351 57351 1666
GlifName: uniE_007
Width: 923
VWidth: 0
GlyphClass: 2
Flags: HW
LayerCount: 2
Fore
SplineSet
332 1239 m 256
 285 1239 239 1243 194 1255 c 257
 234 1392 l 257
 265 1384 318 1376 371 1376 c 256
 442 1376 509 1390 509 1435 c 256
 509 1457 482 1465 435 1472 c 256
 349 1486 261 1518 261 1632 c 256
 261 1769 349 1863 482 1863 c 256
 527 1863 575 1851 622 1829 c 257
 580 1722 l 257
 555 1733 525 1740 493 1740 c 256
 435 1740 384 1716 384 1654 c 256
 384 1613 431 1605 477 1598 c 256
 563 1583 631 1552 631 1444 c 256
 631 1304 486 1239 332 1239 c 256
EndSplineSet
EndChar

StartChar: uniE008
Encoding: 57352 57352 1667
GlifName: uniE_008
Width: 933
VWidth: 0
GlyphClass: 2
Flags: HW
LayerCount: 2
Fore
SplineSet
514 1310 m 256
 514 1366 477 1408 420 1408 c 256
 363 1408 328 1366 328 1310 c 256
 328 1254 364 1210 420 1210 c 256
 476 1210 514 1254 514 1310 c 256
747 1310 m 256
 747 1138 622 975 420 975 c 256
 218 975 93 1138 93 1310 c 256
 93 1482 218 1644 420 1644 c 256
 622 1644 747 1482 747 1310 c 256
EndSplineSet
EndChar

StartChar: uniE009
Encoding: 57353 57353 1668
GlifName: uniE_009
Width: 1225
VWidth: 0
GlyphClass: 2
Flags: HW
LayerCount: 2
Fore
SplineSet
551 1671 m 257
 696 1671 l 257
 696 -190 l 257
 551 -190 l 257
 551 1671 l 257
EndSplineSet
EndChar

StartChar: uniE00A
Encoding: 57354 57354 1669
GlifName: uniE_00A_
Width: 1300
VWidth: 0
GlyphClass: 2
Flags: HW
LayerCount: 2
Fore
SplineSet
71 522 m 257
 71 734 l 257
 801 734 l 257
 801 522 l 257
 71 522 l 257
EndSplineSet
EndChar

StartChar: uniE00B
Encoding: 57355 57355 1670
GlifName: uniE_00B_
Width: 1185
VWidth: 0
GlyphClass: 2
Flags: HW
LayerCount: 2
Fore
SplineSet
827 328 m 257
 767 130 651 -11 403 -11 c 256
 208 -11 84 102 84 296 c 256
 84 544 305 674 539 674 c 256
 657 674 752 651 844 624 c 257
 732 458 l 257
 688 469 640 474 595 474 c 256
 475 474 390 427 390 349 c 256
 390 291 431 253 511 253 c 256
 608 253 683 306 721 348 c 257
 827 328 l 257
EndSplineSet
EndChar

StartChar: uniE00C
Encoding: 57356 57356 1671
GlifName: uniE_00C_
Width: 1646
VWidth: 0
GlyphClass: 2
Flags: HW
LayerCount: 2
Fore
SplineSet
1658 756 m 258
 1658 0 l 257
 1310 0 l 257
 1310 654 l 258
 1310 731 1261 780 1168 780 c 256
 1064 780 1003 720 990 622 c 257
 944 756 l 257
 950 974 1084 1128 1298 1128 c 256
 1516 1128 1658 968 1658 756 c 258
EndSplineSet
EndChar

StartChar: uniE00D
Encoding: 57357 57357 1672
GlifName: uniE_00D_
Width: 1102
VWidth: 0
GlyphClass: 2
Flags: HW
LayerCount: 2
Fore
SplineSet
1068 756 m 258
 1068 0 l 257
 720 0 l 257
 720 654 l 258
 720 731 668 780 575 780 c 256
 471 780 406 720 393 622 c 257
 346 756 l 257
 352 974 491 1128 705 1128 c 256
 923 1128 1068 968 1068 756 c 258
EndSplineSet
EndChar

StartChar: uniE00E
Encoding: 57358 57358 1673
GlifName: uniE_00E_
Width: 850
VWidth: 0
GlyphClass: 2
Flags: HW
LayerCount: 2
Fore
SplineSet
886 806 m 257
 864 811 838 813 814 813 c 256
 610 813 477 628 473 400 c 257
 385 406 l 257
 390 748 481 1130 839 1130 c 256
 855 1130 872 1128 888 1126 c 257
 886 806 l 257
EndSplineSet
EndChar

StartChar: uniE00F
Encoding: 57359 57359 1674
GlifName: uniE_00F_
Width: 1191
VWidth: 0
GlyphClass: 2
Flags: HW
LayerCount: 2
Fore
SplineSet
1072 559 m 256
 1072 249 948 -10 676 -10 c 256
 500 -10 386 95 300 262 c 257
 393 358 l 257
 433 295 487 267 547 267 c 256
 647 267 724 369 724 559 c 256
 724 749 647 849 547 849 c 256
 487 849 433 822 393 759 c 257
 300 854 l 257
 386 1021 500 1126 676 1126 c 256
 948 1126 1072 869 1072 559 c 256
EndSplineSet
EndChar

StartChar: uniE010
Encoding: 57360 57360 1675
GlifName: uniE_010
Width: 1564
VWidth: 0
GlyphClass: 2
Flags: HW
LayerCount: 2
Fore
SplineSet
1395 -228 m 257
 1027 -228 l 257
 866 110 l 257
 1088 243 l 257
 1395 -228 l 257
EndSplineSet
EndChar

StartChar: uniE011
Encoding: 57361 57361 1676
GlifName: uniE_011
Width: 1148
VWidth: 0
GlyphClass: 2
Flags: HW
LayerCount: 2
Fore
SplineSet
410 1532 m 257
 760 1532 l 257
 760 905 l 257
 410 905 l 257
 410 1532 l 257
410 168 m 257
 760 168 l 257
 760 -458 l 257
 410 -458 l 257
 410 168 l 257
EndSplineSet
EndChar

StartChar: uniE012
Encoding: 57362 57362 1677
GlifName: uniE_012
Width: 1664
VWidth: 0
GlyphClass: 2
Flags: HW
LayerCount: 2
Fore
SplineSet
1168 1220 m 257
 1460 1492 l 257
 1628 1317 l 257
 1240 958 l 257
 1168 1220 l 257
439 196 m 257
 206 -22 l 257
 38 153 l 257
 346 440 l 257
 439 196 l 257
EndSplineSet
EndChar

StartChar: uniE013
Encoding: 57363 57363 1678
GlifName: uniE_013
Width: 1168
VWidth: 0
GlyphClass: 2
Flags: HW
LayerCount: 2
Fore
SplineSet
776 950 m 257
 979 1214 l 257
 1146 1089 l 257
 913 785 l 257
 776 950 l 257
424 146 m 257
 216 -125 l 257
 48 1 l 257
 300 328 l 257
 424 146 l 257
EndSplineSet
EndChar

StartChar: uniE014
Encoding: 57364 57364 1679
GlifName: uniE_014
Width: 1442
VWidth: 0
GlyphClass: 2
Flags: HW
LayerCount: 2
Fore
SplineSet
324 272 m 257
 324 470 l 257
 1118 470 l 257
 1118 272 l 257
 324 272 l 257
EndSplineSet
EndChar

StartChar: uniE015
Encoding: 57365 57365 1680
GlifName: uniE_015
Width: 1570
VWidth: 0
GlyphClass: 2
Flags: HW
LayerCount: 2
Fore
SplineSet
1526 1072 m 257
 1526 969 l 257
 44 969 l 257
 44 1072 l 257
 1526 1072 l 257
EndSplineSet
EndChar

StartChar: uniE016
Encoding: 57366 57366 1681
GlifName: uniE_016
Width: 418
VWidth: 0
GlyphClass: 2
Flags: HW
LayerCount: 2
Fore
SplineSet
64 887 m 257
 64 1058 l 257
 354 1058 l 257
 354 887 l 257
 64 887 l 257
EndSplineSet
EndChar

StartChar: uniE017
Encoding: 57367 57367 1682
GlifName: uniE_017
Width: 731
VWidth: 0
GlyphClass: 2
Flags: HW
LayerCount: 2
Fore
SplineSet
668 1072 m 257
 728 930 l 257
 64 671 l 257
 3 813 l 257
 668 1072 l 257
EndSplineSet
EndChar

StartChar: uniE018
Encoding: 57368 57368 1683
GlifName: uniE_018
Width: 1142
VWidth: 0
GlyphClass: 2
Flags: HW
LayerCount: 2
Fore
SplineSet
337 10 m 257
 160 10 l 257
 805 1284 l 257
 983 1284 l 257
 337 10 l 257
EndSplineSet
EndChar

StartChar: uniE019
Encoding: 57369 57369 1684
GlifName: uniE_019
Width: 1556
VWidth: 0
GlyphClass: 2
Flags: HW
LayerCount: 2
Fore
SplineSet
605 55 m 257
 755 205 l 257
 905 55 l 257
 755 -95 l 257
 605 55 l 257
873 55 m 257
 1023 205 l 257
 1173 55 l 257
 1023 -95 l 257
 873 55 l 257
749 -168 m 257
 889 -28 l 257
 1029 -168 l 257
 889 -308 l 257
 749 -168 l 257
EndSplineSet
EndChar

StartChar: uniE01A
Encoding: 57370 57370 1685
GlifName: uniE_01A_
Width: 1392
VWidth: 0
GlyphClass: 2
Flags: HW
LayerCount: 2
Fore
SplineSet
374 204 m 257
 278 344 l 257
 1024 1310 l 257
 1118 1169 l 257
 374 204 l 257
EndSplineSet
EndChar

StartChar: uniE020
Encoding: 57376 57376 1686
GlifName: uniE_020
Width: 873
VWidth: 0
GlyphClass: 2
Flags: HW
LayerCount: 2
Fore
SplineSet
112 490 m 256
 112 727 282 848 461 848 c 256
 565 848 668 808 748 731 c 257
 652 584 l 257
 604 620 538 642 476 642 c 256
 390 642 314 595 314 493 c 256
 314 409 380 356 488 356 c 256
 562 356 631 367 752 406 c 257
 822 217 l 257
 112 -11 l 257
 52 182 l 257
 266 252 l 257
 179 290 112 385 112 490 c 256
EndSplineSet
EndChar

StartChar: uniE021
Encoding: 57377 57377 1687
GlifName: uniE_021
Width: 576
VWidth: 0
GlyphClass: 2
Flags: HW
LayerCount: 2
Fore
SplineSet
559 1914 m 257
 690 1846 l 257
 619 1696 552 1625 434 1625 c 256
 369 1625 306 1649 254 1671 c 256
 216 1689 183 1702 155 1702 c 256
 95 1702 63 1656 11 1582 c 257
 -113 1656 l 257
 -41 1798 56 1886 174 1886 c 256
 224 1886 270 1867 316 1847 c 256
 360 1827 400 1811 442 1811 c 256
 484 1811 515 1837 559 1914 c 257
463 1479 m 257
 463 0 l 257
 114 0 l 257
 114 1479 l 257
 463 1479 l 257
EndSplineSet
EndChar

StartChar: uniE022
Encoding: 57378 57378 1688
GlifName: uniE_022
Width: 576
VWidth: 0
GlyphClass: 2
Flags: HW
LayerCount: 2
Fore
SplineSet
463 0 m 257
 114 0 l 257
 114 1479 l 257
 463 1479 l 257
 463 0 l 257
EndSplineSet
EndChar

StartChar: uniE023
Encoding: 57379 57379 1689
GlifName: uniE_023
Width: 1505
VWidth: 0
GlyphClass: 2
Flags: HW
LayerCount: 2
Fore
SplineSet
514 1076 m 256
 608 1076 696 1048 888 966 c 256
 1085 880 1226 831 1372 801 c 257
 1372 458 l 257
 793 346 400 126 400 -134 c 256
 400 -302 569 -393 844 -393 c 256
 1018 -393 1215 -357 1344 -303 c 257
 1472 -629 l 257
 1299 -718 1074 -770 848 -770 c 256
 370 -770 52 -540 52 -176 c 256
 52 184 364 469 868 628 c 257
 816 642 770 660 718 682 c 256
 634 716 588 730 548 730 c 256
 463 730 414 673 392 565 c 258
 384 522 l 257
 114 570 l 257
 122 625 l 257
 176 933 296 1076 514 1076 c 256
EndSplineSet
EndChar

StartChar: uniE024
Encoding: 57380 57380 1690
GlifName: uniE_024
Width: 1048
VWidth: 0
GlyphClass: 2
Flags: HW
LayerCount: 2
Fore
SplineSet
996 438 m 256
 996 120 706 -6 418 -6 c 256
 284 -6 148 16 42 46 c 257
 120 376 l 257
 180 362 294 342 404 342 c 256
 526 342 652 364 652 468 c 256
 652 555 533 727 320 909 c 257
 546 1176 l 257
 800 960 996 721 996 438 c 256
EndSplineSet
EndChar

StartChar: uniE025
Encoding: 57381 57381 1691
GlifName: uniE_025
Width: 834
VWidth: 0
GlyphClass: 2
Flags: HW
LayerCount: 2
Fore
SplineSet
316 696 m 257
 646 810 l 257
 724 566 773 364 773 188 c 256
 773 -173 569 -422 83 -598 c 257
 -70 -284 l 257
 284 -162 424 -41 424 187 c 256
 424 314 385 494 316 696 c 257
EndSplineSet
EndChar

StartChar: uniE026
Encoding: 57382 57382 1692
GlifName: uniE_026
Width: 2596
VWidth: 0
GlyphClass: 2
Flags: HW
LayerCount: 2
Fore
SplineSet
1638 0 m 256
 1590 0 1542 14 1512 34 c 257
 1460 -341 1146 -512 782 -512 c 256
 282 -512 52 -268 52 148 c 256
 52 323 92 531 168 747 c 257
 484 652 l 257
 436 494 390 325 390 184 c 256
 390 -28 489 -163 782 -163 c 256
 1074 -163 1170 -34 1170 156 c 256
 1170 302 1105 494 1046 652 c 257
 1388 789 l 257
 1481 488 l 258
 1511 380 1542 349 1604 349 c 256
 1667 349 1702 389 1710 470 c 258
 1727 704 l 257
 2030 684 l 257
 2016 472 l 258
 2010 388 2042 349 2116 349 c 256
 2184 349 2215 384 2215 464 c 256
 2215 512 2204 604 2178 752 c 257
 2516 832 l 257
 2545 701 2560 576 2560 468 c 256
 2560 152 2435 0 2179 0 c 256
 2019 0 1918 60 1873 168 c 257
 1845 62 1743 0 1638 0 c 256
EndSplineSet
EndChar

StartChar: uniE027
Encoding: 57383 57383 1693
GlifName: uniE_027
Width: 2574
VWidth: 0
GlyphClass: 2
Flags: HW
LayerCount: 2
Fore
SplineSet
2022 594 m 256
 1937 594 1831 524 1723 376 c 257
 1767 358 1826 349 1890 349 c 256
 2032 349 2140 395 2140 488 c 256
 2140 550 2092 594 2022 594 c 256
2088 936 m 256
 2353 936 2522 739 2522 483 c 256
 2522 129 2239 0 1855 0 c 256
 1725 0 1612 19 1518 49 c 257
 1470 -333 1161 -494 782 -494 c 256
 283 -494 52 -251 52 164 c 256
 52 340 92 548 168 764 c 257
 484 670 l 257
 436 512 390 342 390 199 c 256
 390 -10 489 -146 782 -146 c 256
 1074 -146 1170 -17 1170 173 c 256
 1170 319 1110 497 1046 668 c 257
 1387 828 l 257
 1419 738 1456 607 1480 503 c 257
 1658 753 1834 936 2088 936 c 256
EndSplineSet
EndChar

StartChar: uniE028
Encoding: 57384 57384 1694
GlifName: uniE_028
Width: 1610
VWidth: 0
GlyphClass: 2
Flags: HW
LayerCount: 2
Fore
SplineSet
737 349 m 257
 934 349 l 258
 1091 349 1174 379 1174 474 c 256
 1174 545 1128 594 1057 594 c 256
 970 594 856 517 737 349 c 257
326 349 m 257
 330 355 336 362 340 368 c 257
 340 1479 l 257
 690 1479 l 257
 690 919 l 258
 690 839 682 752 662 675 c 257
 792 847 953 936 1125 936 c 256
 1390 936 1558 733 1558 483 c 256
 1558 222 1426 0 852 0 c 258
 52 0 l 257
 52 349 l 257
 326 349 l 257
EndSplineSet
EndChar

StartChar: uniE029
Encoding: 57385 57385 1695
GlifName: uniE_029
Width: 1456
VWidth: 0
GlyphClass: 2
Flags: HW
LayerCount: 2
Fore
SplineSet
1159 1151 m 257
 980 896 l 257
 916 952 813 994 720 994 c 256
 602 994 510 923 510 816 c 256
 510 698 627 648 876 648 c 256
 978 648 1079 655 1179 665 c 257
 1194 327 l 257
 720 307 402 146 402 -108 c 256
 402 -286 568 -375 844 -375 c 256
 994 -375 1174 -348 1292 -308 c 257
 1404 -642 l 257
 1256 -704 1042 -742 836 -742 c 256
 352 -742 52 -534 52 -160 c 256
 52 67 167 269 377 421 c 257
 231 501 157 604 157 766 c 256
 157 1086 406 1342 706 1342 c 256
 871 1342 1041 1268 1159 1151 c 257
EndSplineSet
EndChar

StartChar: uniE02A
Encoding: 57386 57386 1696
GlifName: uniE_02A_
Width: 867
VWidth: 0
GlyphClass: 2
Flags: HW
LayerCount: 2
Fore
SplineSet
0 349 m 258
 867 349 l 257
 867 0 l 257
 0 0 l 258
 -30 0 -46 35 -46 175 c 256
 -46 315 -30 349 0 349 c 258
EndSplineSet
EndChar

StartChar: uniE02B
Encoding: 57387 57387 1697
GlifName: uniE_02B_
Width: 1724
VWidth: 0
GlyphClass: 2
Flags: HW
LayerCount: 2
Fore
SplineSet
806 349 m 256
 1158 349 1264 390 1264 648 c 258
 1264 1471 l 257
 1614 1471 l 257
 1614 648 l 258
 1614 190 1335 0 786 0 c 256
 277 0 52 160 52 522 c 256
 52 618 67 735 95 847 c 257
 412 778 l 257
 392 674 382 598 382 542 c 256
 382 386 462 349 806 349 c 256
EndSplineSet
EndChar

StartChar: uniE02C
Encoding: 57388 57388 1698
GlifName: uniE_02C_
Width: 1498
VWidth: 0
GlyphClass: 2
Flags: HW
LayerCount: 2
Fore
SplineSet
704 -192 m 256
 936 -192 1038 -83 1038 140 c 258
 1038 1479 l 257
 1388 1479 l 257
 1388 140 l 258
 1388 -296 1106 -542 686 -542 c 256
 256 -542 52 -306 52 26 c 256
 52 172 88 346 155 516 c 257
 462 407 l 257
 421 290 393 169 393 74 c 256
 393 -86 484 -192 704 -192 c 256
EndSplineSet
EndChar

StartChar: uniE02D
Encoding: 57389 57389 1699
GlifName: uniE_02D_
Width: 1338
VWidth: 0
GlyphClass: 2
Flags: HW
LayerCount: 2
Fore
SplineSet
835 586 m 256
 757 586 708 472 692 379 c 257
 706 375 729 370 745 366 c 256
 799 350 854 340 892 340 c 256
 932 340 946 358 946 404 c 256
 946 483 924 586 835 586 c 256
844 928 m 256
 1099 928 1260 713 1260 395 c 256
 1260 131 1145 -11 925 -11 c 256
 847 -11 742 6 602 38 c 256
 528 56 489 63 462 63 c 256
 419 63 402 40 402 -2 c 258
 402 -700 l 257
 52 -700 l 257
 52 39 l 258
 52 271 188 438 388 434 c 257
 439 740 614 928 844 928 c 256
EndSplineSet
EndChar

StartChar: uniE02E
Encoding: 57390 57390 1700
GlifName: uniE_02E_
Width: 957
VWidth: 0
GlyphClass: 2
Flags: HW
LayerCount: 2
Fore
SplineSet
472 339 m 256
 544 339 580 376 580 429 c 256
 580 485 554 560 472 636 c 257
 390 561 362 483 362 429 c 256
 362 377 398 339 472 339 c 256
472 -11 m 256
 209 -11 52 158 52 354 c 256
 52 531 128 685 282 839 c 257
 253 866 217 900 180 932 c 257
 388 1180 l 257
 614 1000 906 706 906 384 c 256
 906 166 721 -11 472 -11 c 256
EndSplineSet
EndChar

StartChar: uniE02F
Encoding: 57391 57391 1701
GlifName: uniE_02F_
Width: 981
VWidth: 0
GlyphClass: 2
Flags: HW
LayerCount: 2
Fore
SplineSet
558 3 m 257
 519 1 481 -2 441 -2 c 256
 208 -2 74 138 74 390 c 256
 74 636 202 929 486 929 c 256
 840 929 930 590 930 180 c 256
 930 -198 697 -433 203 -596 c 257
 52 -282 l 257
 298 -204 486 -105 558 3 c 257
605 356 m 257
 588 520 552 593 480 593 c 256
 412 593 378 516 378 424 c 256
 378 371 408 348 488 348 c 256
 530 348 576 351 605 356 c 257
EndSplineSet
EndChar

StartChar: uniE030
Encoding: 57392 57392 1702
GlifName: uniE_030
Width: 0
VWidth: 0
GlyphClass: 2
Flags: H
LayerCount: 2
Fore
SplineSet
69 1519 m 256
 32 1519 -10 1485 -10 1447 c 256
 -10 1401 39 1376 79 1362 c 257
 106 1392 114 1424 114 1457 c 256
 114 1492 99 1519 69 1519 c 256
84 1648 m 256
 179 1648 243 1570 243 1465 c 256
 243 1254 -18 1127 -208 1076 c 257
 -244 1176 -292 1245 -375 1296 c 257
 -305 1403 l 257
 -234 1364 -180 1308 -135 1234 c 257
 -104 1246 -58 1268 -21 1286 c 257
 -72 1309 -134 1359 -134 1445 c 256
 -134 1546 -29 1648 84 1648 c 256
EndSplineSet
EndChar

StartChar: uniE031
Encoding: 57393 57393 1703
GlifName: uniE_031
Width: 0
VWidth: 0
GlyphClass: 2
Flags: H
LayerCount: 2
Fore
SplineSet
213 1365 m 257
 250 1243 l 257
 -213 1095 l 257
 -250 1219 l 257
 213 1365 l 257
EndSplineSet
EndChar

StartChar: uniE032
Encoding: 57394 57394 1704
GlifName: uniE_032
Width: 0
VWidth: 0
GlyphClass: 2
Flags: H
LayerCount: 2
Fore
SplineSet
69 1519 m 256
 32 1519 -10 1485 -10 1447 c 256
 -10 1401 39 1376 79 1362 c 257
 106 1392 114 1424 114 1457 c 256
 114 1492 99 1519 69 1519 c 256
85 1648 m 256
 180 1648 243 1570 243 1465 c 256
 243 1254 -18 1127 -208 1076 c 257
 -242 1197 l 257
 -175 1216 -57 1269 -21 1287 c 257
 -75 1311 -134 1363 -134 1444 c 256
 -134 1551 -25 1648 85 1648 c 256
EndSplineSet
EndChar

StartChar: uniE033
Encoding: 57395 57395 1705
GlifName: uniE_033
Width: 0
VWidth: 0
GlyphClass: 2
Flags: H
LayerCount: 2
Fore
SplineSet
167 1283 m 256
 167 1324 152 1382 141 1411 c 257
 261 1450 l 257
 276 1410 295 1354 295 1267 c 256
 295 1165 236 1095 133 1095 c 256
 80 1095 20 1121 0 1170 c 257
 -20 1121 -80 1095 -133 1095 c 256
 -236 1095 -295 1165 -295 1267 c 256
 -295 1354 -276 1410 -261 1450 c 257
 -141 1411 l 257
 -152 1382 -167 1324 -167 1283 c 256
 -167 1245 -155 1224 -115 1224 c 256
 -70 1224 -54 1261 -54 1334 c 258
 -54 1374 l 257
 54 1374 l 257
 54 1334 l 258
 54 1261 70 1224 115 1224 c 256
 155 1224 167 1245 167 1283 c 256
EndSplineSet
EndChar

StartChar: uniE034
Encoding: 57396 57396 1706
GlifName: uniE_034
Width: 0
VWidth: 0
GlyphClass: 2
Flags: H
LayerCount: 2
Fore
SplineSet
0 1338 m 256
 -50 1338 -74 1308 -74 1266 c 256
 -74 1224 -49 1193 0 1193 c 256
 48 1193 74 1226 74 1266 c 256
 74 1306 50 1338 0 1338 c 256
0 1453 m 256
 114 1453 188 1370 188 1266 c 256
 188 1162 114 1078 0 1078 c 256
 -114 1078 -188 1162 -188 1266 c 256
 -188 1370 -114 1453 0 1453 c 256
EndSplineSet
EndChar

StartChar: uniE035
Encoding: 57397 57397 1707
GlifName: uniE_035
Width: 0
VWidth: 0
GlyphClass: 2
Flags: H
LayerCount: 2
Fore
SplineSet
-296 1142 m 257
 -261 1209 -199 1293 -103 1293 c 256
 -50 1293 -12 1271 21 1251 c 256
 46 1236 70 1223 92 1223 c 256
 133 1223 156 1256 177 1305 c 257
 295 1256 l 257
 262 1178 198 1095 102 1095 c 256
 56 1095 20 1115 -11 1137 c 256
 -35 1154 -59 1165 -82 1165 c 256
 -125 1165 -159 1130 -181 1085 c 257
 -296 1142 l 257
EndSplineSet
EndChar

StartChar: uniE036
Encoding: 57398 57398 1708
GlifName: uniE_036
Width: 0
VWidth: 0
GlyphClass: 2
Flags: H
LayerCount: 2
Fore
SplineSet
156 1600 m 257
 124 1485 l 257
 105 1490 62 1495 40 1495 c 256
 -18 1495 -56 1459 -56 1405 c 256
 -56 1353 -20 1311 26 1311 c 256
 37 1311 52 1314 64 1318 c 258
 213 1365 l 257
 250 1243 l 257
 -213 1095 l 257
 -250 1219 l 257
 -119 1261 l 257
 -152 1296 -172 1352 -172 1410 c 256
 -172 1532 -81 1618 48 1618 c 256
 81 1618 115 1612 156 1600 c 257
EndSplineSet
EndChar

StartChar: uniE037
Encoding: 57399 57399 1709
GlifName: uniE_037
Width: 0
VWidth: 0
GlyphClass: 2
Flags: H
LayerCount: 2
Fore
SplineSet
55 1095 m 257
 -55 1095 l 257
 -266 1371 l 257
 -164 1449 l 257
 0 1226 l 257
 164 1449 l 257
 266 1371 l 257
 55 1095 l 257
EndSplineSet
EndChar

StartChar: uniE038
Encoding: 57400 57400 1710
GlifName: uniE_038
Width: 1814
VWidth: 0
GlyphClass: 2
Flags: HW
LayerCount: 2
Fore
SplineSet
1710 910 m 257
 1745 772 1763 651 1763 547 c 256
 1763 150 1525 0 907 0 c 256
 289 0 52 150 52 547 c 256
 52 651 70 772 105 910 c 257
 416 842 l 257
 395 738 383 654 383 588 c 256
 383 378 497 349 907 349 c 256
 1317 349 1432 378 1432 588 c 256
 1432 654 1421 738 1400 842 c 257
 1710 910 l 257
EndSplineSet
EndChar

StartChar: uniE039
Encoding: 57401 57401 1711
GlifName: uniE_039
Width: 1576
VWidth: 0
GlyphClass: 2
Flags: HW
LayerCount: 2
Fore
SplineSet
1194 341 m 257
 1177 505 1142 577 1070 577 c 256
 1002 577 970 500 970 408 c 256
 970 355 998 332 1078 332 c 256
 1120 332 1165 336 1194 341 c 257
1078 929 m 256
 1386 929 1525 647 1525 216 c 257
 1525 -260 1267 -544 777 -544 c 256
 327 -544 52 -296 52 100 c 256
 52 258 92 440 176 638 c 257
 490 494 l 257
 435 340 400 206 400 102 c 256
 400 -92 536 -194 806 -194 c 256
 996 -194 1134 -113 1158 19 c 257
 1122 7 1072 -2 1031 -2 c 256
 799 -2 666 138 666 388 c 256
 666 634 794 929 1078 929 c 256
EndSplineSet
EndChar

StartChar: uniE03A
Encoding: 57402 57402 1712
GlifName: uniE_03A_
Width: 0
VWidth: 0
GlyphClass: 2
Flags: H
LayerCount: 2
Fore
SplineSet
-74 1462 m 257
 74 1462 l 257
 74 1065 l 257
 -74 1065 l 257
 -74 1462 l 257
EndSplineSet
EndChar

StartChar: uniE03B
Encoding: 57403 57403 1713
GlifName: uniE_03B_
Width: 1838
VWidth: 0
GlyphClass: 2
Flags: HW
LayerCount: 2
Fore
SplineSet
1480 500 m 257
 1412 480 1346 472 1272 472 c 256
 1050 472 906 556 906 804 c 256
 906 1043 1014 1362 1314 1362 c 256
 1757 1362 1788 760 1788 574 c 256
 1788 62 1419 0 901 0 c 256
 319 0 52 132 52 536 c 256
 52 636 67 760 96 886 c 257
 414 816 l 257
 394 719 383 634 383 572 c 256
 383 384 512 349 930 349 c 256
 1424 349 1480 356 1480 500 c 257
1430 783 m 257
 1413 947 1378 1019 1306 1019 c 256
 1238 1019 1204 942 1204 850 c 256
 1204 797 1234 774 1314 774 c 256
 1356 774 1401 778 1430 783 c 257
EndSplineSet
EndChar

StartChar: uniE03C
Encoding: 57404 57404 1714
GlifName: uniE_03C_
Width: 1700
VWidth: 0
GlyphClass: 2
Flags: HW
LayerCount: 2
Fore
SplineSet
96 886 m 257
 414 816 l 257
 393 710 383 630 383 574 c 256
 383 403 482 349 804 349 c 256
 1113 349 1280 399 1280 491 c 256
 1280 582 1119 745 814 961 c 257
 814 1238 l 257
 1130 1441 1436 1571 1752 1638 c 257
 1822 1296 l 257
 1616 1248 1430 1182 1230 1082 c 257
 1230 1072 l 257
 1518 810 1629 643 1629 464 c 256
 1629 168 1332 0 804 0 c 256
 281 0 52 163 52 537 c 256
 52 636 67 760 96 886 c 257
EndSplineSet
EndChar

StartChar: uniE03D
Encoding: 57405 57405 1715
GlifName: uniE_03D_
Width: 1643
VWidth: 0
GlyphClass: 2
Flags: HW
LayerCount: 2
Fore
SplineSet
1099 669 m 257
 1430 830 l 257
 1526 614 1592 459 1592 190 c 256
 1592 -284 1243 -520 823 -520 c 256
 303 -520 52 -267 52 167 c 256
 52 347 92 558 166 772 c 257
 486 668 l 257
 444 527 395 350 395 202 c 256
 395 -20 506 -171 822 -171 c 256
 1125 -171 1240 -28 1240 175 c 256
 1240 323 1179 499 1099 669 c 257
EndSplineSet
EndChar

StartChar: uniE03E
Encoding: 57406 57406 1716
GlifName: uniE_03E_
Width: 1616
VWidth: 0
GlyphClass: 2
Flags: HW
LayerCount: 2
Fore
SplineSet
1511 932 m 257
 1406 619 l 257
 1356 639 1263 656 1194 656 c 256
 1049 656 942 590 942 458 c 256
 942 376 1011 364 1172 356 c 256
 1372 347 1564 306 1564 14 c 256
 1564 -406 1196 -544 786 -544 c 256
 311 -544 69 -346 69 116 c 256
 69 268 86 409 116 551 c 257
 441 492 l 257
 419 352 404 248 404 112 c 256
 404 -134 522 -194 790 -194 c 256
 959 -194 1232 -157 1232 -51 c 256
 1232 -1 1208 10 1092 16 c 256
 774 32 606 117 606 404 c 256
 606 740 821 1001 1168 1001 c 256
 1286 1001 1417 974 1511 932 c 257
EndSplineSet
EndChar

StartChar: uniE03F
Encoding: 57407 57407 1717
GlifName: uniE_03F_
Width: 1959
VWidth: 0
GlyphClass: 2
Flags: HW
LayerCount: 2
Fore
SplineSet
96 886 m 257
 414 816 l 257
 393 710 383 629 383 572 c 256
 383 400 480 349 804 349 c 256
 1113 349 1272 396 1272 490 c 256
 1272 580 1128 729 814 961 c 257
 814 1238 l 257
 1130 1441 1436 1571 1752 1638 c 257
 1822 1296 l 257
 1616 1248 1430 1182 1230 1082 c 257
 1230 1072 l 257
 1406 907 1497 800 1590 638 c 256
 1719 418 1806 349 1958 349 c 258
 1960 349 l 257
 1960 0 l 257
 1958 0 l 258
 1784 0 1619 76 1521 208 c 257
 1413 72 1166 0 812 0 c 256
 280 0 52 162 52 537 c 256
 52 637 67 760 96 886 c 257
EndSplineSet
EndChar

StartChar: uniE040
Encoding: 57408 57408 1718
GlifName: uniE_040
Width: 1863
VWidth: 0
GlyphClass: 2
Flags: HW
LayerCount: 2
Fore
SplineSet
166 772 m 257
 486 668 l 257
 444 527 395 350 395 202 c 256
 395 -20 504 -171 820 -171 c 256
 1144 -171 1240 -21 1240 204 c 256
 1240 323 1178 491 1100 669 c 257
 1430 830 l 257
 1552 524 l 258
 1601 401 1692 348 1862 348 c 258
 1863 348 l 257
 1863 0 l 257
 1862 0 l 258
 1743 0 1634 43 1572 116 c 257
 1580 -290 1229 -520 823 -520 c 256
 303 -520 52 -267 52 167 c 256
 52 347 92 558 166 772 c 257
EndSplineSet
EndChar

StartChar: uniE041
Encoding: 57409 57409 1719
GlifName: uniE_041
Width: 612
VWidth: 0
GlyphClass: 2
Flags: HW
LayerCount: 2
Fore
SplineSet
496 920 m 257
 536 755 562 607 562 480 c 256
 562 190 408 0 34 0 c 258
 0 0 l 258
 -30 0 -46 35 -46 175 c 256
 -46 315 -30 349 0 349 c 258
 34 349 l 258
 162 349 219 400 219 524 c 256
 219 597 199 700 168 830 c 257
 496 920 l 257
EndSplineSet
EndChar

StartChar: uniE042
Encoding: 57410 57410 1720
GlifName: uniE_042
Width: 819
VWidth: 0
GlyphClass: 2
Flags: HW
LayerCount: 2
Fore
SplineSet
586 562 m 258
 586 383 608 349 788 349 c 258
 820 349 l 257
 820 0 l 257
 786 0 l 258
 621 0 463 67 411 174 c 257
 358 68 195 0 34 0 c 258
 0 0 l 258
 -30 0 -46 35 -46 175 c 256
 -46 315 -30 349 0 349 c 258
 34 349 l 258
 212 349 238 384 238 562 c 258
 238 754 l 257
 586 754 l 257
 586 562 l 258
EndSplineSet
EndChar

StartChar: uniE043
Encoding: 57411 57411 1721
GlifName: uniE_043
Width: 1516
VWidth: 0
GlyphClass: 2
Flags: HW
LayerCount: 2
Fore
SplineSet
1516 349 m 257
 1516 0 l 257
 1370 0 l 257
 1424 -62 1453 -130 1453 -204 c 256
 1453 -457 1160 -620 758 -620 c 256
 292 -620 52 -405 52 28 c 256
 52 212 88 421 162 682 c 257
 484 594 l 257
 418 339 388 176 388 45 c 256
 388 -186 501 -272 787 -272 c 256
 997 -272 1146 -225 1146 -135 c 256
 1146 -64 1050 -40 714 0 c 257
 766 349 l 257
 1516 349 l 257
EndSplineSet
EndChar

StartChar: uniE044
Encoding: 57412 57412 1722
GlifName: uniE_044
Width: 658
VWidth: 0
GlyphClass: 2
Flags: HW
LayerCount: 2
Fore
SplineSet
111 1479 m 257
 461 1479 l 257
 461 520 l 258
 461 393 502 349 658 349 c 258
 658 349 l 257
 658 0 l 257
 658 0 l 258
 318 0 111 175 111 513 c 258
 111 1479 l 257
EndSplineSet
EndChar

StartChar: uniE045
Encoding: 57413 57413 1723
GlifName: uniE_045
Width: 1491
VWidth: 0
GlyphClass: 2
Flags: HW
LayerCount: 2
Fore
SplineSet
514 1076 m 256
 608 1076 696 1048 888 966 c 256
 1084 880 1226 831 1372 801 c 257
 1372 458 l 257
 1330 449 1289 439 1248 429 c 257
 1278 359 1353 349 1480 349 c 258
 1492 349 l 257
 1492 0 l 257
 1480 0 l 258
 1210 0 1047 113 1015 368 c 257
 635 246 400 68 400 -134 c 256
 400 -302 568 -393 844 -393 c 256
 1018 -393 1215 -357 1344 -303 c 257
 1472 -629 l 257
 1299 -717 1074 -770 848 -770 c 256
 370 -770 52 -540 52 -176 c 256
 52 184 364 469 868 628 c 257
 816 642 771 660 719 682 c 256
 636 716 589 730 548 730 c 256
 463 730 415 673 392 565 c 258
 384 522 l 257
 114 570 l 257
 122 625 l 257
 177 933 296 1076 514 1076 c 256
EndSplineSet
EndChar

StartChar: uniE046
Encoding: 57414 57414 1724
GlifName: uniE_046
Width: 1382
VWidth: 0
GlyphClass: 2
Flags: HW
LayerCount: 2
Fore
SplineSet
483 1043 m 256
 589 1043 704 994 842 934 c 256
 978 875 1136 808 1330 768 c 257
 1330 493 l 257
 866 182 l 258
 664 48 463 0 215 0 c 258
 0 0 l 258
 -30 0 -46 35 -46 175 c 256
 -46 315 -30 349 0 349 c 258
 284 349 l 258
 453 349 567 367 714 452 c 258
 916 571 l 257
 814 592 738 623 674 649 c 256
 609 675 556 697 500 697 c 256
 426 697 374 646 350 532 c 258
 342 489 l 257
 72 537 l 257
 80 592 l 257
 130 878 239 1043 483 1043 c 256
EndSplineSet
EndChar

StartChar: uniE047
Encoding: 57415 57415 1725
GlifName: uniE_047
Width: 1431
VWidth: 0
GlyphClass: 2
Flags: HW
LayerCount: 2
Fore
SplineSet
483 1043 m 256
 589 1043 704 994 842 934 c 256
 978 875 1136 808 1330 768 c 257
 1330 493 l 257
 1215 416 l 257
 1253 363 1295 349 1418 349 c 258
 1432 349 l 257
 1432 0 l 257
 1418 0 l 258
 1204 0 1054 76 992 268 c 257
 866 182 l 258
 664 48 463 0 215 0 c 258
 0 0 l 258
 -30 0 -46 35 -46 175 c 256
 -46 315 -30 349 0 349 c 258
 284 349 l 258
 453 349 567 367 714 452 c 258
 916 571 l 257
 814 592 738 623 674 649 c 256
 609 675 556 697 500 697 c 256
 426 697 374 646 350 532 c 258
 342 489 l 257
 72 537 l 257
 80 592 l 257
 130 878 239 1043 483 1043 c 256
EndSplineSet
EndChar

StartChar: uniE048
Encoding: 57416 57416 1726
GlifName: uniE_048
Width: 1327
VWidth: 0
GlyphClass: 2
Flags: HW
LayerCount: 2
Fore
SplineSet
806 1158 m 257
 1066 548 l 258
 1132 391 1194 349 1318 349 c 258
 1327 349 l 257
 1327 0 l 257
 1313 0 l 258
 1143 0 998 54 906 192 c 257
 822 53 653 -10 476 -10 c 256
 322 -10 162 40 42 140 c 257
 190 418 l 257
 278 364 378 339 470 339 c 256
 578 339 666 366 736 436 c 257
 484 1004 l 257
 806 1158 l 257
EndSplineSet
EndChar

StartChar: uniE049
Encoding: 57417 57417 1727
GlifName: uniE_049
Width: 966
VWidth: 0
GlyphClass: 2
Flags: HW
LayerCount: 2
Fore
SplineSet
316 696 m 257
 646 810 l 257
 718 578 l 258
 780 376 808 349 966 349 c 258
 966 349 l 257
 966 0 l 257
 966 0 l 258
 882 0 812 16 758 56 c 257
 714 -239 505 -445 83 -598 c 257
 -70 -284 l 257
 284 -162 424 -40 424 188 c 256
 424 314 385 494 316 696 c 257
EndSplineSet
EndChar

StartChar: uniE04A
Encoding: 57418 57418 1728
GlifName: uniE_04A_
Width: 2788
VWidth: 0
GlyphClass: 2
Flags: HW
LayerCount: 2
Fore
SplineSet
168 747 m 257
 484 652 l 257
 436 494 390 325 390 184 c 256
 390 -28 489 -163 782 -163 c 256
 1074 -163 1170 -34 1170 156 c 256
 1170 302 1105 494 1046 652 c 257
 1388 789 l 257
 1481 488 l 258
 1511 380 1542 349 1604 349 c 256
 1667 349 1702 389 1710 470 c 258
 1727 704 l 257
 2030 684 l 257
 2016 472 l 258
 2010 388 2044 349 2116 349 c 256
 2186 349 2216 385 2216 466 c 256
 2216 514 2206 600 2180 754 c 257
 2516 824 l 257
 2539 656 l 258
 2577 392 2616 349 2788 349 c 258
 2788 349 l 257
 2788 0 l 257
 2788 0 l 258
 2603 0 2485 63 2452 178 c 257
 2422 69 2310 0 2164 0 c 256
 2004 0 1918 60 1873 168 c 257
 1845 62 1743 0 1638 0 c 256
 1590 0 1542 14 1512 34 c 257
 1460 -341 1146 -512 782 -512 c 256
 282 -512 52 -268 52 148 c 256
 52 323 92 531 168 747 c 257
EndSplineSet
EndChar

StartChar: uniE04B
Encoding: 57419 57419 1729
GlifName: uniE_04B_
Width: 1692
VWidth: 0
GlyphClass: 2
Flags: HW
LayerCount: 2
Fore
SplineSet
676 350 m 256
 745 346 782 384 790 470 c 258
 808 704 l 257
 1110 684 l 257
 1097 472 l 258
 1091 388 1124 349 1198 349 c 256
 1266 349 1296 384 1296 464 c 256
 1296 517 1284 627 1260 763 c 257
 1598 844 l 257
 1626 718 1641 581 1641 469 c 256
 1641 153 1516 0 1260 0 c 256
 1100 0 999 60 954 168 c 257
 910 55 815 0 666 0 c 256
 516 0 422 56 380 170 c 257
 319 66 186 0 34 0 c 258
 0 0 l 258
 -32 0 -46 54 -46 179 c 256
 -46 301 -34 349 0 349 c 258
 34 349 l 258
 165 349 223 396 235 522 c 258
 255 760 l 257
 604 735 l 257
 583 484 l 258
 575 399 606 354 676 350 c 256
EndSplineSet
EndChar

StartChar: uniE04C
Encoding: 57420 57420 1730
GlifName: uniE_04C_
Width: 1869
VWidth: 0
GlyphClass: 2
Flags: HW
LayerCount: 2
Fore
SplineSet
1196 349 m 256
 1266 349 1298 385 1298 466 c 256
 1298 514 1286 600 1260 754 c 257
 1597 824 l 257
 1620 656 l 258
 1658 392 1696 349 1868 349 c 258
 1870 349 l 257
 1870 0 l 257
 1868 0 l 258
 1683 0 1567 63 1534 178 c 257
 1504 69 1392 0 1246 0 c 256
 1098 0 998 63 954 168 c 257
 910 55 815 0 666 0 c 256
 516 0 422 56 380 170 c 257
 319 66 186 0 34 0 c 258
 0 0 l 258
 -32 0 -46 54 -46 179 c 256
 -46 301 -33 349 0 349 c 258
 34 349 l 258
 165 349 223 396 235 522 c 258
 255 760 l 257
 604 735 l 257
 583 484 l 258
 575 399 606 354 676 350 c 256
 745 346 782 384 790 470 c 258
 808 704 l 257
 1110 684 l 257
 1096 472 l 258
 1090 388 1124 349 1196 349 c 256
EndSplineSet
EndChar

StartChar: uniE04D
Encoding: 57421 57421 1731
GlifName: uniE_04D_
Width: 2613
VWidth: 0
GlyphClass: 2
Flags: HW
LayerCount: 2
Fore
SplineSet
2022 594 m 256
 1937 594 1831 524 1723 376 c 257
 1767 358 1826 349 1890 349 c 256
 2032 349 2140 395 2140 488 c 256
 2140 550 2092 594 2022 594 c 256
2088 936 m 256
 2353 936 2522 739 2522 483 c 256
 2522 437 2516 396 2504 359 c 257
 2531 352 2578 349 2612 349 c 258
 2613 349 l 257
 2613 0 l 257
 2612 0 l 258
 2476 0 2382 45 2334 108 c 257
 2216 30 2047 0 1855 0 c 256
 1725 0 1612 19 1518 49 c 257
 1470 -333 1161 -494 782 -494 c 256
 283 -494 52 -251 52 164 c 256
 52 340 92 548 168 764 c 257
 484 670 l 257
 436 512 390 342 390 199 c 256
 390 -10 489 -146 782 -146 c 256
 1074 -146 1170 -17 1170 173 c 256
 1170 319 1110 497 1046 668 c 257
 1387 828 l 257
 1419 738 1456 607 1480 503 c 257
 1658 753 1834 936 2088 936 c 256
EndSplineSet
EndChar

StartChar: uniE04E
Encoding: 57422 57422 1732
GlifName: uniE_04E_
Width: 1692
VWidth: 0
GlyphClass: 2
Flags: HW
LayerCount: 2
Fore
SplineSet
1140 594 m 256
 1055 594 949 524 841 376 c 257
 885 358 944 349 1008 349 c 256
 1150 349 1258 395 1258 488 c 256
 1258 550 1210 594 1140 594 c 256
238 754 m 257
 586 754 l 257
 588 536 l 257
 592 508 602 497 616 488 c 257
 752 756 962 936 1206 936 c 256
 1471 936 1640 739 1640 483 c 256
 1640 129 1356 0 972 0 c 256
 711 0 511 72 411 174 c 257
 358 68 195 0 34 0 c 258
 0 0 l 258
 -30 0 -46 35 -46 175 c 256
 -46 315 -30 349 0 349 c 258
 34 349 l 258
 212 349 238 384 238 562 c 258
 238 754 l 257
EndSplineSet
EndChar

StartChar: uniE04F
Encoding: 57423 57423 1733
GlifName: uniE_04F_
Width: 1729
VWidth: 0
GlyphClass: 2
Flags: HW
LayerCount: 2
Fore
SplineSet
238 754 m 257
 586 754 l 257
 588 536 l 257
 592 508 602 497 616 488 c 257
 752 756 962 936 1206 936 c 256
 1471 936 1640 739 1640 483 c 256
 1640 437 1634 396 1622 359 c 257
 1656 352 1688 349 1728 349 c 258
 1730 349 l 257
 1730 0 l 257
 1728 0 l 258
 1612 0 1510 32 1452 108 c 257
 1334 32 1164 0 972 0 c 256
 711 0 511 72 411 174 c 257
 358 68 195 0 34 0 c 258
 0 0 l 258
 -30 0 -46 35 -46 175 c 256
 -46 315 -30 349 0 349 c 258
 34 349 l 258
 212 349 238 384 238 562 c 258
 238 754 l 257
1140 594 m 256
 1055 594 949 524 841 376 c 257
 885 358 944 349 1008 349 c 256
 1150 349 1258 395 1258 488 c 256
 1258 550 1210 594 1140 594 c 256
EndSplineSet
EndChar

StartChar: uniE050
Encoding: 57424 57424 1734
GlifName: uniE_050
Width: 1648
VWidth: 0
GlyphClass: 2
Flags: HW
LayerCount: 2
Fore
SplineSet
737 349 m 257
 934 349 l 258
 1091 349 1174 379 1174 474 c 256
 1174 545 1128 594 1057 594 c 256
 970 594 856 517 737 349 c 257
326 349 m 257
 330 355 336 362 340 368 c 257
 340 1479 l 257
 690 1479 l 257
 690 919 l 258
 690 839 682 752 662 675 c 257
 792 847 953 936 1125 936 c 256
 1390 936 1558 733 1558 483 c 256
 1558 439 1552 398 1542 362 c 257
 1574 354 1607 349 1647 349 c 258
 1648 349 l 257
 1648 0 l 257
 1647 0 l 258
 1514 0 1436 44 1384 118 c 257
 1256 25 1068 0 852 0 c 258
 52 0 l 257
 52 349 l 257
 326 349 l 257
EndSplineSet
EndChar

StartChar: uniE051
Encoding: 57425 57425 1735
GlifName: uniE_051
Width: 1391
VWidth: 0
GlyphClass: 2
Flags: HW
LayerCount: 2
Fore
SplineSet
0 0 m 258
 -30 0 -46 35 -46 175 c 256
 -46 315 -30 349 0 349 c 258
 107 349 l 257
 111 355 117 362 121 368 c 257
 121 1479 l 257
 470 1479 l 257
 470 919 l 258
 470 839 463 752 443 675 c 257
 573 847 734 936 906 936 c 256
 1171 936 1340 733 1340 483 c 256
 1340 222 1207 0 633 0 c 258
 0 0 l 258
518 349 m 257
 714 349 l 258
 871 349 956 379 956 474 c 256
 956 545 909 594 838 594 c 256
 751 594 637 517 518 349 c 257
EndSplineSet
EndChar

StartChar: uniE052
Encoding: 57426 57426 1736
GlifName: uniE_052
Width: 1428
VWidth: 0
GlyphClass: 2
Flags: HW
LayerCount: 2
Fore
SplineSet
0 0 m 258
 -30 0 -46 35 -46 175 c 256
 -46 315 -30 349 0 349 c 258
 106 349 l 257
 110 355 116 362 120 368 c 257
 120 1479 l 257
 470 1479 l 257
 470 919 l 258
 470 839 462 752 442 675 c 257
 572 847 734 936 906 936 c 256
 1171 936 1339 733 1339 483 c 256
 1339 439 1332 398 1322 362 c 257
 1354 354 1388 349 1428 349 c 258
 1428 349 l 257
 1428 0 l 257
 1428 0 l 258
 1295 0 1217 44 1165 118 c 257
 1037 25 848 0 632 0 c 258
 0 0 l 258
517 349 m 257
 714 349 l 258
 871 349 955 379 955 474 c 256
 955 545 909 594 838 594 c 256
 751 594 636 517 517 349 c 257
EndSplineSet
EndChar

StartChar: uniE053
Encoding: 57427 57427 1737
GlifName: uniE_053
Width: 1306
VWidth: 0
GlyphClass: 2
Flags: HW
LayerCount: 2
Fore
SplineSet
902 602 m 256
 902 643 863 682 757 682 c 256
 701 682 648 672 592 648 c 257
 592 639 l 257
 772 456 l 257
 846 502 902 568 902 602 c 256
1219 628 m 256
 1219 524 1155 419 1074 357 c 257
 1118 349 1202 349 1250 349 c 258
 1306 349 l 257
 1306 0 l 257
 1207 0 l 258
 1041 0 866 49 756 120 c 257
 508 27 400 -107 400 -236 c 256
 400 -390 594 -446 802 -446 c 256
 964 -446 1118 -415 1216 -371 c 257
 1332 -685 l 257
 1185 -751 988 -792 796 -792 c 256
 411 -792 52 -635 52 -238 c 256
 52 30 237 223 479 335 c 257
 216 596 l 257
 224 800 l 257
 381 952 572 1010 766 1010 c 256
 970 1010 1219 886 1219 628 c 256
EndSplineSet
EndChar

StartChar: uniE054
Encoding: 57428 57428 1738
GlifName: uniE_054
Width: 1147
VWidth: 0
GlyphClass: 2
Flags: HW
LayerCount: 2
Fore
SplineSet
422 564 m 256
 422 469 487 416 589 416 c 256
 613 416 646 420 676 426 c 258
 1031 494 l 257
 1096 149 l 257
 532 42 l 258
 386 16 201 0 38 0 c 258
 0 0 l 258
 -34 0 -46 51 -46 175 c 256
 -46 299 -34 349 0 349 c 258
 23 349 l 258
 61 349 92 349 132 352 c 257
 95 406 72 474 72 556 c 256
 72 863 306 1088 608 1088 c 256
 768 1088 893 1030 1026 898 c 257
 847 644 l 257
 771 710 703 740 620 740 c 256
 502 740 422 675 422 564 c 256
EndSplineSet
EndChar

StartChar: uniE055
Encoding: 57429 57429 1739
GlifName: uniE_055
Width: 1182
VWidth: 0
GlyphClass: 2
Flags: HW
LayerCount: 2
Fore
SplineSet
638 682 m 256
 585 682 527 672 476 648 c 257
 476 639 l 257
 656 456 l 257
 732 504 786 566 786 604 c 256
 786 639 754 682 638 682 c 256
650 1010 m 256
 860 1010 1106 885 1106 630 c 256
 1106 524 1040 421 960 357 c 257
 1005 349 1060 349 1112 349 c 258
 1183 349 l 257
 1183 0 l 257
 1074 0 l 258
 901 0 777 37 656 122 c 257
 508 42 322 0 118 0 c 258
 0 0 l 258
 -29 0 -46 35 -46 175 c 256
 -46 315 -29 349 0 349 c 258
 107 349 l 258
 191 349 265 352 338 358 c 257
 101 596 l 257
 107 800 l 257
 261 949 457 1010 650 1010 c 256
EndSplineSet
EndChar

StartChar: uniE056
Encoding: 57430 57430 1740
GlifName: uniE_056
Width: 1848
VWidth: 0
GlyphClass: 2
Flags: HW
LayerCount: 2
Fore
SplineSet
1614 648 m 258
 1614 389 1646 349 1848 349 c 258
 1848 349 l 257
 1848 0 l 257
 1848 0 l 258
 1638 0 1500 64 1440 186 c 257
 1350 58 1158 0 822 0 c 256
 277 0 52 152 52 520 c 256
 52 616 67 735 95 847 c 257
 412 778 l 257
 392 674 382 597 382 541 c 256
 382 390 458 349 806 349 c 256
 1177 349 1264 404 1264 648 c 258
 1264 1471 l 257
 1614 1471 l 257
 1614 648 l 258
EndSplineSet
EndChar

StartChar: uniE057
Encoding: 57431 57431 1741
GlifName: uniE_057
Width: 919
VWidth: 0
GlyphClass: 2
Flags: HW
LayerCount: 2
Fore
SplineSet
946 1638 m 257
 1016 1296 l 257
 810 1248 627 1182 426 1082 c 257
 426 1072 l 257
 705 830 824 647 824 459 c 256
 824 179 562 0 152 0 c 258
 0 0 l 258
 -33 0 -46 51 -46 176 c 256
 -46 300 -33 349 0 349 c 258
 144 349 l 258
 356 349 476 397 476 483 c 256
 476 575 337 717 10 961 c 257
 10 1238 l 257
 326 1442 630 1571 946 1638 c 257
EndSplineSet
EndChar

StartChar: uniE058
Encoding: 57432 57432 1742
GlifName: uniE_058
Width: 1152
VWidth: 0
GlyphClass: 2
Flags: HW
LayerCount: 2
Fore
SplineSet
946 1638 m 257
 1016 1296 l 257
 810 1248 627 1182 426 1082 c 257
 426 1072 l 257
 611 908 725 769 808 605 c 256
 903 417 995 349 1152 349 c 258
 1152 349 l 257
 1152 0 l 257
 1152 0 l 258
 976 0 798 80 698 212 c 257
 604 76 410 0 170 0 c 258
 0 0 l 258
 -33 0 -46 51 -46 176 c 256
 -46 300 -33 349 0 349 c 258
 162 349 l 258
 357 349 476 400 476 484 c 256
 476 576 334 719 10 961 c 257
 10 1238 l 257
 326 1442 630 1571 946 1638 c 257
EndSplineSet
EndChar

StartChar: uniE059
Encoding: 57433 57433 1743
GlifName: uniE_059
Width: 1632
VWidth: 0
GlyphClass: 2
Flags: HW
LayerCount: 2
Fore
SplineSet
1632 349 m 257
 1632 0 l 257
 1586 0 l 258
 1500 0 1423 27 1378 86 c 257
 1378 58 l 258
 1378 -292 1098 -542 686 -542 c 256
 256 -542 52 -306 52 26 c 256
 52 172 88 346 155 516 c 257
 462 407 l 257
 421 290 393 169 393 74 c 256
 393 -86 484 -192 704 -192 c 256
 936 -192 1038 -83 1038 140 c 258
 1038 1479 l 257
 1388 1479 l 257
 1388 540 l 258
 1388 390 1429 349 1586 349 c 258
 1632 349 l 257
EndSplineSet
EndChar

StartChar: uniE05A
Encoding: 57434 57434 1744
GlifName: uniE_05A_
Width: 652
VWidth: 0
GlyphClass: 2
Flags: HW
LayerCount: 2
Fore
SplineSet
0 349 m 256
 174 349 192 371 192 510 c 258
 192 1479 l 257
 541 1479 l 257
 541 510 l 258
 541 182 351 0 0 0 c 256
 -29 0 -47 35 -47 175 c 256
 -47 315 -29 349 0 349 c 256
EndSplineSet
EndChar

StartChar: uniE05B
Encoding: 57435 57435 1745
GlifName: uniE_05B_
Width: 736
VWidth: 0
GlyphClass: 2
Flags: HW
LayerCount: 2
Fore
SplineSet
540 528 m 258
 540 396 578 349 736 349 c 258
 736 349 l 257
 736 0 l 257
 736 0 l 258
 564 0 412 71 366 178 c 257
 320 70 172 0 0 0 c 256
 -29 0 -46 35 -46 175 c 256
 -46 315 -29 349 0 349 c 256
 176 349 192 374 192 512 c 258
 192 1479 l 257
 540 1479 l 257
 540 528 l 258
EndSplineSet
EndChar

StartChar: uniE05C
Encoding: 57436 57436 1746
GlifName: uniE_05C_
Width: 1509
VWidth: 0
GlyphClass: 2
Flags: HW
LayerCount: 2
Fore
SplineSet
835 586 m 256
 757 586 708 472 692 379 c 257
 706 375 729 370 745 366 c 256
 799 350 854 340 892 340 c 256
 931 340 946 358 946 406 c 256
 946 482 925 586 835 586 c 256
844 928 m 256
 1074 928 1155 768 1227 614 c 256
 1290 478 1352 349 1508 349 c 258
 1509 349 l 257
 1509 0 l 257
 1508 0 l 258
 1352 0 1268 55 1206 178 c 257
 1158 70 1074 -11 934 -11 c 256
 835 -11 712 14 618 36 c 256
 552 52 488 63 455 63 c 256
 419 63 402 44 402 2 c 258
 402 -700 l 257
 52 -700 l 257
 52 39 l 258
 52 259 178 438 388 434 c 257
 433 706 590 928 844 928 c 256
EndSplineSet
EndChar

StartChar: uniE05D
Encoding: 57437 57437 1747
GlifName: uniE_05D_
Width: 1135
VWidth: 0
GlyphClass: 2
Flags: HW
LayerCount: 2
Fore
SplineSet
0 349 m 256
 130 349 192 468 258 596 c 256
 344 762 429 929 656 929 c 256
 906 929 1078 688 1078 426 c 256
 1078 160 932 -10 673 -10 c 256
 537 -10 394 49 326 142 c 257
 245 50 146 0 0 0 c 256
 -30 0 -46 35 -46 175 c 256
 -46 315 -30 349 0 349 c 256
502 409 m 257
 557 361 624 338 674 338 c 256
 710 338 760 362 760 426 c 256
 760 528 702 586 654 586 c 256
 611 586 564 567 514 437 c 258
 502 409 l 257
EndSplineSet
EndChar

StartChar: uniE05E
Encoding: 57438 57438 1748
GlifName: uniE_05E_
Width: 1321
VWidth: 0
GlyphClass: 2
Flags: HW
LayerCount: 2
Fore
SplineSet
502 409 m 257
 557 361 624 338 674 338 c 256
 710 338 760 362 760 426 c 256
 760 528 702 586 654 586 c 256
 611 586 564 567 514 437 c 258
 502 409 l 257
0 349 m 256
 130 349 192 468 258 598 c 256
 344 764 434 929 647 929 c 256
 875 929 967 767 1041 610 c 256
 1105 474 1166 349 1320 349 c 258
 1321 349 l 257
 1321 0 l 257
 1320 0 l 258
 1175 0 1042 48 999 196 c 257
 960 66 829 -11 673 -11 c 256
 537 -11 394 49 326 142 c 257
 245 50 146 0 0 0 c 256
 -30 0 -46 35 -46 175 c 256
 -46 315 -30 349 0 349 c 256
EndSplineSet
EndChar

StartChar: uniE05F
Encoding: 57439 57439 1749
GlifName: uniE_05F_
Width: 1206
VWidth: 0
GlyphClass: 2
Flags: HW
LayerCount: 2
Fore
SplineSet
636 998 m 257
 624 1172 l 257
 974 1194 l 257
 1012 528 l 258
 1019 408 1054 349 1206 349 c 258
 1206 349 l 257
 1206 0 l 257
 1206 0 l 258
 974 0 832 59 754 175 c 257
 693 151 625 138 558 138 c 256
 334 138 112 237 112 476 c 256
 112 778 355 942 636 998 c 257
660 682 m 257
 488 674 433 596 433 539 c 256
 433 494 478 453 586 453 c 256
 610 453 652 457 678 463 c 257
 675 478 673 490 671 510 c 258
 660 682 l 257
EndSplineSet
EndChar

StartChar: uniE060
Encoding: 57440 57440 1750
GlifName: uniE_060
Width: 1456
VWidth: 0
GlyphClass: 2
Flags: HW
LayerCount: 2
Fore
SplineSet
0 349 m 258
 90 349 l 258
 128 349 152 351 180 356 c 257
 132 424 94 503 94 586 c 256
 94 692 138 798 222 886 c 257
 120 930 l 257
 258 1252 l 257
 874 986 l 258
 1249 824 1405 661 1405 406 c 256
 1405 186 1246 -11 948 -11 c 256
 778 -11 642 38 512 102 c 257
 406 40 244 0 106 0 c 258
 0 0 l 258
 -29 0 -46 35 -46 175 c 256
 -46 315 -29 349 0 349 c 258
518 423 m 257
 596 460 646 514 646 598 c 256
 646 670 611 726 535 726 c 256
 461 726 418 660 418 580 c 256
 418 514 459 461 518 423 c 257
821 357 m 257
 864 347 912 340 956 340 c 256
 1018 340 1066 362 1066 428 c 256
 1066 490 1017 550 911 594 c 257
 921 507 882 413 821 357 c 257
EndSplineSet
EndChar

StartChar: uniE061
Encoding: 57441 57441 1751
GlifName: uniE_061
Width: 1135
VWidth: 0
GlyphClass: 2
Flags: HW
LayerCount: 2
Fore
SplineSet
578 1006 m 256
 787 1006 922 857 922 628 c 256
 922 368 750 161 446 52 c 257
 468 -42 513 -108 592 -168 c 257
 628 -152 l 257
 744 172 918 349 1111 349 c 258
 1136 349 l 257
 1136 0 l 257
 1106 0 l 258
 990 0 919 -110 824 -442 c 257
 596 -542 l 257
 360 -438 206 -252 146 0 c 257
 0 0 l 258
 -33 0 -46 51 -46 176 c 256
 -46 300 -33 349 0 349 c 258
 118 349 l 257
 138 756 312 1006 578 1006 c 256
416 368 m 257
 551 378 640 458 640 566 c 256
 640 624 614 656 566 656 c 256
 474 656 414 542 416 368 c 257
EndSplineSet
EndChar

StartChar: uniE062
Encoding: 57442 57442 1752
GlifName: uniE_062
Width: 991
VWidth: 0
GlyphClass: 2
Flags: HW
LayerCount: 2
Fore
SplineSet
606 353 m 257
 589 517 554 593 480 593 c 256
 412 593 378 517 378 425 c 256
 378 372 408 349 488 349 c 257
 528 349 574 351 606 353 c 257
558 0 m 257
 518 0 479 0 441 0 c 257
 208 0 74 139 74 391 c 256
 74 637 202 930 486 930 c 256
 792 930 899 675 923 349 c 257
 992 349 l 257
 992 0 l 257
 908 0 l 257
 845 -276 613 -462 203 -596 c 257
 52 -281 l 257
 296 -203 484 -106 558 0 c 257
EndSplineSet
EndChar

StartChar: uniE063
Encoding: 57443 57443 1753
GlifName: uniE_063
Width: 1338
VWidth: 0
GlyphClass: 2
Flags: HW
LayerCount: 2
Fore
SplineSet
76 1376 m 257
 403 1500 l 257
 523 1213 615 854 642 554 c 257
 303 507 l 257
 277 769 186 1112 76 1376 c 257
878 1479 m 257
 1228 1479 l 257
 1228 864 l 258
 1228 175 1030 0 316 0 c 258
 75 0 l 257
 75 349 l 257
 344 349 l 258
 817 349 878 384 878 831 c 258
 878 1479 l 257
EndSplineSet
EndChar

StartChar: uniE064
Encoding: 57444 57444 1754
GlifName: uniE_064
Width: 1424
VWidth: 0
GlyphClass: 2
Flags: HW
LayerCount: 2
Fore
SplineSet
78 1376 m 257
 405 1500 l 257
 524 1215 606 884 634 580 c 257
 296 534 l 257
 270 800 188 1114 78 1376 c 257
878 1479 m 257
 1228 1479 l 257
 1228 520 l 258
 1228 388 1273 349 1423 349 c 258
 1424 349 l 257
 1424 0 l 257
 1423 0 l 258
 1173 0 1022 93 970 280 c 257
 970 292 l 257
 824 86 560 0 75 0 c 257
 75 349 l 257
 649 349 850 441 878 713 c 257
 878 1479 l 257
EndSplineSet
EndChar

StartChar: uniE065
Encoding: 57445 57445 1755
GlifName: uniE_065
Width: 1970
VWidth: 0
GlyphClass: 2
Flags: HW
LayerCount: 2
Fore
SplineSet
1818 772 m 257
 1798 670 1785 585 1785 518 c 256
 1785 412 1824 349 1968 349 c 258
 1970 349 l 257
 1970 0 l 257
 1968 0 l 258
 1751 0 1622 66 1516 226 c 257
 1342 56 1099 0 791 0 c 256
 259 0 52 218 52 566 c 256
 52 681 73 812 113 950 c 257
 418 868 l 257
 390 768 376 680 376 613 c 256
 376 417 494 349 840 349 c 256
 1266 349 1436 487 1500 825 c 257
 1818 772 l 257
EndSplineSet
EndChar

StartChar: uniE066
Encoding: 57446 57446 1756
GlifName: uniE_066
Width: 964
VWidth: 0
GlyphClass: 2
Flags: HW
LayerCount: 2
Fore
SplineSet
556 783 m 257
 539 947 502 1019 430 1019 c 256
 362 1019 329 942 329 850 c 256
 329 797 358 774 438 774 c 256
 480 774 527 778 556 783 c 257
0 349 m 258
 66 349 l 258
 565 349 605 361 605 500 c 257
 537 480 470 472 396 472 c 256
 174 472 32 556 32 804 c 256
 32 1043 138 1362 438 1362 c 256
 881 1362 912 760 912 574 c 256
 912 182 777 0 83 0 c 258
 0 0 l 258
 -30 0 -46 35 -46 175 c 256
 -46 315 -29 349 0 349 c 258
EndSplineSet
EndChar

StartChar: uniE067
Encoding: 57447 57447 1757
GlifName: uniE_067
Width: 1955
VWidth: 0
GlyphClass: 2
Flags: HW
LayerCount: 2
Fore
SplineSet
1446 83 m 257
 1290 36 1076 0 876 0 c 256
 300 0 52 156 52 502 c 256
 52 632 86 783 144 953 c 257
 448 856 l 257
 409 736 386 638 386 564 c 256
 386 387 542 349 876 349 c 256
 949 349 1054 351 1126 355 c 257
 1049 419 998 507 998 633 c 256
 998 893 1194 1086 1450 1086 c 256
 1700 1086 1904 894 1904 638 c 256
 1904 516 1852 420 1776 354 c 257
 1815 350 1848 349 1894 349 c 258
 1955 349 l 257
 1955 0 l 257
 1862 0 l 258
 1714 0 1563 30 1446 83 c 257
1448 429 m 257
 1517 469 1555 538 1555 614 c 256
 1555 671 1524 736 1450 736 c 256
 1374 736 1346 674 1346 614 c 256
 1346 540 1385 469 1448 429 c 257
EndSplineSet
EndChar

StartChar: uniE068
Encoding: 57448 57448 1758
GlifName: uniE_068
Width: 1052
VWidth: 0
GlyphClass: 2
Flags: HW
LayerCount: 2
Fore
SplineSet
72 633 m 256
 72 893 270 1086 526 1086 c 256
 776 1086 980 894 980 638 c 256
 980 516 927 420 850 354 c 257
 889 350 925 349 970 349 c 258
 1052 349 l 257
 1052 0 l 257
 938 0 l 258
 790 0 635 30 518 83 c 257
 401 30 251 0 102 0 c 258
 0 0 l 258
 -30 0 -47 35 -47 175 c 256
 -47 315 -30 349 0 349 c 258
 70 349 l 258
 117 349 158 350 201 354 c 257
 125 418 72 507 72 633 c 256
524 430 m 257
 594 470 630 538 630 614 c 256
 630 671 600 736 526 736 c 256
 450 736 422 674 422 614 c 256
 422 540 462 470 524 430 c 257
EndSplineSet
EndChar

StartChar: uniE069
Encoding: 57449 57449 1759
GlifName: uniE_069
Width: 1582
VWidth: 0
GlyphClass: 2
Flags: HW
LayerCount: 2
Fore
SplineSet
1196 338 m 257
 1179 502 1144 577 1070 577 c 256
 1002 577 970 501 970 409 c 256
 970 356 998 333 1078 333 c 256
 1118 333 1164 336 1196 338 c 257
1158 16 m 257
 1128 9 1074 0 1032 0 c 256
 800 0 666 140 666 390 c 256
 666 636 794 930 1078 930 c 256
 1352 930 1493 713 1519 349 c 257
 1582 349 l 257
 1582 0 l 257
 1501 0 l 257
 1449 -350 1133 -544 777 -544 c 256
 327 -544 52 -296 52 100 c 256
 52 258 92 440 176 638 c 257
 490 494 l 257
 435 340 400 206 400 102 c 256
 400 -92 536 -194 806 -194 c 256
 992 -194 1134 -114 1158 16 c 257
EndSplineSet
EndChar

StartChar: uniE06E
Encoding: 57454 57454 1764
GlifName: uniE_06E_
Width: 0
VWidth: 0
GlyphClass: 2
Flags: H
LayerCount: 2
Fore
SplineSet
-36 1226 m 257
 20 1226 l 258
 86 1226 200 1235 200 1304 c 256
 200 1338 171 1368 132 1368 c 256
 75 1368 21 1300 -36 1226 c 257
-200 1226 m 257
 -200 1618 l 257
 -68 1618 l 257
 -68 1348 l 257
 0 1432 62 1499 161 1499 c 256
 249 1499 332 1437 332 1305 c 256
 332 1144 188 1095 20 1095 c 258
 -322 1095 l 257
 -322 1226 l 257
 -200 1226 l 257
EndSplineSet
EndChar

StartChar: uniE06F
Encoding: 57455 57455 1765
GlifName: uniE_06F_
Width: 0
VWidth: 0
GlyphClass: 2
Flags: H
LayerCount: 2
Fore
SplineSet
75 1357 m 257
 101 1345 137 1335 169 1335 c 256
 229 1335 290 1358 290 1410 c 256
 290 1442 267 1462 225 1462 c 256
 174 1462 120 1421 75 1357 c 257
-60 1409 m 257
 42 1541 135 1628 239 1628 c 256
 350 1628 434 1566 434 1401 c 256
 434 1258 307 1137 159 1137 c 256
 82 1137 17 1159 -33 1182 c 256
 -70 1199 -101 1211 -126 1211 c 256
 -183 1211 -213 1171 -266 1095 c 257
 -402 1176 l 257
 -331 1319 -229 1413 -104 1413 c 256
 -88 1413 -74 1411 -60 1409 c 257
EndSplineSet
EndChar

StartChar: uniE070
Encoding: 57456 57456 1766
GlifName: uniE_070
Width: 0
VWidth: 0
GlyphClass: 2
Flags: H
LayerCount: 2
Fore
SplineSet
230 1363 m 257
 230 1200 146 1115 0 1115 c 256
 -148 1115 -230 1201 -230 1363 c 257
 -105 1363 l 257
 -105 1276 -74 1240 0 1240 c 256
 72 1240 105 1280 105 1363 c 257
 230 1363 l 257
EndSplineSet
EndChar

StartChar: uniE071
Encoding: 57457 57457 1767
GlifName: uniE_071
Width: 0
VWidth: 0
GlyphClass: 2
Flags: H
LayerCount: 2
Fore
SplineSet
230 1136 m 257
 -230 1136 l 257
 -230 1261 l 257
 230 1261 l 257
 230 1136 l 257
EndSplineSet
EndChar

StartChar: uniE072
Encoding: 57458 57458 1768
GlifName: uniE_072
Width: 0
VWidth: 0
GlyphClass: 2
Flags: H
LayerCount: 2
Fore
SplineSet
-69 1519 m 256
 -99 1519 -114 1492 -114 1457 c 256
 -114 1424 -106 1392 -79 1362 c 257
 -39 1376 10 1401 10 1447 c 256
 10 1485 -32 1519 -69 1519 c 256
-85 1648 m 256
 25 1648 134 1551 134 1444 c 256
 134 1363 75 1311 21 1287 c 257
 57 1269 175 1216 242 1197 c 257
 208 1076 l 257
 18 1127 -243 1254 -243 1465 c 256
 -243 1570 -180 1648 -85 1648 c 256
EndSplineSet
EndChar

StartChar: uniE073
Encoding: 57459 57459 1769
GlifName: uniE_073
Width: 0
VWidth: 0
GlyphClass: 2
Flags: H
LayerCount: 2
Fore
SplineSet
-180 1095 m 257
 -232 1208 l 257
 180 1404 l 257
 232 1291 l 257
 -180 1095 l 257
-195 1420 m 257
 -111 1504 l 257
 -27 1420 l 257
 -111 1337 l 257
 -195 1420 l 257
1 1063 m 257
 85 1147 l 257
 169 1063 l 257
 85 980 l 257
 1 1063 l 257
EndSplineSet
EndChar

StartChar: uniE075
Encoding: 57461 57461 1770
GlifName: uniE_075
Width: 2212
VWidth: 0
GlyphClass: 2
Flags: HW
LayerCount: 2
Fore
SplineSet
1216 1546 m 257
 1398 1252 l 257
 1100 1088 935 984 830 894 c 257
 1462 894 l 258
 1821 894 2160 850 2160 528 c 256
 2160 160 1755 0 1347 0 c 258
 52 0 l 257
 52 349 l 257
 1444 349 l 258
 1666 349 1794 411 1794 472 c 256
 1794 516 1731 545 1569 545 c 258
 494 545 l 257
 370 680 l 257
 410 1001 583 1184 1216 1546 c 257
EndSplineSet
EndChar

StartChar: uniE076
Encoding: 57462 57462 1771
GlifName: uniE_076
Width: 2042
VWidth: 0
GlyphClass: 2
Flags: HW
LayerCount: 2
Fore
SplineSet
867 492 m 257
 617 340 l 257
 511 310 282 236 150 177 c 257
 52 444 l 257
 235 514 423 585 591 585 c 256
 692 585 787 560 867 492 c 257
EndSplineSet
Refer: 1716 57406 N 1 0 0 1 426 0 2
EndChar

StartChar: uniE077
Encoding: 57463 57463 1772
GlifName: uniE_077
Width: 1766
VWidth: 0
GlyphClass: 2
Flags: HW
LayerCount: 2
Fore
SplineSet
1285 798 m 257
 1241 972 1218 1040 1182 1040 c 256
 1157 1040 1140 1007 1128 982 c 256
 1018 754 873 570 598 506 c 256
 438 469 397 434 397 396 c 256
 397 362 435 349 596 349 c 258
 1715 349 l 257
 1715 0 l 257
 506 0 l 258
 252 0 52 108 52 366 c 256
 52 666 298 786 530 848 c 256
 680 888 751 982 820 1120 c 256
 887 1256 982 1420 1184 1420 c 256
 1474 1420 1534 1164 1594 874 c 257
 1285 798 l 257
EndSplineSet
EndChar

StartChar: uniE078
Encoding: 57464 57464 1773
GlifName: uniE_078
Width: 1500
VWidth: 0
GlyphClass: 2
Flags: HW
LayerCount: 2
Fore
SplineSet
1071 1219 m 257
 1083 1217 1100 1216 1116 1216 c 256
 1184 1216 1272 1218 1272 1281 c 256
 1272 1314 1255 1330 1221 1330 c 256
 1163 1330 1112 1270 1071 1219 c 257
974 1255 m 257
 1033 1359 1118 1446 1228 1446 c 256
 1326 1446 1400 1383 1400 1281 c 256
 1400 1129 1264 1090 1131 1090 c 256
 1025 1090 952 1110 900 1157 c 257
 865 1110 815 1090 744 1090 c 256
 680 1090 627 1107 591 1147 c 257
 559 1107 513 1090 453 1090 c 258
 421 1090 l 258
 340 1090 230 1066 230 997 c 256
 230 977 252 974 283 974 c 258
 892 974 l 257
 892 848 l 257
 277 848 l 258
 181 848 100 888 100 988 c 256
 100 1144 265 1216 421 1216 c 258
 453 1216 l 258
 523 1216 526 1242 526 1311 c 258
 526 1632 l 257
 654 1632 l 257
 654 1314 l 258
 654 1235 655 1216 744 1216 c 256
 831 1216 834 1238 834 1323 c 258
 834 1390 l 257
 962 1390 l 257
 962 1328 l 258
 962 1278 966 1266 974 1255 c 257
EndSplineSet
EndChar

StartChar: uniE079
Encoding: 57465 57465 1774
GlifName: uniE_079
Width: 1186
VWidth: 0
GlyphClass: 2
Flags: HW
LayerCount: 2
Fore
SplineSet
854 1407 m 256
 854 1380 871 1371 903 1371 c 256
 927 1371 945 1374 965 1379 c 257
 960 1424 948 1499 904 1499 c 256
 870 1499 854 1449 854 1407 c 256
974 1271 m 257
 944 1264 915 1261 888 1261 c 256
 800 1261 736 1300 736 1396 c 256
 736 1510 784 1620 904 1620 c 256
 1055 1620 1098 1467 1098 1317 c 256
 1098 1126 968 1090 791 1090 c 258
 744 1090 l 258
 680 1090 627 1107 591 1147 c 257
 559 1107 513 1090 453 1090 c 258
 421 1090 l 258
 340 1090 230 1066 230 997 c 256
 230 977 252 974 283 974 c 258
 892 974 l 257
 892 848 l 257
 277 848 l 258
 181 848 100 888 100 988 c 256
 100 1144 265 1216 421 1216 c 258
 453 1216 l 258
 523 1216 526 1242 526 1311 c 258
 526 1632 l 257
 654 1632 l 257
 654 1314 l 258
 654 1235 655 1216 744 1216 c 258
 827 1216 l 258
 926 1216 956 1227 974 1271 c 257
1035 1731 m 257
 966 1662 l 257
 898 1731 l 257
 966 1799 l 257
 1035 1731 l 257
906 1731 m 257
 837 1662 l 257
 768 1731 l 257
 837 1799 l 257
 906 1731 l 257
EndSplineSet
EndChar

StartChar: uniE07A
Encoding: 57466 57466 1775
GlifName: uniE_07A_
Width: 0
VWidth: 0
GlyphClass: 2
Flags: H
LayerCount: 2
Fore
SplineSet
-160 1477 m 257
 160 1477 l 257
 160 1331 l 257
 -160 1331 l 257
 -160 1477 l 257
EndSplineSet
EndChar

StartChar: uniE07B
Encoding: 57467 57467 1776
GlifName: uniE_07B_
Width: 0
VWidth: 0
GlyphClass: 2
Flags: H
LayerCount: 2
Fore
SplineSet
-157 1307 m 257
 -252 1659 l 257
 -114 1699 l 257
 -21 1341 l 257
 -157 1307 l 257
246 1693 m 257
 246 1444 l 258
 246 1160 160 1081 -152 1081 c 258
 -248 1081 l 257
 -248 1225 l 257
 -138 1225 l 258
 69 1225 101 1253 101 1430 c 258
 101 1693 l 257
 246 1693 l 257
EndSplineSet
EndChar

StartChar: uniE07C
Encoding: 57468 57468 1777
GlifName: uniE_07C_
Width: 0
VWidth: 0
GlyphClass: 2
Flags: H
LayerCount: 2
Fore
SplineSet
40 1202 m 257
 110 1132 l 257
 40 1062 l 257
 -30 1132 l 257
 40 1202 l 257
73 1383 m 257
 -3 1413 l 258
 -37 1427 -61 1433 -80 1433 c 256
 -119 1433 -140 1406 -151 1343 c 257
 -252 1361 l 257
 -233 1497 -181 1561 -92 1561 c 256
 -56 1561 -20 1551 65 1516 c 258
 258 1438 l 257
 258 1319 l 257
 2 1267 -134 1189 -134 1095 c 256
 -134 1032 -72 996 37 996 c 256
 107 996 187 1011 244 1034 c 257
 291 913 l 257
 219 877 129 857 39 857 c 256
 -146 857 -262 942 -262 1078 c 256
 -262 1212 -150 1313 73 1383 c 257
EndSplineSet
EndChar

StartChar: uniE07D
Encoding: 57469 57469 1778
GlifName: uniE_07D_
Width: 0
VWidth: 0
GlyphClass: 2
Flags: H
LayerCount: 2
Fore
SplineSet
-106 1277 m 257
 -19 1189 l 257
 -106 1102 l 257
 -193 1189 l 257
 -106 1277 l 257
106 1277 m 257
 193 1189 l 257
 106 1102 l 257
 18 1189 l 257
 106 1277 l 257
0 1452 m 257
 88 1365 l 257
 0 1277 l 257
 -87 1365 l 257
 0 1452 l 257
EndSplineSet
EndChar

StartChar: uniE07E
Encoding: 57470 57470 1779
GlifName: uniE_07E_
Width: 0
VWidth: 0
GlyphClass: 2
Flags: H
LayerCount: 2
Fore
SplineSet
238 1149 m 257
 226 1103 183 1077 137 1077 c 256
 111 1077 90 1086 76 1099 c 257
 61 937 -60 862 -219 862 c 256
 -423 862 -518 960 -518 1132 c 256
 -518 1204 -502 1291 -473 1375 c 257
 -355 1340 l 257
 -374 1277 -392 1205 -392 1146 c 256
 -392 1048 -346 991 -220 991 c 256
 -92 991 -49 1047 -49 1133 c 256
 -49 1194 -74 1274 -98 1342 c 257
 29 1392 l 257
 63 1275 l 258
 76 1224 92 1206 126 1206 c 256
 157 1206 174 1225 178 1266 c 258
 185 1361 l 257
 298 1353 l 257
 292 1268 l 258
 292 1265 292 1262 292 1259 c 256
 292 1223 309 1206 342 1206 c 256
 375 1206 390 1224 390 1263 c 256
 390 1285 385 1325 375 1382 c 257
 501 1412 l 257
 512 1360 518 1309 518 1265 c 256
 518 1139 468 1077 365 1077 c 256
 299 1077 256 1102 238 1149 c 257
EndSplineSet
EndChar

StartChar: uniE07F
Encoding: 57471 57471 1780
GlifName: uniE_07F_
Width: 0
VWidth: 0
GlyphClass: 2
Flags: H
LayerCount: 2
Fore
SplineSet
-118 1413 m 256
 -118 1478 -65 1530 0 1530 c 256
 65 1530 118 1478 118 1413 c 256
 118 1348 65 1295 0 1295 c 256
 -65 1295 -118 1348 -118 1413 c 256
EndSplineSet
EndChar

StartChar: uniE080
Encoding: 57472 57472 1781
GlifName: uniE_080
Width: 0
VWidth: 0
GlyphClass: 2
Flags: H
LayerCount: 2
Fore
SplineSet
-122 1291 m 257
 -122 1534 l 257
 122 1534 l 257
 122 1291 l 257
 -122 1291 l 257
EndSplineSet
EndChar

StartChar: uniE081
Encoding: 57473 57473 1782
GlifName: uniE_081
Width: 0
VWidth: 0
GlyphClass: 2
Flags: H
LayerCount: 2
Fore
SplineSet
-75 1484 m 256
 -46 1484 -13 1477 25 1462 c 258
 243 1375 l 257
 244 1290 l 257
 132 1168 -14 1100 -244 1095 c 257
 -244 1223 l 257
 -109 1223 -12 1249 68 1307 c 257
 -25 1342 l 258
 -43 1349 -57 1351 -69 1351 c 256
 -113 1351 -125 1313 -132 1276 c 257
 -234 1296 l 257
 -222 1398 -176 1484 -75 1484 c 256
EndSplineSet
EndChar

StartChar: uniE082
Encoding: 57474 57474 1783
GlifName: uniE_082
Width: 0
VWidth: 0
GlyphClass: 2
Flags: H
LayerCount: 2
Fore
SplineSet
131 1264 m 256
 131 1303 118 1350 75 1350 c 256
 34 1350 13 1293 4 1247 c 257
 31 1239 75 1228 101 1228 c 256
 123 1228 131 1239 131 1264 c 256
-86 1130 m 256
 -108 1130 -117 1118 -117 1095 c 258
 -117 802 l 257
 -247 802 l 257
 -247 1110 l 258
 -247 1205 -193 1272 -109 1268 c 257
 -88 1392 -19 1477 79 1477 c 256
 184 1477 248 1388 248 1260 c 256
 248 1155 201 1098 113 1098 c 256
 80 1098 35 1106 -22 1119 c 256
 -54 1127 -73 1130 -86 1130 c 256
EndSplineSet
EndChar

StartChar: uniE083
Encoding: 57475 57475 1784
GlifName: uniE_083
Width: 0
VWidth: 0
GlyphClass: 2
Flags: H
LayerCount: 2
Fore
SplineSet
57 1422 m 256
 80 1422 108 1444 129 1475 c 257
 220 1418 l 257
 163 1322 126 1290 63 1290 c 256
 29 1290 4 1303 -19 1315 c 256
 -34 1323 -44 1326 -53 1326 c 256
 -77 1326 -103 1304 -123 1272 c 257
 -220 1328 l 257
 -167 1415 -123 1460 -58 1460 c 256
 -21 1460 4 1446 28 1432 c 256
 40 1425 49 1422 57 1422 c 256
EndSplineSet
EndChar

StartChar: uniE084
Encoding: 57476 57476 1785
GlifName: uniE_084
Width: 0
VWidth: 0
GlyphClass: 2
Flags: H
LayerCount: 2
Fore
SplineSet
43 1098 m 257
 24 1096 5 1094 -16 1094 c 256
 -111 1094 -167 1149 -167 1251 c 256
 -167 1352 -115 1471 0 1471 c 256
 144 1471 181 1325 181 1161 c 256
 181 1008 81 912 -123 847 c 257
 -178 964 l 257
 -63 999 17 1044 43 1098 c 257
-54 1263 m 256
 -54 1235 -38 1223 1 1223 c 256
 23 1223 45 1226 60 1229 c 257
 53 1301 36 1346 -3 1346 c 256
 -38 1346 -54 1306 -54 1263 c 256
EndSplineSet
EndChar

StartChar: uniE085
Encoding: 57477 57477 1786
GlifName: uniE_085
Width: 1022
VWidth: 0
GlyphClass: 2
Flags: HW
LayerCount: 2
Fore
SplineSet
892 1205 m 257
 892 1076 l 257
 261 1076 l 258
 160 1076 79 1118 79 1221 c 256
 79 1342 179 1390 273 1415 c 256
 338 1432 371 1474 401 1534 c 256
 428 1588 466 1655 546 1655 c 256
 660 1655 684 1554 708 1441 c 257
 593 1413 l 257
 575 1483 565 1515 545 1515 c 256
 531 1515 522 1497 515 1483 c 256
 469 1388 409 1315 299 1289 c 256
 231 1273 207 1255 207 1232 c 256
 207 1212 227 1205 293 1205 c 258
 892 1205 l 257
EndSplineSet
EndChar

StartChar: uniE086
Encoding: 57478 57478 1787
GlifName: uniE_086
Width: 0
VWidth: 0
GlyphClass: 2
Flags: H
LayerCount: 2
Fore
SplineSet
127 1449 m 257
 249 1508 l 257
 288 1418 314 1352 314 1246 c 256
 314 1055 176 959 0 959 c 256
 -211 959 -314 1061 -314 1239 c 256
 -314 1311 -297 1396 -268 1483 c 257
 -150 1445 l 257
 -167 1385 -186 1312 -186 1251 c 256
 -186 1151 -136 1088 0 1088 c 256
 131 1088 184 1150 184 1241 c 256
 184 1303 160 1376 127 1449 c 257
0 1424 m 257
 77 1347 l 257
 0 1270 l 257
 -77 1347 l 257
 0 1424 l 257
EndSplineSet
EndChar

StartChar: uniE087
Encoding: 57479 57479 1788
GlifName: uniE_087
Width: 0
VWidth: 0
GlyphClass: 2
Flags: H
LayerCount: 2
Fore
SplineSet
-70 1346 m 257
 0 1277 l 257
 70 1347 l 257
 0 1415 l 257
 -70 1346 l 257
-216 1346 m 257
 0 1562 l 257
 216 1347 l 257
 0 1131 l 257
 -216 1346 l 257
EndSplineSet
EndChar

StartChar: uniE088
Encoding: 57480 57480 1789
GlifName: uniE_088
Width: 596
VWidth: 0
GlyphClass: 2
Flags: HW
LayerCount: 2
Fore
SplineSet
123 378 m 257
 283 378 l 257
 283 0 l 257
 123 0 l 257
 123 378 l 257
398 378 m 257
 558 378 l 257
 558 0 l 257
 398 0 l 257
 398 378 l 257
EndSplineSet
EndChar

StartChar: uniE089
Encoding: 57481 57481 1790
GlifName: uniE_089
Width: 753
VWidth: 0
GlyphClass: 2
Flags: HW
LayerCount: 2
Fore
SplineSet
713 130 m 257
 713 0 l 257
 40 0 l 257
 40 130 l 257
 713 130 l 257
EndSplineSet
EndChar

StartChar: uniE08A
Encoding: 57482 57482 1791
GlifName: uniE_08A_
Width: 589
VWidth: 0
GlyphClass: 2
Flags: HW
LayerCount: 2
Fore
SplineSet
208 514 m 257
 258 390 l 258
 272 354 287 335 312 335 c 256
 336 335 354 349 359 402 c 258
 370 511 l 257
 498 503 l 257
 487 352 470 207 306 207 c 256
 303 207 302 207 296 208 c 257
 306 141 312 78 312 0 c 257
 182 0 l 257
 182 187 148 317 90 456 c 257
 208 514 l 257
EndSplineSet
EndChar

StartChar: uniE08B
Encoding: 57483 57483 1792
GlifName: uniE_08B_
Width: 701
VWidth: 0
GlyphClass: 2
Flags: HW
LayerCount: 2
Fore
SplineSet
211 514 m 257
 257 382 l 258
 269 348 278 341 295 341 c 256
 315 341 324 354 326 388 c 258
 333 493 l 257
 436 485 l 257
 431 441 426 394 426 371 c 256
 426 350 443 341 464 341 c 256
 486 341 500 355 500 376 c 256
 500 409 490 468 487 484 c 257
 615 506 l 257
 619 484 628 430 628 385 c 256
 628 287 570 214 469 214 c 256
 436 214 401 226 379 243 c 257
 358 226 331 216 299 215 c 257
 308 147 312 76 312 0 c 257
 182 0 l 257
 182 187 148 324 92 457 c 257
 211 514 l 257
EndSplineSet
EndChar

StartChar: uniE08C
Encoding: 57484 57484 1793
GlifName: uniE_08C_
Width: 602
VWidth: 0
GlyphClass: 2
Flags: HW
LayerCount: 2
Fore
SplineSet
241 532 m 256
 279 532 321 514 350 476 c 258
 357 467 l 257
 445 534 l 257
 525 427 l 257
 378 307 l 257
 330 307 l 257
 280 386 l 258
 273 397 264 401 254 401 c 256
 239 401 224 390 224 375 c 256
 224 370 226 364 229 359 c 258
 352 160 l 258
 373 128 383 88 383 47 c 256
 383 21 379 -5 370 -31 c 257
 252 17 l 257
 257 27 259 37 259 46 c 256
 259 63 252 79 242 96 c 258
 120 301 l 258
 103 330 95 358 95 385 c 256
 95 467 166 532 241 532 c 256
EndSplineSet
EndChar

StartChar: uniE08D
Encoding: 57485 57485 1794
GlifName: uniE_08D_
Width: 1292
VWidth: 0
GlyphClass: 2
Flags: HW
LayerCount: 2
Fore
SplineSet
860 187 m 257
 864 326 820 521 750 692 c 257
 1094 822 l 257
 1172 606 1217 391 1217 221 c 256
 1217 116 1198 12 1162 -82 c 257
 1236 -142 1314 -211 1402 -296 c 257
 1194 -504 l 257
 1132 -442 1071 -382 1005 -322 c 257
 881 -459 706 -546 510 -546 c 256
 234 -546 52 -394 52 -152 c 256
 52 102 256 285 520 285 c 256
 641 285 759 251 860 187 c 257
766 -82 m 257
 690 -10 596 29 502 29 c 256
 408 29 339 -14 339 -89 c 256
 339 -161 401 -196 508 -196 c 256
 616 -196 710 -148 766 -82 c 257
EndSplineSet
EndChar

StartChar: uniE08E
Encoding: 57486 57486 1795
GlifName: uniE_08E_
Width: 1726
VWidth: 0
GlyphClass: 2
Flags: HW
LayerCount: 2
Fore
SplineSet
1198 430 m 257
 1268 470 1304 538 1304 614 c 256
 1304 671 1274 736 1200 736 c 256
 1124 736 1096 674 1096 614 c 256
 1096 540 1136 470 1198 430 c 257
1192 83 m 257
 1072 27 932 0 790 0 c 256
 688 0 594 14 516 40 c 256
 486 49 462 56 440 56 c 256
 412 56 404 42 404 14 c 256
 404 -6 408 -32 416 -66 c 256
 430 -120 451 -182 473 -242 c 257
 143 -362 l 257
 117 -292 94 -216 76 -142 c 256
 62 -82 52 -19 52 45 c 256
 52 233 182 408 380 408 c 256
 432 408 479 396 530 382 c 256
 590 366 675 344 771 344 c 256
 807 344 840 346 874 354 c 257
 798 418 746 507 746 633 c 256
 746 893 944 1086 1200 1086 c 256
 1450 1086 1653 894 1653 638 c 256
 1653 516 1602 420 1525 354 c 257
 1569 350 1615 349 1662 349 c 258
 1726 349 l 257
 1726 0 l 257
 1614 0 l 258
 1466 0 1309 30 1192 83 c 257
EndSplineSet
EndChar

